SplineFontDB: 1.0
FontName: LomaBoldOblique
FullName: Loma Bold Oblique
FamilyName: Loma
Weight: Bold
Copyright: Copyright (c) NECTEC, 2003. All rights reserved.
Version: 0.9.1; 2003
ItalicAngle: -12
UnderlinePosition: -217
UnderlineWidth: 150
Ascent: 1638
Descent: 410
NeedsXUIDChange: 1
FSType: 0
PfmFamily: 17
TTFWeight: 700
TTFWidth: 5
Panose: 2 11 6 4 2 2 2 2 2 4
LineGap: 0
VLineGap: 0
OS2TypoAscent: 2089
OS2TypoDescent: -430
OS2WinAscent: 2089
OS2WinDescent: 430
ScriptLang: 2
 1 latn 1 dflt 
 1 thai 1 dflt 
TableOrder: GPOS 1
	'kern'
LangName: 1024 "Copyright (c) NECTEC, 2003. All rights reserved." "Loma" "BoldItalic" "Nectec UI" "Loma Bold Italic" "Version 0.1; 2003 " "Loma-Bold-Italic" "SLThaiUI is a trademark of the NECTEC." "" "Mr.Sirichai Lerdvorawut" "" "http://www.opentle.org" "http://www.opentle.org" "GPL" 
LangName: 1033 "" "" "" "Nectec UI - Loma Bold Italic" "" "" "" "SLThaiUI is a trademark of the NECTEC." "" "Mr.Sirichai Lerdvorawut" "" "http://www.opentle.org" "http://www.opentle.org" "GPL" 
Encoding: compacted
OldEncoding: unicode
UnicodeInterp: none
DisplaySize: -24
AntiAlias: 1
FitToEm: 1
WinInfo: 176 16 5
BeginChars: 271 271
StartChar: .notdef
Encoding: 0 -1 0
OldEncoding: 0
Width: 1536
Flags: W
Fore
256 0 m 1
 528 1280 l 1
 1552 1280 l 1
 1280 0 l 1
 256 0 l 1
294 32 m 1
 1254 32 l 1
 1513 1248 l 1
 553 1248 l 1
 294 32 l 1
EndSplineSet
EndChar
StartChar: exclam
Encoding: 3 33 5
OldEncoding: 33
Width: 569
Flags: W
Fore
381 999 m 1
 477 1450 l 1
 716 1450 l 1
 620 999 l 1
 442 365 l 1
 290 365 l 1
 381 999 l 1
218 194 m 1
 441 194 l 1
 400 0 l 1
 177 0 l 1
 218 194 l 1
EndSplineSet
EndChar
StartChar: quotedbl
Encoding: 4 34 6
OldEncoding: 34
Width: 727
Flags: W
Fore
357 947 m 1
 364 1217 l 1
 414 1450 l 1
 644 1450 l 1
 594 1217 l 1
 492 947 l 1
 357 947 l 1
638 947 m 1
 647 1217 l 1
 697 1450 l 1
 927 1450 l 1
 877 1217 l 1
 773 947 l 1
 638 947 l 1
EndSplineSet
EndChar
StartChar: numbersign
Encoding: 5 35 7
OldEncoding: 35
Width: 1139
Flags: W
Fore
54 -10 m 1
 219 355 l 1
 96 355 l 1
 147 595 l 1
 309 595 l 1
 431 865 l 1
 204 865 l 1
 255 1105 l 1
 512 1105 l 1
 677 1470 l 1
 917 1470 l 1
 752 1105 l 1
 971 1105 l 1
 1136 1470 l 1
 1376 1470 l 1
 1211 1105 l 1
 1347 1105 l 1
 1296 865 l 1
 1121 864 l 1
 998 595 l 1
 1239 595 l 1
 1188 355 l 1
 917 355 l 1
 760 -10 l 1
 513 -10 l 1
 677 355 l 1
 459 355 l 1
 294 -10 l 1
 54 -10 l 1
540 595 m 1
 758 595 l 1
 881 865 l 1
 662 865 l 1
 540 595 l 1
EndSplineSet
EndChar
StartChar: dollar
Encoding: 6 36 8
OldEncoding: 36
Width: 1139
Flags: W
Fore
454 -37 m 1
 407.333 -31 365.333 -20.6667 328 -6 c 0
 188.667 50.6667 130 167.333 152 344 c 1
 164 417 l 1
 373 417 l 1
 371.667 411.667 370.667 406 370 400 c 0
 360 354.667 358 316 364 284 c 0
 375.333 224.667 418.667 181 494 153 c 1
 593 621 l 1
 520.333 636.333 460 666 412 710 c 0
 324.667 788.667 295.667 895.667 325 1031 c 0
 344.333 1121.67 381.667 1199.33 437 1264 c 0
 520.333 1360.67 629.667 1415.67 765 1429 c 1
 778 1488 l 1
 980 1488 l 1
 967 1429 l 1
 1176.33 1405 1264.33 1278.67 1231 1050 c 1
 1028 1050 l 1
 1030.67 1072 1029.67 1094 1025 1116 c 0
 1013 1179.33 980.333 1220.33 927 1239 c 1
 838 820 l 1
 904.667 807.333 960.667 785.667 1006 755 c 0
 1120.67 679 1160.67 559.667 1126 397 c 0
 1101.33 281.667 1048.67 184.333 968 105 c 0
 878.667 18.3333 774.667 -28.3333 656 -35 c 1
 638 -118 l 1
 436 -118 l 1
 454 -37 l 1
725 1241 m 1
 715 1239 705 1236.67 695 1234 c 0
 626.333 1212 578 1164.33 550 1091 c 1
 537 1044 l 1
 533.667 1028 532 1013 532 999 c 0
 528 925 564 872 640 840 c 1
 725 1241 l 1
739 167 m 1
 780 186 l 1
 847.333 224 891.333 290.667 912 386 c 0
 917.333 412.667 919.667 436.667 919 458 c 1
 915 495 l 1
 902.333 545.667 861 580.333 791 599 c 1
 696 153 l 1
 739 167 l 1
EndSplineSet
EndChar
StartChar: percent
Encoding: 7 37 9
OldEncoding: 37
Width: 1821
Flags: W
Fore
355 1114 m 0
 377.667 1219.33 422.667 1308 490 1380 c 0
 558 1454 642 1491 742 1491 c 0
 837.333 1491 906.667 1458 950 1392 c 0
 995.333 1323.33 1005 1227.33 979 1104 c 0
 953 986 902.333 890.333 827 817 c 1
 755.667 750.333 673.333 717 580 717 c 0
 489.333 717 423 749.667 381 815 c 0
 336.333 884.333 327.667 984 355 1114 c 0
710 1317 m 0
 673.333 1317 641.333 1301.33 614 1270 c 0
 583.333 1235.33 559.333 1177.33 542 1096 c 0
 526 1018 526.667 963.667 544 933 c 0
 560.667 901.667 585.667 886 619 886 c 0
 654.333 886 687 901.667 717 933 c 0
 747 965 771 1023 789 1107 c 0
 805 1184.33 804.667 1238.67 788 1270 c 0
 771.333 1301.33 745.333 1317 710 1317 c 0
1486 1491 m 1
 1763 1491 l 1
 685 -10 l 1
 408 -10 l 1
 1486 1491 l 1
1140 344 m 0
 1162 449.333 1206.67 538 1274 610 c 0
 1343.33 684 1428.33 721 1529 721 c 0
 1623.67 721 1692.67 688 1736 622 c 0
 1782 552 1792 456 1766 334 c 0
 1740.67 212.667 1689.67 117 1613 47 c 0
 1540.33 -19.6667 1457.33 -53 1364 -53 c 0
 1270.67 -53 1204 -20 1164 46 c 0
 1120.67 117.333 1112.67 216.667 1140 344 c 0
1497 546 m 0
 1458.33 546 1425 530.333 1397 499 c 0
 1367 465 1343.33 408.333 1326 329 c 0
 1310.67 254.333 1311.67 201.667 1329 171 c 0
 1346.33 139.667 1372.33 124 1407 124 c 0
 1443.67 124 1477.33 139.667 1508 171 c 0
 1538 201.667 1561.67 258 1579 340 c 0
 1595 414.667 1594.33 467.667 1577 499 c 0
 1559.67 530.333 1533 546 1497 546 c 0
EndSplineSet
EndChar
StartChar: ampersand
Encoding: 8 38 10
OldEncoding: 38
Width: 1366
Flags: W
Fore
977 140 m 1
 953.667 119.333 928 100.333 900 83 c 0
 798 19 688.333 -16 571 -22 c 1
 504 -21 l 1
 375.333 -12.3333 281 37 221 127 c 1
 167.667 210.333 151.667 302.333 173 403 c 0
 215.667 602.333 354 752 588 852 c 1
 570.667 878.667 557 901.667 547 921 c 0
 509.667 995.667 500.333 1076.33 519 1163 c 0
 538.333 1256.33 589.667 1334.33 673 1397 c 0
 757 1459.67 850.333 1491 953 1491 c 0
 1030.33 1491 1094.67 1471 1146 1431 c 1
 1175 1403 l 1
 1229 1343 1246.33 1268 1227 1178 c 0
 1225.67 1170.67 1223.67 1163.33 1221 1156 c 1
 1185 1020 1076 908.333 894 821 c 1
 1036 522 l 1
 1078.67 579.333 1116.33 647.667 1149 727 c 1
 1358 649 l 1
 1306.67 539.667 1244 442.333 1170 357 c 1
 1218.67 269.667 1279.33 194.667 1352 132 c 1
 1158 -67 l 1
 1096.67 -19 1036.33 50 977 140 c 1
817 983 m 1
 854.333 1000.33 883.333 1017.67 904 1035 c 0
 942.667 1066.33 969.667 1111.67 985 1171 c 1
 986.333 1172.33 986.667 1174 986 1176 c 1
 990.667 1196 989.333 1214.67 982 1232 c 0
 968 1266.67 940.667 1284.67 900 1286 c 0
 874.667 1286 850.667 1278.33 828 1263 c 0
 794 1240.33 772 1211.67 762 1177 c 0
 760 1167 l 0
 748.667 1113.67 767.667 1052.33 817 983 c 1
672 671 m 1
 642 655 616.333 640 595 626 c 0
 490.333 559.333 430 487.667 414 411 c 0
 402 353.667 409.667 301 437 253 c 0
 450.333 229.667 470 212.333 496 201 c 0
 520 190.333 547.667 185 579 185 c 0
 616.333 185 655.333 192.333 696 207 c 0
 770 233 827.667 272.667 869 326 c 1
 672 671 l 1
EndSplineSet
EndChar
StartChar: quotesingle
Encoding: 9 39 11
OldEncoding: 39
Width: 391
Flags: W
Fore
308 947 m 1
 320 1221 l 1
 372 1466 l 1
 635 1466 l 1
 583 1221 l 1
 477 947 l 1
 308 947 l 1
EndSplineSet
EndChar
StartChar: parenleft
Encoding: 10 40 12
OldEncoding: 40
Width: 682
Flags: W
Fore
344 -431 m 1
 245.333 -259.667 187 -71 169 135 c 0
 157.667 268.333 165.667 400.333 193 531 c 0
 245 773 350 999 508 1209 c 0
 572.667 1294.33 654 1388.33 752 1491 c 1
 972 1491 l 1
 846 1331.67 757.333 1211.33 706 1130 c 0
 599.333 961.333 521.667 767.667 473 549 c 0
 471.667 542.333 470.333 536 469 530 c 0
 401 209.333 432.667 -111 564 -431 c 1
 344 -431 l 1
EndSplineSet
EndChar
StartChar: parenright
Encoding: 11 41 13
OldEncoding: 41
Width: 682
Flags: W
Fore
209 -431 m 1
 -12 -431 l 1
 254.667 -111 422 209.333 490 530 c 0
 535.333 742 543.333 931 514 1097 c 0
 502 1164.33 462.333 1295.67 395 1491 c 1
 617 1491 l 1
 708.333 1321 765.333 1164.67 788 1022 c 0
 812 870.667 805.333 707 768 531 c 0
 715.333 283 594 36.3333 404 -209 c 0
 342.667 -288.333 277.667 -362.333 209 -431 c 1
EndSplineSet
EndChar
StartChar: asterisk
Encoding: 12 42 14
OldEncoding: 42
Width: 797
Flags: W
Fore
314 1176 m 1
 395 1357 l 1
 550 1301 l 1
 562 1295.67 572.667 1290 582 1284 c 1
 586.667 1326.67 592.667 1365 600 1399 c 1
 622 1491 l 1
 799 1491 l 1
 774 1349 l 1
 768.667 1327.67 762 1305.33 754 1282 c 1
 797.333 1302 864 1325.67 954 1353 c 0
 967 1357 967 1357 977 1360 c 1
 971 1179 l 1
 887.667 1153 823 1137 777 1131 c 2
 752 1128 l 1
 777.333 1101.33 814.333 1047.67 863 967 c 2
 866 962 l 1
 692 858 l 1
 665.333 908.667 639 969.667 613 1041 c 1
 569 981.667 520.333 924.333 467 869 c 2
 460 862 l 1
 331 968 l 1
 424.333 1058.67 484.667 1114.67 512 1136 c 1
 350 1167 l 2
 338 1169.67 326 1172.67 314 1176 c 1
EndSplineSet
EndChar
StartChar: plus
Encoding: 13 43 15
OldEncoding: 43
Width: 1196
Flags: W
Fore
533 237 m 1
 612 611 l 1
 243 611 l 1
 291 837 l 1
 660 837 l 1
 739 1206 l 1
 969 1206 l 1
 890 837 l 1
 1259 837 l 1
 1211 611 l 1
 842 611 l 1
 763 237 l 1
 533 237 l 1
EndSplineSet
EndChar
StartChar: comma
Encoding: 14 44 16
OldEncoding: 44
Width: 569
Flags: W
Fore
117 -22 m 1
 171 231 l 1
 468 231 l 1
 414 -22 l 1
 391.333 -126.667 352 -201.333 296 -246 c 0
 273.333 -264.667 242.667 -282.667 204 -300 c 1
 67 -207 l 1
 127.667 -182.333 175.333 -142.667 210 -88 c 0
 223.333 -66.6667 233 -44.6667 239 -22 c 1
 117 -22 l 1
EndSplineSet
EndChar
StartChar: hyphen
Encoding: 15 45 17
OldEncoding: 45
Width: 682
Flags: W
Fore
147 388 m 1
 204 654 l 1
 757 654 l 1
 700 388 l 1
 147 388 l 1
EndSplineSet
EndChar
StartChar: period
Encoding: 16 46 18
OldEncoding: 46
Width: 569
Flags: W
Fore
154 0 m 1
 200 220 l 1
 476 220 l 1
 430 0 l 1
 154 0 l 1
EndSplineSet
EndChar
StartChar: slash
Encoding: 17 47 19
OldEncoding: 47
Width: 595
Flags: W
Fore
-112 -10 m 1
 789 1470 l 1
 1028 1470 l 1
 127 -10 l 1
 -112 -10 l 1
EndSplineSet
EndChar
StartChar: zero
Encoding: 18 48 20
OldEncoding: 48
Width: 1139
Flags: W
Fore
242 736 m 0
 274 886 314.333 1012.33 363 1115 c 0
 479 1359.67 650.667 1482 878 1482 c 0
 912.667 1482 944.667 1479 974 1473 c 0
 1216 1423.67 1290 1178 1196 736 c 0
 1162 575.333 1118 442.333 1064 337 c 0
 949.333 114.333 781.333 -1.33333 560 -10 c 0
 547.333 -10 535.333 -9.66667 524 -9 c 0
 234.667 10.3333 140.667 258.667 242 736 c 0
496 735 m 0
 428 416.333 467.333 257 614 257 c 0
 628 257.667 642 259.333 656 262 c 0
 782.667 291.333 876.333 449 937 735 c 0
 943 765 948.333 793.667 953 821 c 0
 995 1082.33 949.333 1213 816 1213 c 0
 770 1213 728.667 1199 692 1171 c 0
 609.333 1107.67 544 962.333 496 735 c 0
EndSplineSet
EndChar
StartChar: one
Encoding: 19 49 21
OldEncoding: 49
Width: 1139
Flags: W
Fore
763 0 m 1
 525 0 l 1
 747 1045 l 1
 659 963.667 567.667 904.333 473 867 c 0
 448.333 857 424.667 849.333 402 844 c 1
 457 1104 l 1
 557 1146.67 635 1196.33 691 1253 c 0
 745 1308.33 793.667 1381.33 837 1472 c 1
 1075 1472 l 1
 763 0 l 1
EndSplineSet
KernsSLIF: 19 -152 0 0
EndChar
StartChar: two
Encoding: 20 50 22
OldEncoding: 50
Width: 1139
Flags: W
Fore
1078 223 m 1
 1031 0 l 1
 62 0 l 1
 94.6667 112 159 222.667 255 332 c 0
 292.333 375.333 332.333 414.667 375 450 c 0
 413.667 482 516.667 559.333 684 682 c 0
 737.333 720.667 771.333 746.333 786 759 c 0
 895.333 850.333 966.333 932 999 1004 c 0
 1009 1026.67 1016.67 1050 1022 1074 c 0
 1022 1075.33 1022.33 1077 1023 1079 c 0
 1035.67 1145.67 1013 1198.33 955 1237 c 0
 919.667 1260.33 880.667 1272.33 838 1273 c 1
 795 1269 l 1
 722.333 1257 663.333 1224.67 618 1172 c 1
 593 1139 l 1
 573.667 1109.67 559.667 1076.33 551 1039 c 1
 316 1039 l 1
 345.333 1175.67 414.667 1285 524 1367 c 0
 627.333 1443.67 748.333 1482 887 1482 c 0
 1028.33 1482 1132.67 1443 1200 1365 c 0
 1263.33 1291.67 1282.33 1195 1257 1075 c 0
 1235 971.667 1168.67 860.667 1058 742 c 0
 1041 724 1041 724 1022 705 c 0
 975.333 657.667 894.333 592.333 779 509 c 0
 659 423 576.667 361 532 323 c 0
 491.333 288.333 457 255 429 223 c 1
 1078 223 l 1
EndSplineSet
EndChar
StartChar: three
Encoding: 21 51 23
OldEncoding: 51
Width: 1139
Flags: W
Fore
176 427 m 1
 406 427 l 1
 400.667 356.333 420.333 299.333 465 256 c 0
 500.333 222.667 544 206 596 206 c 0
 686 206 761 236.667 821 298 c 0
 861 339.333 887 388.333 899 445 c 0
 913.667 513 895.667 569 845 613 c 0
 801.667 649.667 746 668 678 668 c 0
 645.333 668 612.667 663.333 580 654 c 1
 628 882 l 1
 703 883 l 1
 821 891 901 935.333 943 1016 c 0
 957 1041.33 967.333 1071 974 1105 c 0
 984 1149.67 969.667 1189.33 931 1224 c 0
 897.667 1253.33 860 1268 818 1268 c 0
 742.667 1268 679.333 1241.67 628 1189 c 1
 603 1158 l 1
 585 1132.67 570.667 1103.33 560 1070 c 1
 331 1070 l 1
 353.667 1177.33 410.667 1270 502 1348 c 0
 594.667 1426.67 699.667 1470.67 817 1480 c 0
 831.667 1481.33 846 1482 860 1482 c 0
 979.333 1482 1072 1448.33 1138 1381 c 0
 1208.67 1309.67 1232 1216.33 1208 1101 c 0
 1182.67 984.333 1140.33 900.667 1081 850 c 1
 1049 827 l 1
 1028.33 813.667 1005.33 802.667 980 794 c 1
 1090 774.667 1148.67 712 1156 606 c 1
 1156 548 l 1
 1153.33 518 1148.33 485 1141 449 c 0
 1113.67 321 1047.33 214.333 942 129 c 0
 839.333 45.6667 722 -0.333333 590 -9 c 0
 576 -9.66667 562.333 -10 549 -10 c 0
 429 -10 332.667 26 260 98 c 1
 187.333 171.333 156.667 265 168 379 c 0
 170 395 172.667 411 176 427 c 1
EndSplineSet
EndChar
StartChar: four
Encoding: 22 52 24
OldEncoding: 52
Width: 1139
Flags: W
Fore
662 0 m 1
 731 327 l 1
 125 327 l 1
 173 552 l 1
 974 1472 l 1
 1204 1472 l 1
 1009 552 l 1
 1187 552 l 1
 1139 327 l 1
 961 327 l 1
 892 0 l 1
 662 0 l 1
779 552 m 1
 890 1077 l 1
 438 552 l 1
 779 552 l 1
EndSplineSet
EndChar
StartChar: five
Encoding: 23 53 25
OldEncoding: 53
Width: 1139
Flags: W
Fore
173 415 m 1
 418 415 l 1
 402.667 315 433 250 509 220 c 0
 535.667 209.333 565.667 204 599 204 c 0
 681.667 204 753 234 813 294 c 0
 864.333 344.667 900.667 412 922 496 c 1
 931 550 l 1
 942.333 644.667 914.667 710.667 848 748 c 0
 814 767.333 770.667 777 718 777 c 1
 667 774 l 1
 607.667 765.333 552 736 500 686 c 1
 267 708 l 1
 571 1472 l 1
 1300 1472 l 1
 1252 1244 l 1
 737 1244 l 1
 603 940 l 1
 660.333 973.333 707 993.667 743 1001 c 0
 762.333 1005 783 1007 805 1007 c 0
 946.333 1005 1049.67 957 1115 863 c 0
 1179 772.333 1195.67 655.333 1165 512 c 0
 1133.67 364.667 1065.67 243 961 147 c 0
 851 47 721.333 -5.33333 572 -10 c 0
 563 -10 563 -10 553 -10 c 0
 389 -10 276.333 44 215 152 c 0
 175 222 161 309.667 173 415 c 1
EndSplineSet
EndChar
StartChar: six
Encoding: 24 54 26
OldEncoding: 54
Width: 1139
Flags: W
Fore
1253 1103 m 1
 1041 1104 l 1
 1035 1174.67 1002.67 1221.33 944 1244 c 0
 921.333 1252.67 895.667 1257 867 1257 c 0
 694.333 1257 573.333 1133 504 885 c 0
 502 876.333 499.667 867.333 497 858 c 1
 578.333 937.333 678 977 796 977 c 0
 798 977 798 977 801 977 c 0
 923.667 975.667 1018 932 1084 846 c 1
 1111 806 l 1
 1151 734.667 1167 652.333 1159 559 c 0
 1157 532.333 1153 505.667 1147 479 c 0
 1117.67 341.667 1053.67 227.667 955 137 c 0
 853 43 734.333 -6 599 -10 c 0
 583 -10 l 0
 353.667 -10 225.333 103 198 329 c 0
 185.333 431.667 194.667 555.667 226 701 c 0
 312 1107.67 473.333 1356 710 1446 c 0
 774 1470 843.333 1482 918 1482 c 0
 1032 1482 1121 1449 1185 1383 c 0
 1198.33 1369.67 1210 1355 1220 1339 c 0
 1261.33 1273 1272.33 1194.33 1253 1103 c 1
454 489 m 0
 432.667 387.667 444 310.333 488 257 c 0
 520 219 566.333 200 627 200 c 0
 714.333 200 786.667 236.667 844 310 c 0
 880.667 357.333 906.333 414.333 921 481 c 0
 942.333 583.667 928.667 660.667 880 712 c 1
 855 733 l 1
 825 753.667 787 764 741 764 c 0
 653.667 764 582 727 526 653 c 0
 492 607.667 468 553 454 489 c 0
EndSplineSet
EndChar
StartChar: seven
Encoding: 25 55 27
OldEncoding: 55
Width: 1139
Flags: W
Fore
359 1233 m 1
 409 1472 l 1
 1358 1472 l 1
 1308 1233 l 1
 1234 1169.67 1146.33 1083 1045 973 c 0
 939 857.667 864.667 764 822 692 c 0
 685.333 460 593.333 272.333 546 129 c 0
 531.333 84.3333 519.667 41.3333 511 0 c 1
 253 0 l 1
 305.667 243.333 424.667 502 610 776 c 0
 683.333 884 807 1024.67 981 1198 c 0
 1000 1217 1000 1217 1017 1233 c 1
 359 1233 l 1
EndSplineSet
EndChar
StartChar: eight
Encoding: 26 56 28
OldEncoding: 56
Width: 1139
Flags: W
Fore
533 805 m 1
 397.667 859 345.333 958.667 376 1104 c 0
 401.333 1223.33 464.333 1318 565 1388 c 0
 655 1450.67 759.333 1482 878 1482 c 0
 1004.67 1482 1100.33 1446 1165 1374 c 1
 1189 1342 l 1
 1231 1275.33 1242 1194.33 1222 1099 c 0
 1198.67 987.667 1131 901.667 1019 841 c 0
 996.333 828.333 971.333 816.333 944 805 c 1
 1049.33 768.333 1114 709.667 1138 629 c 0
 1153.33 577 1154.33 512 1141 434 c 1
 1127 380 l 1
 1095 278.667 1028.33 190.667 927 116 c 0
 827.667 42.6667 721 1.33333 607 -8 c 0
 591.667 -9.33333 577 -10 563 -10 c 0
 419.667 -10 312.667 31 242 113 c 1
 170 194.333 147.667 301.333 175 434 c 2
 176 439 l 2
 206.667 583.667 282.667 689.333 404 756 c 0
 443.333 777.333 486.333 793.667 533 805 c 1
604 1107 m 0
 588.667 1029.67 607 975 659 943 c 0
 686.333 926.333 720.667 918 762 918 c 0
 832.667 918 891 942 937 990 c 0
 966.333 1020.67 985.333 1057 994 1099 c 0
 1008.67 1166.33 993.333 1217 948 1251 c 0
 919.333 1273 882.333 1284 837 1284 c 0
 771.667 1284 715.333 1262 668 1218 c 0
 634 1186.67 612.667 1149.67 604 1107 c 0
414 437 m 0
 397.333 357.667 413.333 295.333 462 250 c 0
 498.667 216 548 199 610 199 c 0
 698 199 770.667 228.333 828 287 c 0
 866 326.333 891.333 375 904 433 c 0
 922.667 523 899.333 586.333 834 623 c 0
 799.333 641.667 755 651 701 651 c 0
 602.333 651 526 619.667 472 557 c 1
 449 525 l 1
 433 499 421.333 469.667 414 437 c 0
EndSplineSet
EndChar
StartChar: nine
Encoding: 27 57 29
OldEncoding: 57
Width: 1139
Flags: W
Fore
217 369 m 1
 432 369 l 1
 424 294.333 457.333 247.333 532 228 c 0
 555.333 222 582 219 612 219 c 0
 716.667 219 795.667 256.667 849 332 c 0
 885.667 383.333 918.667 465.667 948 579 c 1
 901.333 541 852 516.667 800 506 c 0
 764.667 498.667 721 495 669 495 c 0
 547.667 495 453.667 536.333 387 619 c 0
 320.333 701 295.667 806 313 934 c 0
 315 949.333 317.667 965 321 981 c 0
 350.333 1119.67 414 1235.67 512 1329 c 0
 612.667 1424.33 729 1475 861 1481 c 0
 869.667 1481.67 878.333 1482 887 1482 c 0
 1109.67 1482 1237 1374.67 1269 1160 c 0
 1285 1054 1276.67 924.333 1244 771 c 0
 1158 364.333 996.667 116 760 26 c 0
 696 2 626.667 -10 552 -10 c 0
 438 -10 348.667 23 284 89 c 0
 215.333 160.333 193 253.667 217 369 c 1
1008 982 m 0
 1029.33 1080.67 1018 1155 974 1205 c 1
 951 1226 l 1
 923 1246.67 888 1257 846 1257 c 0
 763.333 1257 694.333 1222 639 1152 c 0
 604.333 1107.33 580.333 1053.67 567 991 c 0
 545.667 891.667 559.333 817.667 608 769 c 0
 638.667 737.667 681.667 722 737 722 c 0
 820.333 722 888 757.333 940 828 c 1
 972.667 870.667 995.333 922 1008 982 c 0
EndSplineSet
EndChar
StartChar: colon
Encoding: 28 58 30
OldEncoding: 58
Width: 569
Flags: W
Fore
336 832 m 1
 385 1062 l 1
 640 1062 l 1
 591 832 l 1
 336 832 l 1
160 0 m 1
 208 230 l 1
 463 230 l 1
 415 0 l 1
 160 0 l 1
EndSplineSet
EndChar
StartChar: semicolon
Encoding: 29 59 31
OldEncoding: 59
Width: 569
Flags: W
Fore
333 832 m 1
 382 1062 l 1
 637 1062 l 1
 588 832 l 1
 333 832 l 1
157 0 m 1
 200 205 l 1
 455 205 l 1
 412 0 l 1
 376.667 -163.333 308 -262.333 206 -297 c 1
 99 -213 l 1
 161.667 -187.667 207 -140.333 235 -71 c 0
 243.667 -50.3333 251.667 -26.6667 259 0 c 1
 157 0 l 1
EndSplineSet
EndChar
StartChar: less
Encoding: 30 60 32
OldEncoding: 60
Width: 1196
Flags: W
Fore
248 641 m 1
 283 809 l 1
 1342 1219 l 1
 1293 990 l 1
 576 724 l 1
 1179 455 l 1
 1131 226 l 1
 248 641 l 1
EndSplineSet
EndChar
StartChar: equal
Encoding: 31 61 33
OldEncoding: 61
Width: 1196
Flags: W
Fore
1254 812 m 1
 286 812 l 1
 332 1030 l 1
 1300 1030 l 1
 1254 812 l 1
1170 417 m 1
 202 417 l 1
 248 635 l 1
 1216 635 l 1
 1170 417 l 1
EndSplineSet
EndChar
StartChar: greater
Encoding: 32 62 34
OldEncoding: 62
Width: 1196
Flags: W
Fore
1219 641 m 1
 160 226 l 1
 208 455 l 1
 903 724 l 1
 322 990 l 1
 371 1219 l 1
 1254 809 l 1
 1219 641 l 1
EndSplineSet
EndChar
StartChar: question
Encoding: 33 63 35
OldEncoding: 63
Width: 1139
Flags: W
Fore
508 361 m 1
 536 477.667 574.667 569 624 635 c 0
 646 663.667 671.667 691.667 701 719 c 0
 708.333 725.667 744.333 753.667 809 803 c 0
 909.667 881 977.333 949.667 1012 1009 c 0
 1027.33 1035.67 1038 1062 1044 1088 c 0
 1061.33 1170 1035.33 1228.67 966 1264 c 0
 930.667 1282 889.333 1291 842 1291 c 0
 776 1291 713.667 1264.33 655 1211 c 1
 623 1177 l 1
 592 1138 l 1
 573.333 1110 558 1079.33 546 1046 c 1
 312 1046 l 1
 348.667 1182.67 419.333 1293 524 1377 c 0
 628.667 1461.67 748.667 1504 884 1504 c 0
 1014.67 1504 1116.33 1468.67 1189 1398 c 0
 1267.67 1320.67 1293.33 1216 1266 1084 c 0
 1262 1066 1256.67 1048 1250 1030 c 0
 1221.33 952.667 1158.33 870 1061 782 c 1
 938 676 l 1
 848.667 597.333 789.333 505.667 760 401 c 0
 756 387.667 752.667 374.333 750 361 c 1
 508 361 l 1
421 0 m 1
 470 235 l 1
 744 235 l 1
 695 0 l 1
 421 0 l 1
EndSplineSet
EndChar
StartChar: at
Encoding: 34 64 36
OldEncoding: 64
Width: 2079
Flags: W
Fore
1186 121 m 1
 1097.33 38.3333 986.333 -3 853 -3 c 0
 745 -3 668.333 44 623 138 c 1
 579.667 224.667 571.667 332.333 599 461 c 0
 628.333 599 693 726 793 842 c 0
 885 948 986 1020 1096 1058 c 0
 1145.33 1075.33 1193.67 1084 1241 1084 c 0
 1337 1084 1406 1056.67 1448 1002 c 0
 1460.67 986 1469.67 968.333 1475 949 c 0
 1475.67 945 1476.33 941.333 1477 938 c 1
 1541 1079 l 1
 1755 1079 l 1
 1460 379 l 1
 1412 285 l 1
 1409 268 l 1
 1409.67 258 1414 248 1422 238 c 0
 1433.33 225.333 1448.67 219 1468 219 c 0
 1550.67 219 1634 268.333 1718 367 c 0
 1788 449.667 1840 543 1874 647 c 1
 1891 711 l 1
 1891 713 1891.33 714.667 1892 716 c 0
 1924 884.667 1888 1020 1784 1122 c 0
 1688 1216.67 1550.33 1269 1371 1279 c 0
 1368 1279 1368 1279 1364 1279 c 2
 1286 1279 l 1
 1097.33 1268.33 928.333 1194 779 1056 c 0
 775.667 1053.33 772.667 1050.67 770 1048 c 0
 590 877.333 478.333 689.667 435 485 c 0
 393.667 291.667 413.667 132.333 495 7 c 0
 513 -21 533.667 -46 557 -68 c 0
 645 -151.333 760.333 -202.333 903 -221 c 0
 952.333 -227.667 1008 -231 1070 -231 c 0
 1218 -231 1339 -213 1433 -177 c 0
 1514.33 -145.667 1612.33 -86.6667 1727 0 c 0
 1734.33 6 1742.67 12.3333 1752 19 c 1
 2009 19 l 1
 1916.33 -113 1787.33 -219.333 1622 -300 c 0
 1442 -387.333 1245 -431 1031 -431 c 0
 739 -431 518.667 -361.333 370 -222 c 0
 236.667 -96.6667 174.667 68.3333 184 273 c 0
 186.667 333.667 195.333 399 210 469 c 0
 260 705 364 911 522 1087 c 0
 695.333 1280.33 901.667 1405.33 1141 1462 c 0
 1231 1482.67 1323.67 1493 1419 1493 c 0
 1625 1493 1792.33 1440.67 1921 1336 c 0
 1985.67 1283.33 2035.33 1220.33 2070 1147 c 0
 2129.33 1021.67 2141.67 877 2107 713 c 0
 2077.67 573.667 2011.33 437.667 1908 305 c 0
 1810 178.333 1701 85.6667 1581 27 c 0
 1500.33 -13 1422 -33 1346 -33 c 0
 1300 -33 1264.33 -26 1239 -12 c 0
 1213.67 2 1197.33 22 1190 48 c 0
 1184 66.6667 1182.67 91 1186 121 c 1
956 238 m 0
 1037.33 238 1114 279 1186 361 c 0
 1242.67 425.667 1283.67 499.667 1309 583 c 1
 1324 643 l 1
 1342.67 738.333 1324.67 801 1270 831 c 0
 1249.33 843 1223.67 849 1193 849 c 0
 1106.33 849 1025.67 800.667 951 704 c 0
 929 674.667 908.667 642.333 890 607 c 0
 867.333 564.333 851 520 841 474 c 0
 822.333 384.667 830.333 318.667 865 276 c 0
 886.333 250.667 916.667 238 956 238 c 0
EndSplineSet
EndChar
StartChar: A
Encoding: 35 65 37
OldEncoding: 65
Width: 1366
Flags: W
Fore
867 1450 m 1
 1076 1450 l 1
 1368 0 l 1
 1079 0 l 1
 970 433 l 1
 554 433 l 1
 273 0 l 1
 -2 0 l 1
 867 1450 l 1
976 673 m 1
 894 1109 l 1
 648 673 l 1
 976 673 l 1
EndSplineSet
KernsSLIF: 91 -37 0 0 89 -37 0 0 88 -37 0 0 59 -152 0 0 57 -76 0 0 56 -152 0 0 54 -152 0 0
EndChar
StartChar: B
Encoding: 36 66 38
OldEncoding: 66
Width: 1366
Flags: W
Fore
164 0 m 1
 298 633 l 1
 472 1450 l 1
 1008 1450 l 2
 1120 1450 1206.67 1435.33 1268 1406 c 0
 1339.33 1371.33 1386.67 1317 1410 1243 c 0
 1426 1192.33 1427.67 1137.67 1415 1079 c 0
 1384.33 934.333 1311.67 834 1197 778 c 0
 1192.33 776 1188.33 774 1185 772 c 1
 1332.33 726 1386 609 1346 421 c 0
 1326 325.667 1279.33 240 1206 164 c 0
 1145.33 100.667 1067.33 55.6667 972 29 c 1
 964.667 27.6667 957.667 26 951 24 c 0
 883 8 802.333 0 709 0 c 2
 164 0 l 1
562 842 m 1
 839 842 l 2
 929.667 842 999 851.667 1047 871 c 0
 1056.33 875 1063.67 879.333 1069 884 c 0
 1107 913.333 1134 942.667 1150 972 c 0
 1162.67 995.333 1172.33 1023.33 1179 1056 c 0
 1193.67 1128 1179.67 1177.33 1137 1204 c 0
 1108.33 1222 1028.67 1231 898 1231 c 2
 645 1231 l 1
 562 842 l 1
430 220 m 1
 755 220 l 2
 868.333 220 947.667 232.333 993 257 c 0
 1009 267 l 0
 1044.33 291.667 1069.67 321 1085 355 c 0
 1093 373.667 1099.67 395.667 1105 421 c 0
 1119.67 489.667 1114 538.333 1088 567 c 2
 1076 579 l 1
 1041.33 607.667 985.667 623.667 909 627 c 1
 816 629 l 1
 517 629 l 1
 430 220 l 1
EndSplineSet
EndChar
StartChar: C
Encoding: 37 67 39
OldEncoding: 67
Width: 1479
Flags: W
Fore
1270 480 m 1
 1500 480 l 1
 1400.67 269.333 1263 125.667 1087 49 c 0
 995 9.66667 895.333 -10 788 -10 c 0
 558 -10 398 67 308 221 c 0
 232 352.333 215 522.333 257 731 c 0
 257.667 735.667 258.667 740.333 260 745 c 0
 302 944.333 391 1109.67 527 1241 c 0
 658.333 1368.33 813 1444.33 991 1469 c 0
 1029 1474.33 1067.67 1477 1107 1477 c 0
 1307 1477 1447.67 1409.33 1529 1274 c 1
 1554 1226 l 1
 1577.33 1174 1591.33 1115.33 1596 1050 c 1
 1366 1050 l 1
 1356.67 1134 1311 1193.33 1229 1228 c 0
 1181.67 1247.33 1124.33 1257 1057 1257 c 0
 910.333 1257 785.333 1205 682 1101 c 0
 590 1009 528.667 890.667 498 746 c 0
 466.667 598 480 473.667 538 373 c 0
 592 279.667 674 226.333 784 213 c 0
 799.333 211 815.333 210 832 210 c 0
 931.333 210 1025 238.667 1113 296 c 0
 1193 348 1245.33 409.333 1270 480 c 1
EndSplineSet
EndChar
StartChar: D
Encoding: 38 68 40
OldEncoding: 68
Width: 1479
Flags: W
Fore
168 0 m 1
 476 1450 l 1
 981 1450 l 2
 1307 1450 1496 1340 1548 1120 c 0
 1572.67 1016.67 1568.33 887.667 1535 733 c 0
 1466.33 410.333 1317.33 193.333 1088 82 c 0
 975.333 27.3333 845 -1.73472e-18 697 0 c 2
 168 0 l 1
435 213 m 1
 720 213 l 2
 866 213 991.667 261.667 1097 359 c 0
 1197.67 452.333 1265 578 1299 736 c 1
 1312 816 l 1
 1333.33 999.333 1282 1123.67 1158 1189 c 0
 1097.33 1221 1022 1237 932 1237 c 2
 652 1237 l 1
 435 213 l 1
EndSplineSet
EndChar
StartChar: E
Encoding: 39 69 41
OldEncoding: 69
Width: 1366
Flags: W
Fore
162 0 m 1
 470 1450 l 1
 1530 1450 l 1
 1480 1218 l 1
 659 1218 l 1
 581 851 l 1
 1201 851 l 1
 1152 621 l 1
 532 621 l 1
 449 229 l 1
 1270 229 l 1
 1222 0 l 1
 162 0 l 1
EndSplineSet
EndChar
StartChar: F
Encoding: 40 70 42
OldEncoding: 70
Width: 1251
Flags: W
Fore
167 0 m 1
 475 1450 l 1
 1466 1450 l 1
 1416 1218 l 1
 664 1218 l 1
 586 851 l 1
 1188 851 l 1
 1139 621 l 1
 537 621 l 1
 406 0 l 1
 167 0 l 1
EndSplineSet
KernsSLIF: 35 -113 0 0 16 -227 0 0 14 -227 0 0
EndChar
StartChar: G
Encoding: 41 71 43
OldEncoding: 71
Width: 1479
Flags: W
Fore
1549 684 m 1
 1547 670.667 1544.33 657.333 1541 644 c 1
 1520 546 l 1
 1420 175.333 1176 -10 788 -10 c 0
 776 -10 764.667 -9.66667 754 -9 c 0
 537.333 -1 387 79.6667 303 233 c 0
 230.333 367 216 537.667 260 745 c 0
 268.667 785 279.333 824 292 862 c 0
 353.333 1044.67 454.667 1191.33 596 1302 c 0
 745.333 1418.67 915.667 1477 1107 1477 c 0
 1223 1477 1320 1453.67 1398 1407 c 0
 1517.33 1335 1583.33 1216 1596 1050 c 1
 1338 1050 l 1
 1334 1074 1325.67 1096.67 1313 1118 c 1
 1292 1146 l 1
 1238.67 1206 1158.67 1236 1052 1236 c 0
 1038 1236 1024 1235.33 1010 1234 c 0
 895.333 1224 791 1177 697 1093 c 0
 593 1001 526.333 885.333 497 746 c 0
 494.333 732.667 492 719.667 490 707 c 0
 467.333 567.667 485 452 543 360 c 0
 605 260 701.333 210 832 210 c 0
 921.333 210 1002.67 226.333 1076 259 c 0
 1163.33 299 1221.33 354.333 1250 425 c 1
 1262 464 l 1
 1003 464 l 1
 1050 684 l 1
 1549 684 l 1
EndSplineSet
EndChar
StartChar: H
Encoding: 42 72 44
OldEncoding: 72
Width: 1479
Flags: W
Fore
164 0 m 1
 472 1450 l 1
 712 1450 l 1
 587 863 l 1
 1257 863 l 1
 1382 1450 l 1
 1622 1450 l 1
 1314 0 l 1
 1074 0 l 1
 1205 619 l 1
 535 619 l 1
 404 0 l 1
 164 0 l 1
EndSplineSet
EndChar
StartChar: I
Encoding: 43 73 45
OldEncoding: 73
Width: 650
Flags: W
Fore
669 210 m 1
 625 0 l 1
 25 0 l 1
 69 210 l 1
 249 210 l 1
 470 1250 l 1
 290 1250 l 1
 333 1450 l 1
 933 1450 l 1
 890 1250 l 1
 710 1250 l 1
 489 210 l 1
 669 210 l 1
EndSplineSet
EndChar
StartChar: J
Encoding: 44 74 46
OldEncoding: 74
Width: 1024
Flags: W
Fore
1173 1450 m 1
 961 456 l 1
 934.333 329.333 895.333 233.333 844 168 c 0
 833.333 154.667 822 141.667 810 129 c 0
 718.667 36.3333 602 -10 460 -10 c 0
 332 -10 242.667 24 192 92 c 0
 149.333 148.667 134 237.333 146 358 c 0
 148.667 390 153.333 422.333 160 455 c 1
 397 455 l 1
 379 351.667 392.333 280.333 437 241 c 0
 457 223.667 482.333 215 513 215 c 0
 573.667 215 627.333 245.333 674 306 c 0
 707.333 350.667 731 405.667 745 471 c 2
 907 1235 l 1
 670 1235 l 1
 716 1450 l 1
 1173 1450 l 1
EndSplineSet
EndChar
StartChar: K
Encoding: 45 75 47
OldEncoding: 75
Width: 1366
Flags: W
Fore
150 0 m 1
 458 1450 l 1
 684 1450 l 1
 551 825 l 1
 1330 1450 l 1
 1624 1450 l 1
 830 806 l 1
 1346 0 l 1
 1052 -1 l 1
 608 610 l 1
 482 499 l 1
 376 0 l 1
 150 0 l 1
EndSplineSet
EndChar
StartChar: L
Encoding: 46 76 48
OldEncoding: 76
Width: 1139
Flags: W
Fore
150 0 m 1
 458 1450 l 1
 688 1450 l 1
 426 219 l 1
 1106 219 l 1
 1060 0 l 1
 150 0 l 1
EndSplineSet
KernsSLIF: 91 -76 0 0 59 -152 0 0 57 -152 0 0 56 -152 0 0 54 -152 0 0
EndChar
StartChar: M
Encoding: 47 77 49
OldEncoding: 77
Width: 1706
Flags: W
Fore
152 0 m 1
 460 1450 l 1
 668 1450 l 1
 893 202 l 1
 1648 1450 l 1
 1858 1450 l 1
 1550 0 l 1
 1330 0 l 1
 1491 762 l 1
 1026 0 l 1
 676 0 l 1
 533 762 l 1
 372 0 l 1
 152 0 l 1
EndSplineSet
EndChar
StartChar: N
Encoding: 48 78 50
OldEncoding: 78
Width: 1479
Flags: W
Fore
156 0 m 1
 464 1450 l 1
 703 1450 l 1
 1171 471 l 1
 1379 1450 l 1
 1619 1450 l 1
 1311 0 l 1
 1071 0 l 1
 602 975 l 1
 395 0 l 1
 156 0 l 1
EndSplineSet
EndChar
StartChar: O
Encoding: 49 79 51
OldEncoding: 79
Width: 1593
Flags: W
Fore
255 714 m 0
 306.333 955.333 410.333 1144 567 1280 c 0
 717 1410 899.667 1476 1115 1478 c 1
 1319.67 1478 1470.67 1415.33 1568 1290 c 0
 1664 1166 1695.33 998.667 1662 788 c 0
 1658.67 769.333 1655 750.333 1651 731 c 0
 1606.33 521.667 1515.33 350.667 1378 218 c 1
 1235.33 82 1064 6.66667 864 -8 c 0
 841.333 -9.33333 819 -10 797 -10 c 0
 607 -10 461.667 46.3333 361 159 c 0
 261.667 269 220.667 416.333 238 601 c 0
 241.333 637.667 247 675.333 255 714 c 0
501 712 m 0
 464.333 541.333 485.333 412.333 564 325 c 0
 626 255 720 220 846 220 c 0
 1020.67 220 1160 284.333 1264 413 c 0
 1332 497 1379.67 603 1407 731 c 0
 1445.67 914.333 1425 1051.33 1345 1142 c 0
 1283 1211.33 1190.33 1246 1067 1246 c 0
 841.667 1246 678.667 1144.67 578 942 c 0
 544.667 875.333 519 798.667 501 712 c 0
EndSplineSet
EndChar
StartChar: P
Encoding: 50 80 52
OldEncoding: 80
Width: 1366
Flags: W
Fore
158 0 m 1
 466 1450 l 1
 1019 1450 l 2
 1264.33 1450 1417 1395 1477 1285 c 0
 1489 1263 1497.33 1238.67 1502 1212 c 0
 1512.67 1160 1510.33 1098 1495 1026 c 0
 1446.33 798.667 1307.33 658 1078 604 c 0
 1010 588 934.333 580 851 580 c 2
 525 580 l 1
 402 0 l 1
 158 0 l 1
570 792 m 1
 845 792 l 2
 1011 792 1124 828 1184 900 c 0
 1210.67 931.333 1229 971.333 1239 1020 c 0
 1258.33 1109.33 1233.33 1170 1164 1202 c 0
 1114.67 1224.67 1038.33 1236 935 1236 c 2
 664 1236 l 1
 570 792 l 1
EndSplineSet
KernsSLIF: 35 -152 0 0 16 -264 0 0 14 -264 0 0
EndChar
StartChar: Q
Encoding: 51 81 53
OldEncoding: 81
Width: 1659
Flags: W
Fore
1250 392 m 1
 1322 461.333 1375.33 563.667 1410 699 c 0
 1414 717 1414 717 1418 736 c 0
 1456.67 918.667 1435 1055.33 1353 1146 c 0
 1289.67 1216 1194.33 1251 1067 1251 c 0
 836.333 1251 670 1149.67 568 947 c 0
 534 881 507.667 804.333 489 717 c 0
 451.667 541 477 409.333 565 322 c 0
 581 306 599 292 619 280 c 1
 655 354.667 714.333 412.667 797 454 c 0
 838.333 474.667 881 488.667 925 496 c 0
 950.333 500.667 975.333 503 1000 503 c 0
 1090 503 1163.33 477 1220 425 c 1
 1232 415 1242 404 1250 392 c 1
1360 204 m 1
 1372.67 185.333 1395.67 175.667 1429 175 c 0
 1443 175 1457.67 177 1473 181 c 0
 1513.67 190.333 1549.67 206 1581 228 c 1
 1678 90 l 1
 1589.33 20.6667 1495.33 -14 1396 -14 c 0
 1317.33 -14 1253.67 7.33333 1205 50 c 1
 1192.33 62 1182 74.6667 1174 88 c 1
 1084.67 36 994 5 902 -5 c 0
 870.667 -8.33333 835.667 -10 797 -10 c 0
 607 -10 461.667 46.3333 361 159 c 0
 261.667 269 220.667 416.333 238 601 c 0
 241.333 637.667 247 675.333 255 714 c 0
 306.333 955.333 410.333 1144 567 1280 c 0
 717 1410 899.667 1476 1115 1478 c 1
 1317 1478 1466.67 1416 1564 1292 c 0
 1660 1171.33 1693.33 1009.33 1664 806 c 0
 1660.67 781.333 1656.33 756.333 1651 731 c 0
 1596.33 474.333 1499.33 298.667 1360 204 c 1
1098 226 m 1
 1068 273.333 1027.67 297.333 977 298 c 0
 965 298 952 296.667 938 294 c 0
 865.333 280.667 810.667 240.667 774 174 c 1
 796.667 167.333 823.667 164 855 164 c 0
 927.667 164 996 178 1060 206 c 0
 1074.67 212.667 1087.33 219.333 1098 226 c 1
EndSplineSet
EndChar
StartChar: R
Encoding: 52 82 54
OldEncoding: 82
Width: 1400
Flags: W
Fore
786 580 m 1
 507 580 l 1
 384 0 l 1
 158 0 l 1
 466 1450 l 1
 1019 1450 l 2
 1278.33 1450 1434 1387.33 1486 1262 c 0
 1512 1200.67 1515 1122 1495 1026 c 0
 1463.67 879.333 1390.67 766.333 1276 687 c 0
 1210 641.667 1134.67 611.333 1050 596 c 1
 1387 0 l 1
 1072 0 l 1
 786 580 l 1
551 786 m 1
 832 786 l 2
 1006 786 1122.67 828 1182 912 c 0
 1203.33 942 1218.33 978 1227 1020 c 0
 1248.33 1118 1215.67 1182.33 1129 1213 c 0
 1081 1230.33 1012.67 1239 924 1239 c 2
 647 1239 l 1
 551 786 l 1
EndSplineSet
KernsSLIF: 59 -37 0 0 57 -37 0 0 56 -37 0 0 54 -37 0 0
EndChar
StartChar: S
Encoding: 53 83 55
OldEncoding: 83
Width: 1366
Flags: W
Fore
198 502 m 1
 431 502 l 1
 421 384.667 461 302.333 551 255 c 0
 603 227.667 670.333 214 753 214 c 0
 868.333 214 960.667 241 1030 295 c 1
 1073.33 327.667 1099.67 367 1109 413 c 0
 1120.33 467.667 1107.67 509.667 1071 539 c 0
 1057.67 550.333 1039.67 561.333 1017 572 c 0
 971.667 593.333 879 625 739 667 c 0
 604.333 707.667 515.667 742.333 473 771 c 0
 393.667 825 358.333 905.667 367 1013 c 0
 367.667 1030.33 370 1048.33 374 1067 c 0
 401.333 1195 475 1296 595 1370 c 0
 703.667 1437.33 830.667 1471 976 1471 c 0
 1224 1471 1371.33 1379 1418 1195 c 0
 1430.67 1143 1435 1084.33 1431 1019 c 1
 1197 1019 l 1
 1199.67 1163 1124 1239.67 970 1249 c 0
 959.333 1249.67 948.333 1250 937 1250 c 0
 826.333 1250 740.333 1226.33 679 1179 c 1
 654 1157 l 1
 633.333 1134.33 620 1108.67 614 1080 c 0
 604.667 1033.33 615 997 645 971 c 0
 655.667 962.333 670.333 953 689 943 c 0
 726.333 923 845.333 880.667 1046 816 c 0
 1113.33 794.667 1155.67 780.333 1173 773 c 0
 1275 730.333 1335.33 669.333 1354 590 c 0
 1364 544.667 1362.67 491 1350 429 c 0
 1322.67 302.333 1250.33 198 1133 116 c 0
 1023.67 40 897 -1.66667 753 -9 c 0
 739.667 -9.66667 726.667 -10 714 -10 c 0
 470.667 -10 310.667 56 234 188 c 0
 186.667 270 174.667 374.667 198 502 c 1
EndSplineSet
EndChar
StartChar: T
Encoding: 54 84 56
OldEncoding: 84
Width: 1251
Flags: W
Fore
508 0 m 1
 769 1231 l 1
 309 1231 l 1
 356 1450 l 1
 1518 1450 l 1
 1471 1231 l 1
 1009 1231 l 1
 748 0 l 1
 508 0 l 1
EndSplineSet
KernsSLIF: 91 -113 0 0 89 -113 0 0 87 -76 0 0 85 -227 0 0 84 -76 0 0 81 -227 0 0 75 -76 0 0 71 -227 0 0 69 -227 0 0 67 -227 0 0 49 -37 0 0 35 -152 0 0 29 -227 0 0 28 -227 0 0 16 -227 0 0 15 -113 0 0 14 -227 0 0
EndChar
StartChar: U
Encoding: 55 85 57
OldEncoding: 85
Width: 1479
Flags: W
Fore
1373 1450 m 1
 1622 1450 l 1
 1434 567 l 2
 1352 182.333 1120 -10 738 -10 c 0
 434 -10 274.667 107 260 341 c 0
 256 406.333 263 481.667 281 567 c 1
 469 1450 l 1
 719 1450 l 1
 531 568 l 1
 504.333 442 527 350.667 599 294 c 0
 645 258 708 240 788 240 c 0
 922 240 1026 286.333 1100 379 c 0
 1140.67 430.333 1169 493.333 1185 568 c 2
 1373 1450 l 1
EndSplineSet
EndChar
StartChar: V
Encoding: 56 86 58
OldEncoding: 86
Width: 1366
Flags: W
Fore
577 0 m 1
 317 1450 l 1
 652 1450 l 1
 777 471 l 1
 1331 1450 l 1
 1658 1450 l 1
 776 0 l 1
 577 0 l 1
EndSplineSet
KernsSLIF: 91 -76 0 0 87 -76 0 0 84 -76 0 0 81 -113 0 0 75 -37 0 0 71 -113 0 0 67 -152 0 0 35 -152 0 0 29 -76 0 0 28 -76 0 0 16 -188 0 0 15 -113 0 0 14 -188 0 0
EndChar
StartChar: W
Encoding: 57 87 59
OldEncoding: 87
Width: 1933
Flags: W
Fore
366 0 m 1
 333 1450 l 1
 587 1450 l 1
 623 519 l 1
 1130 1450 l 1
 1400 1450 l 1
 1519 519 l 1
 1934 1450 l 1
 2205 1450 l 1
 1566 0 l 1
 1299 0 l 1
 1173 999 l 1
 618 0 l 1
 366 0 l 1
EndSplineSet
KernsSLIF: 91 -18 0 0 87 -37 0 0 84 -37 0 0 81 -37 0 0 71 -37 0 0 67 -76 0 0 35 -76 0 0 29 -37 0 0 28 -37 0 0 16 -113 0 0 15 -37 0 0 14 -113 0 0
EndChar
StartChar: X
Encoding: 58 88 60
OldEncoding: 88
Width: 1366
Flags: W
Fore
9 0 m 1
 654 756 l 1
 384 1450 l 1
 694 1450 l 1
 887 972 l 1
 1311 1450 l 1
 1621 1450 l 1
 1028 756 l 1
 1353 0 l 1
 1043 0 l 1
 796 544 l 1
 319 0 l 1
 9 0 l 1
EndSplineSet
EndChar
StartChar: Y
Encoding: 59 89 61
OldEncoding: 89
Width: 1366
Flags: W
Fore
526 0 m 1
 657 621 l 1
 314 1451 l 1
 634 1451 l 1
 856 887 l 1
 1338 1451 l 1
 1658 1451 l 1
 941 621 l 1
 810 0 l 1
 526 0 l 1
EndSplineSet
KernsSLIF: 88 -113 0 0 87 -113 0 0 83 -188 0 0 82 -152 0 0 81 -188 0 0 75 -76 0 0 71 -188 0 0 67 -152 0 0 35 -152 0 0 29 -133 0 0 28 -113 0 0 16 -264 0 0 15 -188 0 0 14 -264 0 0
EndChar
StartChar: Z
Encoding: 60 90 62
OldEncoding: 90
Width: 1251
Flags: W
Fore
41 0 m 1
 91 237 l 1
 1144 1220 l 1
 304 1220 l 1
 353 1450 l 1
 1521 1450 l 1
 1472 1220 l 1
 423 230 l 1
 1248 230 l 1
 1200 0 l 1
 41 0 l 1
EndSplineSet
EndChar
StartChar: bracketleft
Encoding: 61 91 63
OldEncoding: 91
Width: 569
Flags: W
Fore
52 -407 m 1
 450 1466 l 1
 847 1466 l 1
 807 1278 l 1
 630 1278 l 1
 312 -219 l 1
 489 -219 l 1
 449 -407 l 1
 52 -407 l 1
EndSplineSet
EndChar
StartChar: backslash
Encoding: 62 92 64
OldEncoding: 92
Width: 569
Flags: W
Fore
380 -25 m 1
 277 1491 l 1
 501 1491 l 1
 603 -25 l 1
 380 -25 l 1
EndSplineSet
EndChar
StartChar: bracketright
Encoding: 63 93 65
OldEncoding: 93
Width: 569
Flags: W
Fore
349 -407 m 1
 -47 -407 l 1
 -7 -219 l 1
 171 -219 l 1
 489 1277 l 1
 310 1277 l 1
 350 1466 l 1
 747 1466 l 1
 349 -407 l 1
EndSplineSet
EndChar
StartChar: asciicircum
Encoding: 64 94 66
OldEncoding: 94
Width: 961
Flags: W
Fore
434 690 m 1
 200 690 l 1
 703 1491 l 1
 888 1491 l 1
 1053 690 l 1
 822 690 l 1
 735 1209 l 1
 434 690 l 1
EndSplineSet
EndChar
StartChar: underscore
Encoding: 65 95 67
OldEncoding: 95
Width: 1139
Flags: W
Fore
-121 -427 m 1
 -81 -237 l 1
 1111 -237 l 1
 1071 -427 l 1
 -121 -427 l 1
EndSplineSet
EndChar
StartChar: grave
Encoding: 66 96 68
OldEncoding: 96
Width: 682
Flags: W
Fore
748 1194 m 1
 544 1194 l 1
 373 1474 l 1
 673 1474 l 1
 748 1194 l 1
EndSplineSet
EndChar
StartChar: a
Encoding: 67 97 69
OldEncoding: 97
Width: 1139
Flags: W
Fore
812 96 m 1
 726 34.6667 637.667 -2.66667 547 -16 c 0
 512.333 -21.3333 473.667 -24 431 -24 c 0
 314.333 -24 231 4.66667 181 62 c 0
 130.333 118.667 114.333 191.333 133 280 c 0
 163.667 424 262.333 521.667 429 573 c 0
 484.333 590.333 548.667 603.333 622 612 c 0
 732.667 624.667 831.667 645.333 919 674 c 1
 927 721 l 1
 934.333 804.333 895.333 854 810 870 c 0
 790.667 874 768.667 876 744 876 c 0
 666.667 876 600.333 855.333 545 814 c 0
 513.667 790.667 489.333 762.333 472 729 c 1
 266 759 l 1
 336.667 925.667 457.667 1028.33 629 1067 c 0
 684.333 1079.67 746 1086 814 1086 c 0
 998 1086 1109.67 1039.33 1149 946 c 1
 1161 908 l 1
 1164.33 890.667 1166 871.667 1166 851 c 0
 1166 820.333 1157.33 765 1140 685 c 1
 1089 445 l 2
 1053.67 277.667 1035 172 1033 128 c 0
 1031 83.3333 1037.33 40.6667 1052 0 c 1
 814 0 l 1
 808.667 31.3333 808 63.3333 812 96 c 1
878 487 m 1
 816.667 465.667 728.333 447.667 613 433 c 0
 517 420.333 451.667 401.333 417 376 c 0
 389 354.667 371 325.667 363 289 c 0
 350.333 231 372.667 191.333 430 170 c 1
 454 160 483.667 155 519 155 c 0
 615 155 696.667 183.333 764 240 c 0
 781.333 255.333 797 272.333 811 291 c 0
 835 323 853.667 370.667 867 434 c 2
 878 487 l 1
EndSplineSet
EndChar
StartChar: b
Encoding: 68 98 70
OldEncoding: 98
Width: 1139
Flags: W
Fore
345 0 m 1
 134 0 l 1
 445 1466 l 1
 669 1466 l 1
 568 990 l 1
 659.333 1054 748.333 1086 835 1086 c 0
 977 1086 1078 1032.67 1138 926 c 1
 1159 881 l 1
 1194.33 789 1198.33 677.667 1171 547 c 0
 1134.33 373.667 1062.33 236.667 955 136 c 0
 852.333 38.6667 731.667 -10 593 -10 c 0
 503 -10 432.333 15.3333 381 66 c 1
 374.333 71.3333 368 77.3333 362 84 c 1
 345 0 l 1
460 538 m 0
 432.667 410.667 442.333 317 489 257 c 0
 520.333 217.667 565.333 198 624 198 c 0
 727.333 198.667 811.333 243.667 876 333 c 0
 915.333 387 943.333 453 960 531 c 0
 988.667 665 974.333 761 917 819 c 1
 895.667 839.667 869.333 854.333 838 863 c 1
 793 869 l 2
 787 869.667 780.333 870 773 870 c 0
 697 870 628 833 566 759 c 0
 513.333 696.333 478 622.667 460 538 c 0
EndSplineSet
EndChar
StartChar: c
Encoding: 69 99 71
OldEncoding: 99
Width: 1024
Flags: W
Fore
873 403 m 1
 1090 403 l 1
 1051.33 244.333 969.333 129.667 844 59 c 0
 794.667 31 740.333 11.6667 681 1 c 0
 642.333 -6.33333 602 -10 560 -10 c 0
 417.333 -10 312 38.3333 244 135 c 0
 176 232.333 158 360 190 518 c 0
 190.667 521.333 191.333 524.333 192 527 c 0
 232.667 719 314 864.333 436 963 c 0
 536.667 1045 656 1086 794 1086 c 0
 930.667 1086 1031.67 1046.33 1097 967 c 0
 1155.67 895.667 1173.33 805.333 1150 696 c 1
 935 696 l 1
 947 757.333 928.333 806 879 842 c 0
 845 866.667 804.333 879 757 879 c 0
 652.333 879 567 830.667 501 734 c 0
 469.667 689.333 445.667 637 429 577 c 0
 424.333 562.333 420.667 547.333 418 532 c 0
 394 421.333 402.333 335.667 443 275 c 0
 476.333 225 529.667 200 603 200 c 0
 701.667 200 776 232.333 826 297 c 0
 848 326.333 863.667 361.667 873 403 c 1
EndSplineSet
EndChar
StartChar: d
Encoding: 70 100 72
OldEncoding: 100
Width: 1139
Flags: W
Fore
795 84 m 1
 786.333 77.3333 778 71.3333 770 66 c 0
 696 15.3333 614 -10 524 -10 c 0
 385.333 -10 285.333 38.6667 224 136 c 0
 160.667 236.667 147.333 373.667 184 547 c 0
 216.667 701.667 281 828 377 926 c 0
 482.333 1032.67 606 1086 748 1086 c 0
 834.667 1086 910.333 1054 975 990 c 1
 1076 1466 l 1
 1300 1466 l 1
 989 0 l 1
 778 0 l 1
 795 84 l 1
891 538 m 0
 909 622.667 905 696.333 879 759 c 0
 847.667 833 794 870 718 870 c 0
 656.667 870 602 853 554 819 c 0
 471.333 761 415.667 665 387 531 c 0
 370.333 453 370.333 387 387 333 c 0
 414.333 243.667 479.667 198.667 583 198 c 0
 641.667 198 694.667 217.667 742 257 c 0
 814 317 863.667 410.667 891 538 c 0
EndSplineSet
EndChar
StartChar: e
Encoding: 71 101 73
OldEncoding: 101
Width: 1139
Flags: W
Fore
877 333 m 1
 1118 333 l 1
 1066.67 206.333 981 113 861 53 c 0
 776.333 11 682 -10 578 -10 c 0
 385.333 -10 260 55 202 185 c 0
 162 272.333 156.333 384.667 185 522 c 0
 225 707.333 304.667 850.333 424 951 c 0
 530 1041 655.667 1086 801 1086 c 0
 961 1086 1072.67 1029.33 1136 916 c 0
 1190 818.667 1201 693 1169 539 c 0
 1165 521 1160.67 503 1156 485 c 1
 415 485 l 1
 401 386.333 420.333 311.333 473 260 c 0
 510.333 222.667 561 204 625 204 c 0
 719.667 204 793 231.667 845 287 c 0
 858.333 301.667 869 317 877 333 c 1
461 675 m 1
 959 675 l 1
 972.333 797 916.333 863.333 791 874 c 0
 780.333 874.667 769 875 757 875 c 0
 671 875 598.667 849 540 797 c 1
 512 769 l 1
 490.667 744.333 475 717.333 465 688 c 0
 463 684 461.667 679.667 461 675 c 1
EndSplineSet
EndChar
StartChar: f
Encoding: 72 102 74
OldEncoding: 102
Width: 569
Flags: W
Fore
153 0 m 1
 313 757 l 1
 179 757 l 1
 221 955 l 1
 355 955 l 1
 402 1175 l 2
 432.667 1318.33 502 1418 610 1474 c 0
 663.333 1501.33 721.333 1515 784 1515 c 0
 851.333 1515 908.667 1506 956 1488 c 1
 911 1277 l 1
 863.667 1293.67 831 1302.67 813 1304 c 0
 801 1304 l 0
 778.333 1304.67 757.667 1301.67 739 1295 c 0
 678.333 1273 638 1215 618 1121 c 1
 582 955 l 1
 738 955 l 1
 696 757 l 1
 540 757 l 1
 380 0 l 1
 153 0 l 1
EndSplineSet
KernsSLIF: 72 -37 0 0
EndChar
StartChar: g
Encoding: 73 103 75
OldEncoding: 103
Width: 1139
Flags: W
Fore
86 -74 m 1
 299 -74 l 1
 291.667 -109.333 302.333 -141 331 -169 c 0
 363.667 -200.333 411.667 -216 475 -216 c 0
 632.333 -216 732.667 -138.667 776 16 c 1
 789 75 l 1
 715.667 25 627.667 0 525 0 c 0
 379.667 0 276.333 53 215 159 c 0
 158.333 256.333 146.667 382.333 180 537 c 0
 214.667 701.667 284 834 388 934 c 1
 492 1035.33 614.667 1086 756 1086 c 0
 896.667 1086 992.333 1048.67 1043 974 c 1
 1061 1062 l 1
 1227 1062 l 1
 1032 144 l 2
 978.667 -107.333 891.333 -274 770 -356 c 0
 700 -404 605 -430 485 -434 c 2
 429 -435 l 2
 255.667 -435 145 -387.667 97 -293 c 0
 69.6667 -239.667 64.6667 -172.667 82 -92 c 0
 86 -74 l 1
431 546 m 0
 388.333 346.667 442 247 592 247 c 0
 736.667 247 829.667 345 871 541 c 0
 902.333 687.667 880.667 780.667 806 820 c 0
 781.333 832.667 751.333 839 716 839 c 0
 620.667 839 545.333 793.667 490 703 c 0
 463.333 659 443.667 606.667 431 546 c 0
EndSplineSet
EndChar
StartChar: h
Encoding: 74 104 76
OldEncoding: 104
Width: 1139
Flags: W
Fore
135 0 m 1
 446 1466 l 1
 676 1466 l 1
 579 1008 l 1
 642.333 1066 726.667 1095 832 1095 c 0
 981.333 1095 1080 1043.67 1128 941 c 0
 1160.67 870.333 1165.67 781 1143 673 c 1
 1000 0 l 1
 770 0 l 1
 902 624 l 1
 924 726.667 908.333 791 855 817 c 0
 833.667 827 806 832 772 832 c 0
 695.333 832 627 794.333 567 719 c 0
 521.667 663 492 600.667 478 532 c 1
 365 0 l 1
 135 0 l 1
EndSplineSet
EndChar
StartChar: i
Encoding: 75 105 77
OldEncoding: 105
Width: 455
Flags: W
Fore
369 1218 m 1
 422 1466 l 1
 653 1466 l 1
 600 1218 l 1
 369 1218 l 1
106 0 m 1
 331 1062 l 1
 571 1062 l 1
 346 0 l 1
 106 0 l 1
EndSplineSet
EndChar
StartChar: j
Encoding: 76 106 78
OldEncoding: 106
Width: 455
Flags: W
Fore
371 1220 m 1
 423 1466 l 1
 651 1466 l 1
 599 1220 l 1
 371 1220 l 1
-181 -412 m 1
 -137 -205 l 1
 -103.667 -210.333 -82.6667 -213 -74 -213 c 0
 -15.3333 -213 28 -192.667 56 -152 c 0
 78 -120 95 -76 107 -20 c 2
 337 1062 l 1
 565 1062 l 1
 327 -58 l 2
 287 -246 211 -362 99 -406 c 0
 61.6667 -420.667 20.3333 -428 -25 -428 c 0
 -82.3333 -428 -134.333 -422.667 -181 -412 c 1
EndSplineSet
EndChar
StartChar: k
Encoding: 77 107 79
OldEncoding: 107
Width: 1024
Flags: W
Fore
136 0 m 1
 447 1466 l 1
 667 1466 l 1
 501 684 l 1
 921 1062 l 1
 1200 1062 l 1
 727 636 l 1
 1016 0 l 1
 740 0 l 1
 545 484 l 1
 438 390 l 1
 356 0 l 1
 136 0 l 1
EndSplineSet
EndChar
StartChar: l
Encoding: 78 108 80
OldEncoding: 108
Width: 455
Flags: W
Fore
104 0 m 1
 415 1466 l 1
 651 1466 l 1
 340 0 l 1
 104 0 l 1
EndSplineSet
EndChar
StartChar: m
Encoding: 79 109 81
OldEncoding: 109
Width: 1706
Flags: W
Fore
135 0 m 1
 360 1062 l 1
 568 1062 l 1
 550 978 l 1
 633.333 1050 732.667 1086 848 1086 c 0
 961.333 1086 1042.33 1057 1091 999 c 0
 1104.33 983.667 1113.67 966.667 1119 948 c 1
 1165.67 1004.67 1238 1045 1336 1069 c 0
 1382.67 1080.33 1429.33 1086 1476 1086 c 0
 1670 1086 1758 991.667 1740 803 c 0
 1738 779.667 1734 755 1728 729 c 1
 1574 0 l 1
 1356 0 l 1
 1498 669 l 1
 1517.33 781.667 1479.33 839.333 1384 842 c 1
 1256 842 1171.33 784 1130 668 c 0
 1124.67 652 1120.33 635 1117 617 c 1
 986 0 l 1
 742 0 l 1
 888 690 l 1
 903.333 760.667 882 807.333 824 830 c 0
 804 838 781.333 842 756 842 c 0
 635.333 842 551 773.333 503 636 c 1
 493 610 485 581.667 479 551 c 1
 362 0 l 1
 135 0 l 1
EndSplineSet
EndChar
StartChar: n
Encoding: 80 110 82
OldEncoding: 110
Width: 1139
Flags: W
Fore
135 0 m 1
 361 1064 l 1
 594 1064 l 1
 583 1012 l 1
 632.333 1050 681.333 1074.33 730 1085 c 0
 760.667 1091.67 794.667 1095 832 1095 c 0
 981.333 1095 1080 1043.67 1128 941 c 0
 1160.67 870.333 1165.67 781 1143 673 c 1
 1000 0 l 1
 776 0 l 1
 908 624 l 2
 932 736.667 906.333 802.667 831 822 c 0
 813.667 826 793.667 828 771 828 c 0
 676.333 828 601.667 785.667 547 701 c 0
 517 655 495 598.667 481 532 c 2
 368 0 l 1
 135 0 l 1
EndSplineSet
EndChar
StartChar: o
Encoding: 81 111 83
OldEncoding: 111
Width: 1139
Flags: W
Fore
180 531 m 0
 220.667 721.667 303.333 866 428 964 c 0
 531.333 1045.33 654 1086 796 1086 c 0
 958 1086 1072.67 1032 1140 924 c 0
 1198.67 828 1211.67 702 1179 546 c 0
 1127.67 306 1019.33 142.667 854 56 c 0
 769.333 11.3333 672.333 -11 563 -11 c 0
 373.667 -11 250.667 55 194 187 c 0
 155.333 276.333 150.667 391 180 531 c 0
421 529 m 0
 387.667 371.667 414.333 271.333 501 228 c 0
 530.333 213.333 566.333 206 609 206 c 0
 732.333 206 824.333 266.333 885 387 c 0
 905.667 429.667 922 478.667 934 534 c 0
 962 665.333 947 759 889 815 c 0
 855 847.667 808.333 864 749 864 c 0
 637.667 864 550.667 812 488 708 c 0
 458 658 435.667 598.333 421 529 c 0
EndSplineSet
EndChar
StartChar: p
Encoding: 82 112 84
OldEncoding: 112
Width: 1139
Flags: W
Fore
541 992 m 1
 555 1002 555 1002 567 1010 c 0
 640.333 1060.67 722 1086 812 1086 c 0
 951.333 1086 1051.33 1037.33 1112 940 c 0
 1176 839.333 1189.67 702.333 1153 529 c 0
 1120.33 374.333 1055.67 248 959 150 c 0
 854.333 43.3333 730.667 -10 588 -10 c 0
 501.333 -10 426 22 362 86 c 1
 261 -390 l 1
 37 -390 l 1
 348 1076 l 1
 559 1076 l 1
 541 992 l 1
446 538 m 0
 428 453.333 432 379.667 458 317 c 0
 488.667 243 542.333 206 619 206 c 0
 680.333 206 735 223 783 257 c 0
 865.667 315 921 411 949 545 c 0
 965.667 623 965.667 689 949 743 c 0
 922.333 832.333 857.667 877.333 755 878 c 0
 695.667 878 642.667 858.333 596 819 c 1
 522.667 759 472.667 665.333 446 538 c 0
EndSplineSet
EndChar
StartChar: q
Encoding: 83 113 85
OldEncoding: 113
Width: 1139
Flags: W
Fore
1025 1076 m 1
 1236 1076 l 1
 925 -390 l 1
 701 -390 l 1
 802 86 l 1
 710 22 620.667 -10 534 -10 c 0
 392 -10 291 43.3333 231 150 c 0
 177 248 166.333 374.333 199 529 c 0
 235.667 702.333 307.333 839.333 414 940 c 0
 516.667 1037.33 637.333 1086 776 1086 c 0
 866 1086 937 1060.67 989 1010 c 0
 995 1004.67 1001 998.667 1007 992 c 1
 1025 1076 l 1
910 538 m 0
 936.667 665.333 927 759 881 819 c 1
 849.667 858.333 804.667 878 746 878 c 0
 642.667 877.333 558.333 832.333 493 743 c 0
 453.667 689 425.667 623 409 545 c 0
 381 411 395.667 315 453 257 c 0
 487 223 534.667 206 596 206 c 0
 672 206 741.333 243 804 317 c 0
 856.667 379.667 892 453.333 910 538 c 0
EndSplineSet
EndChar
StartChar: r
Encoding: 84 114 86
OldEncoding: 114
Width: 682
Flags: W
Fore
133 0 m 1
 358 1062 l 1
 587 1062 l 1
 563 947 l 1
 591.667 986.333 618 1014 642 1030 c 0
 655.333 1038 670 1045.33 686 1052 c 0
 694 1054.67 703 1058 713 1062 c 0
 741 1072 772.667 1077 808 1077 c 0
 842 1077 870 1069.67 892 1055 c 1
 928 1028 l 1
 815 789 l 1
 772 823 l 1
 753 828 l 1
 740 828 l 2
 717.333 828 695.333 824.333 674 817 c 0
 657.333 811 641 802.667 625 792 c 0
 577 761.333 539.333 698.667 512 604 c 0
 502.667 572 492.667 532 482 484 c 1
 380 0 l 1
 133 0 l 1
EndSplineSet
KernsSLIF: 16 -113 0 0 14 -113 0 0
EndChar
StartChar: s
Encoding: 85 115 87
OldEncoding: 115
Width: 1024
Flags: W
Fore
139 358 m 1
 367 358 l 1
 361.667 296.667 385 252.667 437 226 c 0
 467.667 209.333 508 201 558 201 c 0
 629.333 201 688.667 219 736 255 c 0
 758 272.333 771 289.333 775 306 c 0
 785 356 775 390 745 408 c 0
 727.667 418.667 685 430.333 617 443 c 0
 481.667 469 388.667 498.333 338 531 c 0
 268.667 576.333 240 645.667 252 739 c 0
 253.333 752.333 255.333 766 258 780 c 0
 280.667 884 342.333 964 443 1020 c 0
 521.667 1064 612 1086 714 1086 c 0
 884.667 1086 995.667 1041.67 1047 953 c 0
 1075.67 902.333 1082.33 839.333 1067 764 c 1
 841 764 l 1
 847.667 817.333 821 851.667 761 867 c 0
 739.667 872.333 713.333 875 682 875 c 0
 606.667 874.333 551.667 856.333 517 821 c 1
 505 809.667 497.667 797 495 783 c 0
 495 781.667 494.667 780 494 778 c 0
 486.667 732.667 500.333 701.667 535 685 c 0
 551 677 591.333 666.667 656 654 c 0
 785.333 628.667 875.333 600.667 926 570 c 0
 972.667 540.667 1002.33 502.667 1015 456 c 0
 1025 419.333 1024.67 375.667 1014 325 c 0
 990.667 217.667 927.667 133 825 71 c 0
 734.333 16.3333 630.667 -11 514 -11 c 0
 337.333 -11 221.333 41 166 145 c 0
 136 202.333 127 273.333 139 358 c 1
EndSplineSet
EndChar
StartChar: t
Encoding: 86 116 88
OldEncoding: 116
Width: 569
Flags: W
Fore
570 199 m 1
 554 2 l 1
 504 -8 455.333 -13 408 -13 c 0
 328 -13 273.667 -3.66667 245 15 c 0
 241 17 l 0
 205.667 44.3333 186.333 82 183 130 c 0
 181 170 188.667 230.333 206 311 c 1
 329 892 l 1
 207 892 l 1
 249 1088 l 1
 371 1088 l 1
 444 1433 l 1
 676 1433 l 1
 603 1088 l 1
 728 1088 l 1
 686 892 l 1
 561 892 l 1
 435 301 l 1
 428.333 269 427 248 431 238 c 0
 431.667 235.333 432.333 233.333 433 232 c 0
 437 222 444.667 213 456 205 c 0
 468.667 195.667 488 191 514 191 c 0
 515.333 191 534 193.667 570 199 c 1
EndSplineSet
EndChar
StartChar: u
Encoding: 87 117 89
OldEncoding: 117
Width: 1139
Flags: W
Fore
1199 1085 m 1
 969 0 l 1
 789 0 l 1
 802 64 l 1
 762.667 29.3333 698.667 6.33333 610 -5 c 0
 584.667 -8.33333 559.333 -10 534 -10 c 0
 364.667 -10 255.333 42.3333 206 147 c 1
 172.667 215 167.667 303.333 191 412 c 1
 334 1085 l 1
 560 1085 l 1
 427 461 l 1
 406.333 361 429.667 294.333 497 261 c 0
 521.667 249 551 243 585 243 c 0
 692.333 243 765 292 803 390 c 0
 811 410 817.333 432 822 456 c 1
 956 1085 l 1
 1199 1085 l 1
EndSplineSet
EndChar
StartChar: v
Encoding: 88 118 90
OldEncoding: 118
Width: 1024
Flags: W
Fore
429 0 m 1
 251 1062 l 1
 493 1062 l 1
 596 360 l 1
 985 1062 l 1
 1225 1062 l 1
 599 0 l 1
 429 0 l 1
EndSplineSet
KernsSLIF: 16 -152 0 0 14 -152 0 0
EndChar
StartChar: w
Encoding: 89 119 91
OldEncoding: 119
Width: 1479
Flags: W
Fore
296 0 m 1
 231 1062 l 1
 481 1062 l 1
 501 364 l 1
 873 1062 l 1
 1057 1062 l 1
 1146 364 l 1
 1461 1062 l 1
 1688 1062 l 1
 1200 0 l 1
 956 0 l 1
 946 148.667 921.667 374 883 676 c 1
 544 0 l 1
 296 0 l 1
EndSplineSet
KernsSLIF: 16 -113 0 0 14 -113 0 0
EndChar
StartChar: x
Encoding: 90 120 92
OldEncoding: 120
Width: 1024
Flags: W
Fore
15 0 m 1
 463 552 l 1
 269 1062 l 1
 549 1062 l 1
 657 744 l 1
 925 1062 l 1
 1206 1062 l 1
 776 562 l 1
 1009 0 l 1
 732 0 l 1
 583 369 l 1
 284 0 l 1
 15 0 l 1
EndSplineSet
EndChar
StartChar: y
Encoding: 91 121 93
OldEncoding: 121
Width: 1024
Flags: W
Fore
40 -409 m 1
 66 -192 l 1
 98 -201.333 132.667 -206 170 -206 c 0
 217.333 -206 256.667 -198.333 288 -183 c 1
 354 -153 393 -110 405 -54 c 0
 409 -36.6667 410 -18.6667 408 0 c 1
 258 1062 l 1
 517 1062 l 1
 604 372 l 1
 969 1062 l 1
 1231 1062 l 1
 624 0 l 1
 584 -122.667 524.667 -223.333 446 -302 c 0
 417.333 -330.667 382 -355 340 -375 c 0
 281.333 -402.333 217.667 -418 149 -422 c 1
 95 -421 l 1
 74.3333 -419 56 -415 40 -409 c 1
EndSplineSet
KernsSLIF: 16 -152 0 0 14 -152 0 0
EndChar
StartChar: z
Encoding: 92 122 94
OldEncoding: 122
Width: 1024
Flags: W
Fore
40 0 m 1
 85 212 l 1
 847 864 l 1
 243 864 l 1
 285 1062 l 1
 1173 1062 l 1
 1131 864 l 1
 389 212 l 1
 1025 212 l 1
 980 0 l 1
 40 0 l 1
EndSplineSet
EndChar
StartChar: braceleft
Encoding: 93 123 95
OldEncoding: 123
Width: 684
Flags: W
Fore
187 612 m 1
 238.333 613.333 283.333 627.333 322 654 c 0
 359.333 680.667 388 716.667 408 762 c 0
 428.667 808 452 891 478 1011 c 0
 504.667 1131 527.333 1217.33 546 1270 c 1
 566 1322.67 593.667 1366.33 629 1401 c 0
 664.333 1435.67 705 1460.33 751 1475 c 0
 782.333 1485.67 830.667 1491 896 1491 c 2
 952 1491 l 1
 908 1280 l 1
 877 1280 l 2
 849 1280 830 1277.67 820 1273 c 1
 794 1254 l 2
 768.667 1236 749 1204.67 735 1160 c 0
 726.333 1134.67 712 1075 692 981 c 0
 661.333 837.667 624 736 580 676 c 0
 549 634 549 634 541 623 c 0
 507.667 581.667 467.333 550.667 420 530 c 1
 443.333 519.333 461 504.667 473 486 c 1
 501 426 l 1
 523.667 382 532.333 323 527 249 c 0
 523.667 204.333 508.667 119.333 482 -6 c 0
 463.333 -93.3333 463 -149.333 481 -174 c 1
 494 -196 l 1
 501.333 -206.667 523 -212 559 -212 c 2
 590 -212 l 1
 544 -431 l 1
 488 -431 l 2
 430.667 -431 390 -427.333 366 -420 c 0
 331.333 -409.333 304 -394 284 -374 c 0
 264.667 -353.333 250 -326 240 -292 c 0
 231.333 -258.667 230 -213.667 236 -157 c 0
 240.667 -121 254.333 -47.6667 277 63 c 0
 299.667 174.333 310.667 252.667 310 298 c 0
 309.333 344 295.667 380.333 269 407 c 0
 242.333 433.667 203.333 447.667 152 449 c 1
 187 612 l 1
EndSplineSet
EndChar
StartChar: bar
Encoding: 94 124 96
OldEncoding: 124
Width: 532
Flags: W
Fore
48 -431 m 1
 456 1491 l 1
 706 1491 l 1
 298 -431 l 1
 48 -431 l 1
EndSplineSet
EndChar
StartChar: braceright
Encoding: 95 125 97
OldEncoding: 125
Width: 684
Flags: W
Fore
756 612 m 1
 721 449 l 1
 669.667 447.667 624.667 433.667 586 407 c 0
 548.667 380.333 519.667 344 499 298 c 0
 478.333 252.667 456 174.333 432 63 c 0
 407.333 -48.3333 389.667 -121.667 379 -157 c 0
 361 -213.667 340.333 -258.667 317 -292 c 0
 293.667 -326 267.667 -353.333 239 -374 c 0
 211 -394 177 -409.333 137 -420 c 0
 110.333 -427.333 68.3333 -431 11 -431 c 2
 -44 -431 l 1
 1 -212 l 1
 32 -212 l 2
 68 -212 92.3333 -206.667 105 -196 c 1
 128 -174 l 2
 155.333 -149.333 178.333 -93.3333 197 -6 c 0
 223.667 119.333 244.667 204.333 260 249 c 0
 286.667 323 320.667 382 362 426 c 1
 416 486 l 1
 436 504.667 459.667 519.333 487 530 c 1
 449 550.667 422.333 581.333 407 622 c 0
 403.667 629.333 397.667 647.333 389 676 c 0
 370.333 736 376.333 837.667 407 981 c 0
 427 1075 438 1134.67 440 1160 c 0
 444.667 1204.67 438.333 1236 421 1254 c 2
 403 1273 l 1
 384 1278 l 2
 376.667 1279.33 365.333 1280 350 1280 c 2
 319 1280 l 1
 363 1491 l 1
 419 1491 l 2
 484.333 1491 530.667 1485.67 558 1475 c 0
 597.333 1460.33 627.333 1435.67 648 1401 c 0
 668.667 1366.33 677.667 1322.67 675 1270 c 0
 672.333 1217.33 658.333 1131 633 1011 c 0
 608.333 891 596.333 808 597 762 c 0
 598.333 716.667 612.333 680.667 639 654 c 0
 665.667 627.333 704.667 613.333 756 612 c 1
EndSplineSet
EndChar
StartChar: asciitilde
Encoding: 96 126 98
OldEncoding: 126
Width: 1196
Flags: W
Fore
199 529 m 1
 253 782 l 1
 340.333 862 441.333 902 556 902 c 0
 596 902 636.667 896 678 884 c 0
 720 872.667 778 849.667 852 815 c 0
 894 795.667 925.667 783 947 777 c 0
 969 771 991.667 768 1015 768 c 0
 1058.33 768 1105.67 781 1157 807 c 0
 1209 833 1257.33 865.667 1302 905 c 1
 1247 645 l 1
 1195.67 605 1146 576 1098 558 c 0
 1050.67 540 999.667 531 945 531 c 0
 905 531 867.667 535.667 833 545 c 0
 799 554.333 746.667 576.667 676 612 c 0
 604 647.333 541.667 665 489 665 c 0
 446.333 665 404.333 656 363 638 c 0
 321 619.333 266.333 583 199 529 c 1
EndSplineSet
EndChar
StartChar: uni007F
Encoding: 97 127 99
OldEncoding: 127
Width: 1247
Flags: W
Fore
340 928 m 0
 343.333 945.333 352 959.833 366 971.5 c 128
 380 983.167 395.667 989 413 989 c 0
 430.333 989 443.5 983.167 452.5 971.5 c 128
 461.5 959.833 464.333 945.333 461 928 c 0
 457 910.667 448 896.333 434 885 c 128
 420 873.667 404.333 868 387 868 c 0
 369.667 868 356.5 873.667 347.5 885 c 128
 338.5 896.333 336 910.667 340 928 c 0
559 1071 m 0
 563 1088.33 571.833 1102.83 585.5 1114.5 c 128
 599.167 1126.17 614.667 1132 632 1132 c 0
 649.333 1132 662.667 1126.17 672 1114.5 c 128
 681.333 1102.83 684 1088.33 680 1071 c 0
 676.667 1053.67 667.833 1039.33 653.5 1028 c 128
 639.167 1016.67 623.333 1011 606 1011 c 0
 588.667 1011 575.667 1016.67 567 1028 c 128
 558.333 1039.33 555.667 1053.67 559 1071 c 0
800 1139 m 0
 803.333 1156.33 812 1170.83 826 1182.5 c 128
 840 1194.17 855.667 1200 873 1200 c 0
 890.333 1200 903.5 1194.17 912.5 1182.5 c 128
 921.5 1170.83 924.333 1156.33 921 1139 c 0
 917 1121.67 908 1107.33 894 1096 c 128
 880 1084.67 864.333 1079 847 1079 c 0
 829.667 1079 816.5 1084.67 807.5 1096 c 128
 798.5 1107.33 796 1121.67 800 1139 c 0
129 505 m 0
 132.333 522.333 141 536.833 155 548.5 c 128
 169 560.167 184.667 566 202 566 c 0
 219.333 566 232.5 560.167 241.5 548.5 c 128
 250.5 536.833 253.333 522.333 250 505 c 0
 246 487.667 237 473.333 223 462 c 128
 209 450.667 193.333 445 176 445 c 0
 158.667 445 145.5 450.667 136.5 462 c 128
 127.5 473.333 125 487.667 129 505 c 0
208 309 m 0
 212 326.333 220.833 340.833 234.5 352.5 c 128
 248.167 364.167 263.667 370 281 370 c 0
 298.333 370 311.667 364.167 321 352.5 c 128
 330.333 340.833 333 326.333 329 309 c 0
 325.667 291.667 316.833 277.333 302.5 266 c 128
 288.167 254.667 272.333 249 255 249 c 0
 237.667 249 224.667 254.667 216 266 c 128
 207.333 277.333 204.667 291.667 208 309 c 0
319 158 m 0
 323 175.333 331.833 189.833 345.5 201.5 c 128
 359.167 213.167 374.667 219 392 219 c 0
 409.333 219 422.667 213.167 432 201.5 c 128
 441.333 189.833 444 175.333 440 158 c 0
 436.667 140.667 427.833 126.333 413.5 115 c 128
 399.167 103.667 383.333 98 366 98 c 0
 348.667 98 335.667 103.667 327 115 c 128
 318.333 126.333 315.667 140.667 319 158 c 0
565 67 m 0
 568.333 84.3333 577 98.8333 591 110.5 c 128
 605 122.167 620.667 128 638 128 c 0
 655.333 128 668.5 122.167 677.5 110.5 c 128
 686.5 98.8333 689.333 84.3333 686 67 c 0
 682 49.6667 673 35.3333 659 24 c 128
 645 12.6667 629.333 7 612 7 c 0
 594.667 7 581.5 12.6667 572.5 24 c 128
 563.5 35.3333 561 49.6667 565 67 c 0
872 128 m 0
 875.333 145.333 884 159.833 898 171.5 c 128
 912 183.167 927.667 189 945 189 c 0
 962.333 189 975.5 183.167 984.5 171.5 c 128
 993.5 159.833 996.333 145.333 993 128 c 0
 989 110.667 980 96.3333 966 85 c 128
 952 73.6667 936.333 68 919 68 c 0
 901.667 68 888.5 73.6667 879.5 85 c 128
 870.5 96.3333 868 110.667 872 128 c 0
1073 294 m 0
 1077 311.333 1085.83 325.833 1099.5 337.5 c 128
 1113.17 349.167 1128.67 355 1146 355 c 0
 1163.33 355 1176.67 349.167 1186 337.5 c 128
 1195.33 325.833 1198 311.333 1194 294 c 0
 1190 276.667 1181 262.333 1167 251 c 128
 1153 239.667 1137.33 234 1120 234 c 0
 1102.67 234 1089.5 239.667 1080.5 251 c 128
 1071.5 262.333 1069 276.667 1073 294 c 0
1191 498 m 0
 1195 515.333 1203.83 529.833 1217.5 541.5 c 128
 1231.17 553.167 1246.67 559 1264 559 c 0
 1281.33 559 1294.67 553.167 1304 541.5 c 128
 1313.33 529.833 1316 515.333 1312 498 c 0
 1308.67 480.667 1300 466.333 1286 455 c 128
 1272 443.667 1256.33 438 1239 438 c 0
 1221.67 438 1208.5 443.667 1199.5 455 c 128
 1190.5 466.333 1187.67 480.667 1191 498 c 0
1229 739 m 0
 1232.33 756.333 1241 770.833 1255 782.5 c 128
 1269 794.167 1284.67 800 1302 800 c 0
 1319.33 800 1332.5 794.167 1341.5 782.5 c 128
 1350.5 770.833 1353.33 756.333 1350 739 c 0
 1346 721.667 1337 707.333 1323 696 c 128
 1309 684.667 1293.33 679 1276 679 c 0
 1258.67 679 1245.5 684.667 1236.5 696 c 128
 1227.5 707.333 1225 721.667 1229 739 c 0
1167 951 m 0
 1170.33 968.333 1179 982.833 1193 994.5 c 128
 1207 1006.17 1222.67 1012 1240 1012 c 0
 1257.33 1012 1270.5 1006.17 1279.5 994.5 c 128
 1288.5 982.833 1291.33 968.333 1288 951 c 0
 1284 933.667 1275 919.333 1261 908 c 128
 1247 896.667 1231.33 891 1214 891 c 0
 1196.67 891 1183.5 896.667 1174.5 908 c 128
 1165.5 919.333 1163 933.667 1167 951 c 0
1009 1094 m 0
 1013 1111.33 1021.83 1125.83 1035.5 1137.5 c 128
 1049.17 1149.17 1064.67 1155 1082 1155 c 0
 1099.33 1155 1112.67 1149.17 1122 1137.5 c 128
 1131.33 1125.83 1134 1111.33 1130 1094 c 0
 1126.67 1076.67 1117.83 1062.33 1103.5 1051 c 128
 1089.17 1039.67 1073.33 1034 1056 1034 c 0
 1038.67 1034 1025.67 1039.67 1017 1051 c 128
 1008.33 1062.33 1005.67 1076.67 1009 1094 c 0
194 739 m 0
 197.333 756.333 206 770.833 220 782.5 c 128
 234 794.167 249.667 800 267 800 c 0
 284.333 800 297.5 794.167 306.5 782.5 c 128
 315.5 770.833 318.333 756.333 315 739 c 0
 311 721.667 302 707.333 288 696 c 128
 274 684.667 258.333 679 241 679 c 0
 223.667 679 210.5 684.667 201.5 696 c 128
 192.5 707.333 190 721.667 194 739 c 0
EndSplineSet
EndChar
StartChar: exclamdown
Encoding: 99 161 101
OldEncoding: 161
Width: 680
Flags: W
Fore
713 1278 m 1
 509 1278 l 1
 554 1489 l 1
 758 1489 l 1
 713 1278 l 1
452 0 m 1
 228 0 l 1
 485 1079 l 1
 651 1079 l 1
 452 0 l 1
EndSplineSet
EndChar
StartChar: cent
Encoding: 100 162 102
OldEncoding: 162
Width: 1118
Flags: W
Fore
557 2 m 1
 417 18.6667 319.167 75 263.5 171 c 128
 207.833 267 197.333 395.667 232 557 c 0
 265.333 715.667 331.833 844.333 431.5 943 c 128
 531.167 1041.67 652 1099 794 1115 c 1
 870 1475 l 1
 984 1475 l 1
 908 1116 l 1
 965.333 1114 1019.17 1105.17 1069.5 1089.5 c 128
 1119.83 1073.83 1161.67 1056.33 1195 1037 c 1
 1152 837 l 1
 1142 837 l 1
 1108 871 1070.33 900.667 1029 926 c 128
 987.667 951.333 937.333 968.333 878 977 c 1
 700 141 l 1
 734 144.333 768.667 152 804 164 c 128
 839.333 176 869.667 188.667 895 202 c 0
 922.333 216 946.833 229.833 968.5 243.5 c 128
 990.167 257.167 1008.67 269.667 1024 281 c 1
 1034 281 l 1
 992 83 l 1
 944.667 63 895.833 45.1667 845.5 29.5 c 128
 795.167 13.8333 737 4.33333 671 1 c 1
 594 -361 l 1
 480 -361 l 1
 557 2 l 1
588 146 m 1
 763 971 l 1
 682.333 957 612.333 915.167 553 845.5 c 128
 493.667 775.833 451 679.667 425 557 c 0
 398.333 431.667 400.667 335.167 432 267.5 c 128
 463.333 199.833 515.333 159.333 588 146 c 1
EndSplineSet
EndChar
StartChar: sterling
Encoding: 101 163 103
OldEncoding: 163
Width: 1118
Flags: W
Fore
1031 0 m 1
 89 0 l 1
 132 207 l 1
 211.333 229 272.833 271.667 316.5 335 c 128
 360.167 398.333 395 491 421 613 c 1
 260 613 l 1
 289 751 l 1
 450 751 l 1
 518 1071 l 2
 546.667 1205 608.333 1313 703 1395 c 128
 797.667 1477 906.667 1518 1030 1518 c 0
 1094.67 1518 1149 1512.83 1193 1502.5 c 128
 1237 1492.17 1277 1481.33 1313 1470 c 1
 1269 1264 l 1
 1259 1264 l 1
 1226.33 1291.33 1188 1312.67 1144 1328 c 128
 1100 1343.33 1056.67 1351 1014 1351 c 0
 932 1351 865.333 1325.33 814 1274 c 128
 762.667 1222.67 726.667 1148.67 706 1052 c 2
 642 751 l 1
 1006 751 l 1
 977 613 l 1
 613 613 l 1
 600 552 l 2
 583.333 474 548.667 403.167 496 339.5 c 128
 443.333 275.833 377.667 223.333 299 182 c 1
 297 171 l 1
 1067 171 l 1
 1031 0 l 1
EndSplineSet
EndChar
StartChar: currency
Encoding: 102 164 104
OldEncoding: 164
Width: 1118
Flags: W
Fore
1114 272 m 1
 986 166 l 1
 817 378 l 1
 783 360 752.167 346.833 724.5 338.5 c 128
 696.833 330.167 665 326 629 326 c 0
 598.333 326 568.5 331 539.5 341 c 128
 510.5 351 485.667 363.667 465 379 c 1
 204 164 l 1
 123 273 l 1
 380 486 l 1
 368.667 512.667 361.833 541.5 359.5 572.5 c 128
 357.167 603.5 359 633 365 661 c 0
 371 690.333 381.667 719.833 397 749.5 c 128
 412.333 779.167 431.667 807.667 455 835 c 1
 288 1051 l 1
 417 1157 l 1
 586 944 l 1
 614 960 644.333 972.667 677 982 c 128
 709.667 991.333 741 996 771 996 c 0
 805.667 996 837.167 990.833 865.5 980.5 c 128
 893.833 970.167 917.333 958.333 936 945 c 1
 1193 1157 l 1
 1280 1052 l 1
 1020 836 l 1
 1032 807.333 1039.5 779.667 1042.5 753 c 128
 1045.5 726.333 1043.33 695.667 1036 661 c 0
 1029.33 631 1018 600.5 1002 569.5 c 128
 986 538.5 967.333 510.667 946 486 c 1
 1114 272 l 1
892 661 m 0
 903.333 714.333 894.333 760.5 865 799.5 c 128
 835.667 838.5 794.667 858 742 858 c 0
 690.667 858 641.667 838.833 595 800.5 c 128
 548.333 762.167 519.333 715.667 508 661 c 0
 496.667 607.667 505.667 561.5 535 522.5 c 128
 564.333 483.5 605.333 464 658 464 c 0
 709.333 464 758.333 483.167 805 521.5 c 128
 851.667 559.833 880.667 606.333 892 661 c 0
EndSplineSet
EndChar
StartChar: yen
Encoding: 103 165 105
OldEncoding: 165
Width: 1118
Flags: W
Fore
1375 1489 m 1
 795 678 l 1
 773 578 l 1
 1115 578 l 1
 1086 440 l 1
 746 440 l 1
 653 0 l 1
 465 0 l 1
 558 440 l 1
 218 440 l 1
 247 578 l 1
 589 578 l 1
 606 657 l 1
 372 1489 l 1
 582 1489 l 1
 740 850 l 1
 1174 1489 l 1
 1375 1489 l 1
EndSplineSet
EndChar
StartChar: brokenbar
Encoding: 104 166 106
OldEncoding: 166
Width: 783
Flags: W
Fore
636 758 m 1
 469 758 l 1
 638 1556 l 1
 805 1556 l 1
 636 758 l 1
391 -392 m 1
 224 -392 l 1
 394 406 l 1
 561 406 l 1
 391 -392 l 1
EndSplineSet
EndChar
StartChar: section
Encoding: 105 167 107
OldEncoding: 167
Width: 1118
Flags: W
Fore
844 401 m 0
 864.667 424.333 881.833 446.833 895.5 468.5 c 128
 909.167 490.167 919.667 519 927 555 c 0
 934.333 587.667 935.667 616 931 640 c 128
 926.333 664 917.333 683.667 904 699 c 0
 891.333 714.333 875.5 727.167 856.5 737.5 c 128
 837.5 747.833 814.667 757.333 788 766 c 0
 757 776 757 776 716 788.5 c 128
 688.667 796.833 658 807 624 819 c 1
 608.667 811 592.5 801 575.5 789 c 128
 558.5 777 539 760 517 738 c 0
 500.333 720.667 483.333 697.333 466 668 c 128
 448.667 638.667 437 609 431 579 c 0
 419 525 422.333 482 441 450 c 128
 459.667 418 502.667 391 570 369 c 0
 602 359 602 359 642.5 345.5 c 128
 683 332 683 332 733 315 c 1
 747.667 323 764.833 334 784.5 348 c 128
 804.167 362 824 379.667 844 401 c 0
153 -133 m 1
 168.333 -141.667 187.833 -151.333 211.5 -162 c 128
 235.167 -172.667 258 -182 280 -190 c 0
 309.333 -200 336.833 -207.5 362.5 -212.5 c 128
 388.167 -217.5 421.333 -220 462 -220 c 0
 538 -220 604.833 -204.5 662.5 -173.5 c 128
 720.167 -142.5 755.333 -96.6667 768 -36 c 0
 775.333 0 775.333 29.1667 768 51.5 c 128
 760.667 73.8333 745 93.6667 721 111 c 0
 696.333 127.667 664.833 141.833 626.5 153.5 c 128
 569 171 569 171 500 192 c 0
 445.333 208.667 400.333 225.667 365 243 c 128
 329.667 260.333 299.333 283.333 274 312 c 0
 250 339.333 234.333 371 227 407 c 128
 219.667 443 221.333 485 232 533 c 0
 245.333 595.667 274.333 655.167 319 711.5 c 128
 363.667 767.833 424 816.667 500 858 c 1
 501 865 l 1
 447.667 898.333 412.833 938.667 396.5 986 c 128
 380.167 1033.33 378.333 1087 391 1147 c 0
 415 1259 476.833 1349 576.5 1417 c 128
 676.167 1485 800.667 1519 950 1519 c 0
 1006.67 1519 1058.17 1514.67 1104.5 1506 c 128
 1150.83 1497.33 1201.33 1482.67 1256 1462 c 1
 1215 1268 l 1
 1205 1268 l 1
 1151.67 1298 1100.67 1320 1052 1334 c 128
 1003.33 1348 951 1355 895 1355 c 0
 820.333 1355 753.833 1339.83 695.5 1309.5 c 128
 637.167 1279.17 601.667 1234.67 589 1176 c 0
 581 1138 581.333 1107 590 1083 c 128
 598.667 1059 614.333 1039.33 637 1024 c 0
 659.667 1008 689.833 993.667 727.5 981 c 128
 765.167 968.333 808.333 955.333 857 942 c 0
 972.333 908.667 1050.67 865.833 1092 813.5 c 128
 1133.33 761.167 1144.33 690.333 1125 601 c 0
 1109.67 529 1078.17 466 1030.5 412 c 128
 982.833 358 925 313 857 277 c 1
 856 270 l 1
 907.333 239.333 941.833 200.667 959.5 154 c 128
 977.167 107.333 979.333 52.6667 966 -10 c 0
 956 -59.3333 935.333 -107.667 904 -155 c 128
 872.667 -202.333 834.333 -242 789 -274 c 0
 740.333 -309.333 685.167 -336.667 623.5 -356 c 128
 561.833 -375.333 490 -385 408 -385 c 0
 355.333 -385 304 -380.333 254 -371 c 128
 204 -361.667 153.333 -347 102 -327 c 1
 143 -133 l 1
 153 -133 l 1
EndSplineSet
EndChar
StartChar: dieresis
Encoding: 106 168 108
OldEncoding: 168
Width: 1118
Flags: W
Fore
1144 1304 m 1
 943 1304 l 1
 984 1499 l 1
 1185 1499 l 1
 1144 1304 l 1
731 1304 m 1
 530 1304 l 1
 571 1499 l 1
 772 1499 l 1
 731 1304 l 1
EndSplineSet
EndChar
StartChar: copyright
Encoding: 107 169 109
OldEncoding: 169
Width: 1902
Flags: W
Fore
1955 655 m 0
 1904.33 416.333 1776.5 212.5 1571.5 43.5 c 128
 1366.5 -125.5 1144.67 -210 906 -210 c 128
 667.333 -210 481.5 -125.5 348.5 43.5 c 128
 215.5 212.5 174.333 416.333 225 655 c 128
 275.667 893.667 403.333 1097.33 608 1266 c 128
 812.667 1434.67 1034.33 1519 1273 1519 c 128
 1511.67 1519 1697.67 1434.67 1831 1266 c 128
 1964.33 1097.33 2005.67 893.667 1955 655 c 0
1840 655 m 0
 1884 863.667 1848.5 1041.5 1733.5 1188.5 c 128
 1618.5 1335.5 1457.67 1409 1251 1409 c 128
 1044.33 1409 852.167 1335.5 674.5 1188.5 c 128
 496.833 1041.5 385.833 863.667 341.5 655 c 128
 297.167 446.333 332.5 268.333 447.5 121 c 128
 562.5 -26.3333 723.333 -100 930 -100 c 128
 1136.67 -100 1328.83 -26.3333 1506.5 121 c 128
 1684.17 268.333 1795.33 446.333 1840 655 c 0
1328 255 m 1
 1278.67 235 1230.17 217.5 1182.5 202.5 c 128
 1134.83 187.5 1080.67 180 1020 180 c 0
 880.667 180 779.333 221.167 716 303.5 c 128
 652.667 385.833 637.667 504.667 671 660 c 0
 703.667 813.333 770.5 932.167 871.5 1016.5 c 128
 972.5 1100.83 1090 1143 1224 1143 c 0
 1279.33 1143 1330.83 1135.67 1378.5 1121 c 128
 1426.17 1106.33 1467 1089.33 1501 1070 c 1
 1462 889 l 1
 1446 889 l 1
 1423.33 914.333 1389 938.5 1343 961.5 c 128
 1297 984.5 1248.33 996 1197 996 c 0
 1115 996 1043.67 968.667 983 914 c 128
 922.333 859.333 880 774.667 856 660 c 0
 832.667 552 838.333 469.5 873 412.5 c 128
 907.667 355.5 968.333 327 1055 327 c 0
 1111 327 1166.67 339.167 1222 363.5 c 128
 1277.33 387.833 1320 411.333 1350 434 c 1
 1366 434 l 1
 1328 255 l 1
EndSplineSet
EndChar
StartChar: ordfeminine
Encoding: 108 170 110
OldEncoding: 170
Width: 1010
Flags: W
Fore
994 566 m 1
 828 566 l 1
 847 657 l 1
 825 642 825 642 788 618.5 c 128
 763.333 602.833 739.667 590.333 717 581 c 0
 687 568.333 658 558.5 630 551.5 c 128
 602 544.5 564.667 541 518 541 c 0
 435.333 541 372.333 568.833 329 624.5 c 128
 285.667 680.167 273.333 751.667 292 839 c 0
 306.667 908.333 333 964.833 371 1008.5 c 128
 409 1052.17 457.333 1086.67 516 1112 c 0
 571.333 1136 638 1153 716 1163 c 128
 794 1173 875 1180 959 1184 c 1
 963 1203 l 2
 970.333 1237.67 970.833 1265.67 964.5 1287 c 128
 958.167 1308.33 945.667 1325 927 1337 c 0
 909.667 1348.33 887.167 1355.83 859.5 1359.5 c 128
 831.833 1363.17 802.667 1365 772 1365 c 0
 720 1365 665.5 1357.17 608.5 1341.5 c 128
 551.5 1325.83 509 1313.33 481 1304 c 1
 466 1304 l 1
 502 1474 l 1
 533.333 1482.67 579.167 1492.33 639.5 1503 c 128
 699.833 1513.67 755 1519 805 1519 c 0
 933 1519 1024.83 1493.5 1080.5 1442.5 c 128
 1136.17 1391.5 1151.67 1308.67 1127 1194 c 1
 994 566 l 1
878 802 m 1
 930 1045 l 1
 886 1042.33 834.667 1038.33 776 1033 c 128
 717.333 1027.67 670 1020 634 1010 c 0
 592 998.667 555.833 980.167 525.5 954.5 c 128
 495.167 928.833 475.333 893.667 466 849 c 0
 455.333 799 461.833 761 485.5 735 c 128
 509.167 709 550 696 608 696 c 0
 658.667 696 706.5 707 751.5 729 c 128
 796.5 751 838.667 775.333 878 802 c 1
EndSplineSet
EndChar
StartChar: guillemotleft
Encoding: 109 171 111
OldEncoding: 171
Width: 1174
Flags: W
Fore
1083 191 m 1
 684 610 l 1
 702 695 l 1
 1279 1113 l 1
 1239 925 l 1
 864 652 l 1
 1123 379 l 1
 1083 191 l 1
647 162 m 1
 232 608 l 1
 251 697 l 1
 855 1142 l 1
 814 946 l 1
 420 652 l 1
 689 358 l 1
 647 162 l 1
EndSplineSet
EndChar
StartChar: logicalnot
Encoding: 110 172 112
OldEncoding: 172
Width: 1490
Flags: W
Fore
1335 57 m 1
 1164 57 l 1
 1279 602 l 1
 284 602 l 1
 318 762 l 1
 1484 762 l 1
 1335 57 l 1
EndSplineSet
EndChar
StartChar: registered
Encoding: 112 174 114
OldEncoding: 174
Width: 1902
Flags: W
Fore
1955 655 m 0
 1904.33 416.333 1776.5 212.5 1571.5 43.5 c 128
 1366.5 -125.5 1144.67 -210 906 -210 c 128
 667.333 -210 481.5 -125.5 348.5 43.5 c 128
 215.5 212.5 174.333 416.333 225 655 c 128
 275.667 893.667 403.333 1097.33 608 1266 c 128
 812.667 1434.67 1034.33 1519 1273 1519 c 128
 1511.67 1519 1697.67 1434.67 1831 1266 c 128
 1964.33 1097.33 2005.67 893.667 1955 655 c 0
1840 655 m 0
 1884 863.667 1848.5 1041.5 1733.5 1188.5 c 128
 1618.5 1335.5 1457.67 1409 1251 1409 c 128
 1044.33 1409 852.167 1335.5 674.5 1188.5 c 128
 496.833 1041.5 385.833 863.667 341.5 655 c 128
 297.167 446.333 332.5 268.333 447.5 121 c 128
 562.5 -26.3333 723.333 -100 930 -100 c 128
 1136.67 -100 1328.83 -26.3333 1506.5 121 c 128
 1684.17 268.333 1795.33 446.333 1840 655 c 0
1493 215 m 1
 1266 215 l 1
 1059 570 l 1
 936 570 l 1
 860 215 l 1
 695 215 l 1
 890 1130 l 1
 1169 1130 l 2
 1231.67 1130 1280.67 1127.67 1316 1123 c 128
 1351.33 1118.33 1385.33 1105.33 1418 1084 c 0
 1453.33 1061.33 1476.5 1034 1487.5 1002 c 128
 1498.5 970 1498.67 929 1488 879 c 0
 1474 812.333 1444 757.667 1398 715 c 128
 1352 672.333 1296.67 639 1232 615 c 1
 1493 215 l 1
1304 868 m 0
 1309.33 892.667 1309.83 914 1305.5 932 c 128
 1301.17 950 1290.33 965.333 1273 978 c 0
 1259 988.667 1242 995.833 1222 999.5 c 128
 1202 1003.17 1175.67 1005 1143 1005 c 2
 1028 1005 l 1
 962 696 l 1
 1060 696 l 2
 1092 696 1122.67 699.167 1152 705.5 c 128
 1181.33 711.833 1206.33 722.667 1227 738 c 128
 1247.67 753.333 1264 771 1276 791 c 128
 1288 811 1297.33 836.667 1304 868 c 0
EndSplineSet
EndChar
StartChar: macron
Encoding: 113 175 115
OldEncoding: 175
Width: 1118
Flags: W
Fore
1486 1659 m 1
 336 1659 l 1
 364 1789 l 1
 1514 1789 l 1
 1486 1659 l 1
EndSplineSet
EndChar
StartChar: degree
Encoding: 114 176 116
OldEncoding: 176
Width: 964
Flags: W
Fore
1104 1135 m 0
 1081.33 1028.33 1025.5 938.333 936.5 865 c 128
 847.5 791.667 749.333 755 642 755 c 0
 536 755 453.667 791.333 395 864 c 128
 336.333 936.667 318.667 1027 342 1135 c 0
 364.667 1241.67 420.5 1331.67 509.5 1405 c 128
 598.5 1478.33 696.667 1515 804 1515 c 128
 911.333 1515 993.833 1478.33 1051.5 1405 c 128
 1109.17 1331.67 1126.67 1241.67 1104 1135 c 0
947 1135 m 0
 960.333 1199 950.333 1253 917 1297 c 128
 883.667 1341 835 1363 771 1363 c 128
 707 1363 649 1341 597 1297 c 128
 545 1253 512.333 1199 499 1135 c 0
 485 1069.67 495.167 1015.33 529.5 972 c 128
 563.833 928.667 612 907 674 907 c 0
 738 907 796.167 929.167 848.5 973.5 c 128
 900.833 1017.83 933.667 1071.67 947 1135 c 0
EndSplineSet
EndChar
StartChar: plusminus
Encoding: 115 177 117
OldEncoding: 177
Width: 1490
Flags: W
Fore
1361 159 m 1
 195 159 l 1
 229 317 l 1
 729 317 l 1
 819 739 l 1
 319 739 l 1
 352 897 l 1
 852 897 l 1
 960 1402 l 1
 1126 1402 l 1
 1018 897 l 1
 1518 897 l 1
 1485 739 l 1
 985 739 l 1
 895 317 l 1
 1395 317 l 1
 1361 159 l 1
EndSplineSet
EndChar
StartChar: uni00B2
Encoding: 116 178 118
OldEncoding: 178
Width: 1010
Flags: W
Fore
986 566 m 1
 305 566 l 1
 337 718 l 1
 427 777 427 777 509 831.5 c 128
 563.667 867.833 608.667 900.333 644 929 c 0
 729.333 997 787 1050.17 817 1088.5 c 128
 847 1126.83 867.667 1173 879 1227 c 0
 889 1273 882.333 1308.5 859 1333.5 c 128
 835.667 1358.5 798.667 1371 748 1371 c 0
 702 1371 653.333 1361 602 1341 c 128
 550.667 1321 509 1300.33 477 1279 c 1
 462 1279 l 1
 500 1458 l 1
 546 1476 595.667 1490.67 649 1502 c 128
 702.333 1513.33 753.667 1519 803 1519 c 0
 907 1519 981.333 1492.83 1026 1440.5 c 128
 1070.67 1388.17 1084.33 1321 1067 1239 c 0
 1055 1182.33 1030.17 1127.83 992.5 1075.5 c 128
 954.833 1023.17 893.333 964.667 808 900 c 0
 766.667 869.333 719.333 836.833 666 802.5 c 128
 586 751 586 751 523 710 c 1
 1016 710 l 1
 986 566 l 1
EndSplineSet
EndChar
StartChar: uni00B3
Encoding: 117 179 119
OldEncoding: 179
Width: 1010
Flags: W
Fore
1012 828 m 0
 1002 780.667 983 738.167 955 700.5 c 128
 927 662.833 894.667 633 858 611 c 0
 818 586.333 776.333 568.667 733 558 c 128
 689.667 547.333 641.667 542 589 542 c 0
 534.333 542 484.167 547 438.5 557 c 128
 392.833 567 350.333 581.333 311 600 c 1
 348 775 l 1
 365 775 l 1
 385 751.667 418.5 730.167 465.5 710.5 c 128
 512.5 690.833 562.333 681 615 681 c 0
 671 681 720 693.167 762 717.5 c 128
 804 741.833 830 778 840 826 c 0
 850 874 843 909.667 819 933 c 128
 795 956.333 748.333 968 679 968 c 2
 539 968 l 1
 569 1107 l 1
 694 1107 l 2
 752 1107 799.5 1119.67 836.5 1145 c 128
 873.5 1170.33 896.667 1205 906 1249 c 0
 914.667 1289 907.833 1320.83 885.5 1344.5 c 128
 863.167 1368.17 823 1380 765 1380 c 0
 721 1380 671.333 1369.67 616 1349 c 128
 560.667 1328.33 518 1306.33 488 1283 c 1
 471 1283 l 1
 508 1458 l 1
 554.667 1476 604.167 1490.67 656.5 1502 c 128
 708.833 1513.33 761.333 1519 814 1519 c 0
 915.333 1519 989.5 1495.67 1036.5 1449 c 128
 1083.5 1402.33 1100 1346.33 1086 1281 c 0
 1073.33 1223 1046.83 1175.17 1006.5 1137.5 c 128
 966.167 1099.83 918.667 1072.33 864 1055 c 1
 862 1047 l 1
 913.333 1036.33 954.5 1012.83 985.5 976.5 c 128
 1016.5 940.167 1025.33 890.667 1012 828 c 0
EndSplineSet
EndChar
StartChar: acute
Encoding: 118 180 120
OldEncoding: 180
Width: 1118
Flags: W
Fore
1227 1676 m 1
 874 1302 l 1
 725 1302 l 1
 984 1676 l 1
 1227 1676 l 1
EndSplineSet
EndChar
StartChar: mu
Encoding: 119 181 121
OldEncoding: 181
Width: 1163
Flags: W
Fore
1027 0 m 1
 855 0 l 1
 879 116 l 1
 873 116 l 1
 824.333 74 777.333 41.3333 732 18 c 128
 686.667 -5.33333 634 -17 574 -17 c 0
 512.667 -17 466.833 -5.33333 436.5 18 c 128
 406.167 41.3333 376.667 73.6667 348 115 c 1
 236 -412 l 1
 48 -412 l 1
 373 1117 l 1
 561 1117 l 1
 382 275 l 1
 402.667 241.667 431.833 214.833 469.5 194.5 c 128
 507.167 174.167 554.667 164 612 164 c 0
 672 164 724.667 173.667 770 193 c 128
 815.333 212.333 857.667 239.667 897 275 c 1
 1076 1117 l 1
 1264 1117 l 1
 1027 0 l 1
EndSplineSet
EndChar
StartChar: paragraph
Encoding: 120 182 122
OldEncoding: 182
Width: 1118
Flags: W
Fore
904 -363 m 1
 764 -363 l 1
 1130 1359 l 1
 943 1359 l 1
 577 -363 l 1
 437 -363 l 1
 641 593 l 1
 504.333 596.333 402.667 639.333 336 722 c 128
 269.333 804.667 250.667 914 280 1050 c 0
 309.333 1188 375.5 1295.67 478.5 1373 c 128
 581.5 1450.33 714 1489 876 1489 c 2
 1298 1489 l 1
 904 -363 l 1
EndSplineSet
EndChar
StartChar: periodcentered
Encoding: 121 183 123
OldEncoding: 183
Width: 724
Flags: W
Fore
658 832 m 1
 419 832 l 1
 480 1117 l 1
 719 1117 l 1
 658 832 l 1
EndSplineSet
EndChar
StartChar: cedilla
Encoding: 122 184 124
OldEncoding: 184
Width: 1118
Flags: W
Fore
771 20 m 1
 769 8 766.833 -7.16667 764.5 -25.5 c 128
 762.167 -43.8333 758.667 -65 754 -89 c 0
 730.667 -197 684 -279.667 614 -337 c 128
 544 -394.333 464.667 -423 376 -423 c 0
 351.333 -423 322.667 -421 290 -417 c 128
 257.333 -413 228.667 -407 204 -399 c 1
 238 -239 l 1
 247 -239 l 1
 261 -246.333 280.167 -253.833 304.5 -261.5 c 128
 328.833 -269.167 354.333 -273 381 -273 c 0
 443.667 -273 491.167 -259.833 523.5 -233.5 c 128
 555.833 -207.167 578.333 -165 591 -107 c 0
 596 -81 596 -81 601.5 -50 c 128
 607 -19 607 -19 614 20 c 1
 771 20 l 1
EndSplineSet
EndChar
StartChar: uni0E01
Encoding: 123 3585 125
OldEncoding: 3585
Width: 1240
Flags: W
Fore
1225 673 m 2
 1082 0 l 1
 862 0 l 1
 1001 657 l 1
 1039.67 838.333 979.667 929 821 929 c 0
 715 929 630 896.333 566 831 c 1
 632.667 795 672.667 739 686 663 c 1
 682 661 645 627.667 575 563 c 0
 535 525.667 505 459 485 363 c 1
 408 0 l 1
 188 0 l 1
 265 363 l 2
 283 448.333 305.333 509.333 332 546 c 0
 353.333 576 395.333 617.667 458 671 c 1
 422.667 727 365.333 767.333 286 792 c 1
 312.667 854.667 362 917 434 979 c 1
 563.333 1092.33 708 1149 868 1149 c 0
 1018 1149 1124.67 1102 1188 1008 c 0
 1242.67 926.667 1255 815 1225 673 c 2
EndSplineSet
EndChar
StartChar: uni0E02
Encoding: 124 3586 126
OldEncoding: 3586
Width: 1400
Flags: W
Fore
442 662 m 1
 461 660 l 1
 483.667 662 505.667 676 527 702 c 0
 533.667 710.667 538.667 718.667 542 726 c 1
 551 765 l 1
 554.333 793 544.667 812.667 522 824 c 0
 516 826.667 510.333 828 505 828 c 1
 489 825 l 1
 479 820.333 469.333 812.333 460 801 c 0
 450 789 440.333 773.667 431 755 c 0
 424.333 740.333 420 727.333 418 716 c 1
 416 694 l 1
 418 678 426.667 667.333 442 662 c 1
1047 771 m 1
 945 688.333 889 623 879 575 c 1
 820 298 l 2
 814 269.333 826 245.667 856 227 c 0
 874.667 215.667 896 210 920 210 c 0
 972 210 1011.67 225.333 1039 256 c 0
 1049.67 268.667 1056.67 282.667 1060 298 c 2
 1239 1139 l 1
 1459 1139 l 1
 1280 298 l 2
 1253.33 172.667 1187 84.3333 1081 33 c 0
 1020.33 4.33333 951 -10 873 -10 c 0
 770.333 -10 693.333 21 642 83 c 0
 595.333 140.333 581.333 212 600 298 c 1
 659 575 l 1
 669 623 722 685.667 818 763 c 0
 821.333 765.667 824.333 768.333 827 771 c 1
 834.333 823 828 865.667 808 899 c 0
 786 935 750.333 953 701 953 c 0
 695 953 688.667 952.667 682 952 c 0
 647.333 948.667 621 939 603 923 c 0
 601.667 922.333 600.667 921.333 600 920 c 1
 650 914 678 880.667 684 820 c 1
 685.333 796.667 683.333 772.667 678 748 c 0
 664.667 684.667 632.667 632 582 590 c 1
 551 568 l 1
 511 543.333 467 531 419 531 c 0
 411 531 403 531.333 395 532 c 0
 315 539.333 267.667 582 253 660 c 0
 246.333 697.333 248 740.333 258 789 c 0
 260 797.667 262.333 806.333 265 815 c 0
 295.667 911.667 347.333 987.667 420 1043 c 0
 504.667 1107 593 1142 685 1148 c 0
 696.333 1148.67 708 1149 720 1149 c 0
 812 1149 887.333 1128 946 1086 c 0
 962.667 1074.67 976 1062.33 986 1049 c 0
 1016.67 1011 1037.67 959.333 1049 894 c 0
 1055.67 850 1055 809 1047 771 c 1
EndSplineSet
EndChar
StartChar: uni0E03
Encoding: 125 3587 127
OldEncoding: 3587
Width: 1450
Flags: W
Fore
404 588 m 1
 423 586 l 1
 446.333 588 468.333 602 489 628 c 0
 496.333 636.667 501.333 644.667 504 652 c 1
 513 691 l 1
 516.333 719 506.667 738.667 484 750 c 0
 478.667 752.667 473.333 754 468 754 c 2
 451 751 l 1
 441.667 746.333 432 738.333 422 727 c 0
 412 715 402.333 699.667 393 681 c 1
 387 666.333 382.667 653.333 380 642 c 0
 374 614 382 596 404 588 c 1
860 929 m 1
 748.667 857 647.667 857 557 929 c 1
 533 903 517 882 509 866 c 0
 507.667 864.667 507 863.333 507 862 c 1
 585.667 862 631 826.667 643 756 c 0
 647.667 729.333 647 702 641 674 c 0
 627.667 610.667 595.333 558 544 516 c 0
 497.333 476.667 443.667 457 383 457 c 0
 374.333 457 365.667 457.333 357 458 c 0
 290.333 464 246.667 500.333 226 567 c 0
 213.333 608.333 212.333 653.667 223 703 c 0
 225.667 716.333 229 729 233 741 c 0
 261 821 289 881.667 317 923 c 0
 334.333 948.333 355.333 973.667 380 999 c 0
 428.667 1048.33 484.333 1090 547 1124 c 0
 568.333 1135.33 587.333 1143.67 604 1149 c 1
 740 1041 l 1
 907 1149 l 1
 949 1137 987 1111.67 1021 1073 c 0
 1027.67 1065 1033.67 1057 1039 1049 c 1
 1069.67 1011 1090.67 959.333 1102 894 c 0
 1108.67 850 1108 809 1100 771 c 1
 998 688.333 942 623 932 575 c 1
 873 298 l 2
 867 269.333 879 245.667 909 227 c 0
 927.667 215.667 949 210 973 210 c 0
 1025 210 1064.67 225.333 1092 256 c 0
 1102.67 268.667 1109.67 282.667 1113 298 c 2
 1292 1139 l 1
 1512 1139 l 1
 1333 298 l 2
 1306.33 172.667 1240 84.3333 1134 33 c 0
 1073.33 4.33333 1004 -10 926 -10 c 0
 823.333 -10 746.333 21 695 83 c 0
 648.333 140.333 634.333 212 653 298 c 1
 712 575 l 1
 722 623 771 679.667 859 745 c 0
 876 758 876 758 894 771 c 1
 898.667 806.333 894 845 880 887 c 0
 874.667 904.333 868 918.333 860 929 c 1
EndSplineSet
EndChar
StartChar: uni0E04
Encoding: 126 3588 128
OldEncoding: 3588
Width: 1370
Flags: W
Fore
895 565 m 1
 886.333 571 877.667 574 869 574 c 0
 848.333 574 824 558.667 796 528 c 0
 773.333 503.333 760 482 756 464 c 0
 752.667 448 757 435 769 425 c 0
 776.333 418.333 786 415 798 415 c 0
 825.333 415 852.333 429 879 457 c 0
 892.333 471.667 901 487.667 905 505 c 0
 909.667 527 906.333 547 895 565 c 1
502 384 m 1
 555.333 476 590.333 533 607 555 c 0
 615.667 567 625 578.667 635 590 c 0
 680.333 642.667 734 680 796 702 c 0
 822.667 711.333 848 716 872 716 c 0
 886 716 899.333 714.333 912 711 c 0
 949.333 701 980.333 676.333 1005 637 c 0
 1017.67 615.667 1024.67 595.667 1026 577 c 1
 1030.67 556.333 1030.67 535.333 1026 514 c 0
 1016.67 471.333 991 429.333 949 388 c 0
 901 341.333 855.667 314.667 813 308 c 1
 771 305 l 2
 769 305 769 305 766 305 c 0
 734.667 306.333 710.667 315 694 331 c 1
 692 333.667 690.333 336 689 338 c 1
 668.333 319.333 625.667 253.667 561 141 c 0
 519 66.3333 495.667 19.3333 491 0 c 1
 251 0 l 1
 273 108 l 1
 281 145.333 285.667 224.667 287 346 c 0
 288.333 492 297 603.333 313 680 c 0
 322.333 723.333 334.333 762.667 349 798 c 0
 395.667 908.667 470 994.667 572 1056 c 0
 656.667 1107.33 749 1137.33 849 1146 c 0
 872.333 1148 897.667 1149 925 1149 c 1
 994 1146 l 1
 1076.67 1137.33 1149.67 1113.33 1213 1074 c 0
 1263 1043.33 1299.67 1004.67 1323 958 c 0
 1354.33 898 1365.33 828.333 1356 749 c 0
 1353.33 727 1349 703 1343 677 c 1
 1200 0 l 1
 980 0 l 1
 1121 664 l 1
 1131.67 715.333 1132.33 754.667 1123 782 c 0
 1103 839.333 1060 881.333 994 908 c 0
 958 922 920.667 929 882 929 c 0
 807.333 929 734.333 905 663 857 c 0
 625 831.667 596.333 804 577 774 c 0
 553.667 738 536.667 695.667 526 647 c 0
 518.667 613 512.667 550.333 508 459 c 0
 506.667 427.667 504.667 402.667 502 384 c 1
EndSplineSet
EndChar
StartChar: uni0E05
Encoding: 127 3589 129
OldEncoding: 3589
Width: 1370
Flags: W
Fore
882 565 m 1
 873.333 571 864.333 574 855 574 c 0
 834.333 574 810 558.667 782 528 c 0
 760 503.333 747 482 743 464 c 0
 739.667 448 744 435 756 425 c 0
 763.333 418.333 772.667 415 784 415 c 0
 812 415 839.333 429 866 457 c 0
 879.333 471.667 887.667 487.667 891 505 c 0
 895.667 527 892.667 547 882 565 c 1
569 802 m 0
 545.667 766 528.333 721.333 517 668 c 0
 509 630 501.667 559.333 495 456 c 0
 493 426 491 402 489 384 c 1
 542.333 476 577 533 593 555 c 0
 602.333 567 612 578.667 622 590 c 0
 667.333 642.667 720.667 680 782 702 c 0
 808.667 711.333 834 716 858 716 c 0
 872.667 716 886.333 714.333 899 711 c 0
 935.667 701 966.667 676.333 992 637 c 1
 1004.67 615.667 1011.33 595.667 1012 577 c 1
 1017.33 556.333 1017.67 535.333 1013 514 c 0
 1003.67 471.333 977.667 429.333 935 388 c 0
 887 341.333 841.667 314.667 799 308 c 1
 758 305 l 2
 755 305 755 305 753 305 c 0
 721 306.333 697 315 681 331 c 0
 679 333.667 677.333 336 676 338 c 1
 654.667 319.333 612 253.667 548 141 c 0
 505.333 66.3333 482 19.3333 478 0 c 1
 238 0 l 1
 260 108 l 1
 268 145.333 273 228 275 356 c 0
 277.667 510 287.667 626.667 305 706 c 0
 314.333 750.667 326.667 790.667 342 826 c 0
 388 936.667 462.333 1022.67 565 1084 c 0
 625.667 1120.67 689.667 1142.33 757 1149 c 1
 896 1033 l 1
 1094 1149 l 1
 1200 1124.33 1274 1070 1316 986 c 1
 1354 913.333 1358.67 810.333 1330 677 c 1
 1187 0 l 1
 967 0 l 1
 1108 664 l 1
 1122.67 734 1125.33 782.667 1116 810 c 0
 1102 848.667 1077.67 881.667 1043 909 c 1
 845 795 l 1
 706 909 l 1
 646.667 886.333 601 850.667 569 802 c 0
EndSplineSet
EndChar
StartChar: uni0E06
Encoding: 128 3590 130
OldEncoding: 3590
Width: 1520
Flags: W
Fore
394 588 m 1
 413 586 l 1
 436.333 588 458.333 602 479 628 c 0
 486.333 636.667 491.333 644.667 494 652 c 1
 503 691 l 1
 506.333 719 496.667 738.667 474 750 c 0
 468.667 752.667 463.333 754 458 754 c 2
 441 751 l 1
 431.667 746.333 422 738.333 412 727 c 0
 402 715 392.333 699.667 383 681 c 1
 377 666.333 372.667 653.333 370 642 c 0
 364 614 372 596 394 588 c 1
891 430 m 1
 946.333 362.667 1003 311.667 1061 277 c 1
 1092.33 259.667 1118.67 250.667 1140 250 c 0
 1147.33 250 1155.33 251.667 1164 255 c 0
 1182 263 1194.33 277.667 1201 299 c 0
 1203 306.333 1209 332.333 1219 377 c 1
 1381 1139 l 1
 1601 1139 l 1
 1405 218 l 2
 1384.33 120.667 1343.67 55 1283 21 c 0
 1243.67 -1.66667 1202.67 -13 1160 -13 c 0
 1128.67 -13 1098.67 -6.66667 1070 6 c 0
 1028.67 24 973.333 57.3333 904 106 c 0
 873.333 128 849.667 147.333 833 164 c 1
 823 116 796.667 75.3333 754 42 c 0
 712.667 10 665.667 -7.33333 613 -10 c 2
 597 -10 l 2
 531 -8 481.667 11.6667 449 49 c 0
 443.667 55 438.667 61.3333 434 68 c 0
 414.667 94.6667 407.333 138 412 198 c 1
 418 249 l 1
 419.333 255 421 261 423 267 c 0
 446.333 345 489.667 407 553 453 c 0
 593 481.667 637.667 499.667 687 507 c 1
 702 575 l 1
 712 623 761 679.667 849 745 c 0
 866 758 866 758 884 771 c 1
 888.667 806.333 884 845 870 887 c 0
 864.667 904.333 858 918.333 850 929 c 1
 738.667 857 637.667 857 547 929 c 1
 523 903 507 882 499 866 c 0
 497.667 864.667 497 863.333 497 862 c 1
 575.667 862 621 826.667 633 756 c 0
 637.667 729.333 637 702 631 674 c 0
 617.667 610.667 585.333 558 534 516 c 0
 487.333 476.667 433.667 457 373 457 c 0
 364.333 457 355.667 457.333 347 458 c 0
 280.333 464 236.667 500.333 216 567 c 0
 203.333 608.333 202.333 653.667 213 703 c 0
 215.667 716.333 219 729 223 741 c 0
 251 821 279 881.667 307 923 c 0
 324.333 948.333 345.333 973.667 370 999 c 0
 418.667 1048.33 474.333 1090 537 1124 c 0
 558.333 1135.33 577.333 1143.67 594 1149 c 1
 730 1041 l 1
 897 1149 l 1
 939 1137 977 1111.67 1011 1073 c 1
 1029 1049 l 1
 1059.67 1011 1080.67 959.333 1092 894 c 0
 1098.67 850 1098 809 1090 771 c 1
 988.667 689 932.667 623.667 922 575 c 1
 891 430 l 1
662 317 m 1
 648 317 634.667 312.667 622 304 c 0
 594.667 285.333 576.667 257 568 219 c 0
 559.333 177 566 156 588 156 c 0
 609.333 156 624.333 167.333 633 190 c 0
 635.667 198 638.667 208.667 642 222 c 1
 662 317 l 1
EndSplineSet
EndChar
StartChar: uni0E07
Encoding: 129 3591 131
OldEncoding: 3591
Width: 1000
Flags: W
Fore
912 272 m 1
 888 157.333 828.333 76.6667 733 30 c 0
 679.667 3.33333 618.667 -10 550 -10 c 0
 388 -10 300 67.6667 286 223 c 0
 284.667 238.333 284 254.667 284 272 c 1
 297 719 l 1
 522 640 l 1
 514 312 l 1
 511.333 254.667 531.333 221.333 574 212 c 0
 580 210.667 586.667 210 594 210 c 0
 649.333 210 685 244 701 312 c 1
 796 759 l 1
 786.667 754.333 769.333 752 744 752 c 0
 737 752 737 752 733 752 c 0
 705.667 754.667 681 768 659 792 c 0
 630.333 823.333 621.667 866.667 633 922 c 0
 638.333 946.667 648 974 662 1004 c 0
 682.667 1047.33 717.333 1084 766 1114 c 0
 804.667 1137.33 847.667 1149 895 1149 c 0
 949.667 1148.33 991 1130.33 1019 1095 c 1
 1055 1051.67 1062.67 980.333 1042 881 c 1
 912 272 l 1
837 1026 m 0
 818.333 1026 799 1015.33 779 994 c 1
 765.667 977.333 757.333 959.667 754 941 c 0
 749.333 920.333 751 902 759 886 c 0
 768.333 866.667 782.667 857 802 857 c 0
 819.333 857 835.333 865.333 850 882 c 0
 860 894.667 868 915.667 874 945 c 0
 880.667 975 880.333 996 873 1008 c 128
 865.667 1020 853.667 1026 837 1026 c 0
EndSplineSet
EndChar
StartChar: uni0E08
Encoding: 130 3592 132
OldEncoding: 3592
Width: 1200
Flags: W
Fore
528 283 m 1
 547 373 l 1
 534.333 362.333 520 354.667 504 350 c 0
 489.333 346 475.333 344 462 344 c 0
 423.333 344.667 391.667 360.667 367 392 c 0
 339.667 425.333 332 469.333 344 524 c 0
 364.667 620.667 415.333 687 496 723 c 0
 521.333 733.667 548 741 576 745 c 0
 661.333 756.333 725.667 739.333 769 694 c 1
 804.333 653.333 813.667 594.333 797 517 c 1
 748 283 l 1
 737.333 234.333 752 210 792 210 c 0
 832 210 857 233 867 279 c 1
 955 695 l 1
 969.667 763 965.333 812 942 842 c 0
 904 890 855.333 918 796 926 c 0
 780 928 762.333 929 743 929 c 0
 655 929 569.667 901.333 487 846 c 0
 455.667 824.667 428.667 801 406 775 c 1
 301 929 l 1
 355.667 998.333 435 1054.33 539 1097 c 0
 623 1131.67 706 1149 788 1149 c 0
 973.333 1149 1097.67 1095 1161 987 c 0
 1198.33 923.667 1206.33 841.333 1185 740 c 1
 1087 279 l 1
 1045.67 86.3333 931.667 -10 745 -10 c 0
 558.333 -10 486 87.6667 528 283 c 1
546 625 m 0
 524 625 503.333 613.333 484 590 c 0
 473.333 577.333 466.667 564.667 464 552 c 0
 462 540 l 1
 462.667 498 470 472.333 484 463 c 0
 490.667 458.333 499.333 456 510 456 c 0
 546.667 458.667 570.333 484 581 532 c 0
 581.667 536 582.333 540.333 583 545 c 0
 594.333 598.333 582 625 546 625 c 0
EndSplineSet
EndChar
StartChar: uni0E09
Encoding: 131 3593 133
OldEncoding: 3593
Width: 1395
Flags: W
Fore
1044 714 m 1
 1064 806.667 1036.33 871 961 907 c 1
 920 922 l 1
 892 930 861 934 827 934 c 0
 737.667 934 651.667 907 569 853 c 0
 538.333 833.667 511.667 812 489 788 c 1
 380 942 l 1
 432.667 1006 509.667 1058 611 1098 c 0
 697.667 1132 783.667 1149 869 1149 c 0
 1044.33 1149 1164.33 1100.67 1229 1004 c 1
 1249 966 l 1
 1280.33 898 1285.33 813.667 1264 713 c 2
 1220 507 l 1
 1266.67 499.667 1304 481.667 1332 453 c 0
 1362.67 421 1377 371.333 1375 304 c 0
 1375 284 1372.67 264 1368 244 c 0
 1354 176 1330.33 122.667 1297 84 c 0
 1292.33 78 1287.33 72.6667 1282 68 c 0
 1232 24.6667 1179.67 -0.333333 1125 -7 c 0
 1114.33 -8.33333 1102.67 -9.33333 1090 -10 c 1
 1051 -8 l 1
 1009.67 -1.33333 977.667 15.3333 955 42 c 0
 927 75.3333 918 116 928 164 c 1
 863.333 118.667 786.667 74 698 30 c 1
 645 6 l 1
 611 -6.66667 578.333 -13 547 -13 c 0
 504.333 -13 468 -1.66667 438 21 c 0
 392 55 379.333 120.667 400 218 c 2
 437 393 l 1
 414.333 374.333 386.333 365 353 365 c 0
 298.333 365 261.667 389.333 243 438 c 0
 230.333 470 228.333 507.333 237 550 c 0
 242.333 574 250.667 598.333 262 623 c 0
 280.667 663 313.667 697.667 361 727 c 0
 403 753 445 766 487 766 c 0
 564.333 766 621.333 746 658 706 c 0
 692.667 667.333 702.667 613.333 688 544 c 2
 653 377 l 1
 641 321.667 635 290 635 282 c 0
 635.667 268.667 642.667 259.667 656 255 c 1
 674 253 l 1
 718.667 256.333 794.333 294.667 901 368 c 0
 930.333 388.667 958 409.333 984 430 c 1
 1044 714 l 1
435 645 m 0
 411 645 389.333 631.333 370 604 c 0
 360 590 353.667 575.333 351 560 c 0
 345.667 523.333 353 498 373 484 c 0
 381 478.667 390 476 400 476 c 0
 436 478.667 459 504.333 469 553 c 0
 469.667 556.333 470.333 560 471 564 c 0
 483 618 471 645 435 645 c 0
1163 317 m 1
 1143 222 l 1
 1135 186.667 1137.67 166 1151 160 c 1
 1155 157.333 1161 156 1169 156 c 0
 1191 156 1206.33 177 1215 219 c 0
 1222.33 257 1216.33 285.333 1197 304 c 0
 1188.33 312.667 1177 317 1163 317 c 1
EndSplineSet
EndChar
StartChar: uni0E0A
Encoding: 132 3594 134
OldEncoding: 3594
Width: 1390
Flags: W
Fore
436 662 m 1
 455 660 l 1
 477.667 662 499.667 676 521 702 c 0
 527.667 710.667 532.667 718.667 536 726 c 1
 545 765 l 1
 548.333 793 538.667 812.667 516 824 c 0
 510 826.667 504.333 828 499 828 c 1
 483 825 l 1
 473 820.333 463.333 812.333 454 801 c 0
 444 789 434.333 773.667 425 755 c 0
 418.333 740.333 414 727.333 412 716 c 0
 406 688 414 670 436 662 c 1
1030 719 m 1
 978.667 690.333 936.333 655 903 613 c 0
 883 588.333 870.667 565.667 866 545 c 1
 814 298 l 2
 808 269.333 820 245.667 850 227 c 0
 868.667 215.667 890 210 914 210 c 0
 966 210 1005.67 225.333 1033 256 c 0
 1043.67 268.667 1050.67 282.667 1054 298 c 2
 1107 546 l 1
 1116.33 592.667 1116.67 626 1108 646 c 0
 1102 658.667 1092 671.333 1078 684 c 1
 1036 715 l 2
 1034.67 716.333 1032.67 717.667 1030 719 c 1
1037 924 m 1
 1127 936 1200 969.667 1256 1025 c 0
 1296 1063.67 1321.67 1109.67 1333 1163 c 1
 1338 1188 l 1
 1573 1188 l 1
 1568 1164 l 2
 1551.33 1087.33 1509.67 1014.33 1443 945 c 0
 1385.67 885 1324.33 845 1259 825 c 1
 1319.67 781.667 1350 731 1350 673 c 0
 1349.33 659 1347.33 644.333 1344 629 c 2
 1274 298 l 2
 1247.33 172.667 1181 84.3333 1075 33 c 0
 1014.33 4.33333 945 -10 867 -10 c 0
 764.333 -10 687.333 21 636 83 c 0
 589.333 140.333 575.333 212 594 298 c 1
 653 575 l 1
 663 623 716 685.667 812 763 c 0
 815.333 765.667 818.333 768.333 821 771 c 1
 828.333 823 822 865.667 802 899 c 0
 780 935 744.333 953 695 953 c 0
 689 953 682.667 952.667 676 952 c 0
 641.333 948.667 615 939 597 923 c 0
 595.667 922.333 594.667 921.333 594 920 c 1
 644 914 672 880.667 678 820 c 1
 679.333 796.667 677.333 772.667 672 748 c 0
 658.667 684.667 626.667 632 576 590 c 0
 528 550.667 474 531 414 531 c 0
 405.333 531 397 531.333 389 532 c 0
 309 539.333 261.667 582 247 660 c 0
 240.333 697.333 242 740.333 252 789 c 0
 254 797.667 256.333 806.333 259 815 c 0
 289.667 911.667 341.333 987.667 414 1043 c 0
 498.667 1107 587 1142 679 1148 c 0
 690.333 1148.67 702 1149 714 1149 c 0
 806 1149 881.333 1128 940 1086 c 0
 956.667 1074.67 970 1062.33 980 1049 c 1
 1005.33 1018.33 1024.33 976.667 1037 924 c 1
EndSplineSet
EndChar
StartChar: uni0E0B
Encoding: 133 3595 135
OldEncoding: 3595
Width: 1450
Flags: W
Fore
404 588 m 1
 423 586 l 1
 446.333 588 468.333 602 489 628 c 0
 496.333 636.667 501.333 644.667 504 652 c 1
 513 691 l 1
 516.333 719 506.667 738.667 484 750 c 0
 478.667 752.667 473.333 754 468 754 c 2
 451 751 l 1
 441.667 746.333 432 738.333 422 727 c 0
 412 715 402.333 699.667 393 681 c 1
 387 666.333 382.667 653.333 380 642 c 0
 374 614 382 596 404 588 c 1
1044 1050 m 1
 1071.33 1016.67 1093 974.667 1109 924 c 1
 1199 936 1272 969.667 1328 1025 c 0
 1368 1063.67 1393.67 1109.67 1405 1163 c 1
 1410 1188 l 1
 1645 1188 l 1
 1640 1164 l 2
 1623.33 1087.33 1581.67 1014.33 1515 945 c 1
 1489.67 917.667 1462.33 894.333 1433 875 c 0
 1406.33 856.333 1378.67 842 1350 832 c 0
 1343.33 829.333 1337 827 1331 825 c 1
 1391.67 781.667 1422 731 1422 673 c 0
 1421.33 659 1419.33 644.333 1416 629 c 2
 1346 298 l 2
 1319.33 172.667 1253 84.3333 1147 33 c 0
 1086.33 4.33333 1017 -10 939 -10 c 0
 836.333 -10 759.333 21 708 83 c 0
 661.333 140.333 647.333 212 666 298 c 1
 725 575 l 1
 735 623 788 685.667 884 763 c 0
 887.333 765.667 890.333 768.333 893 771 c 1
 897.667 807 893.333 845.667 880 887 c 0
 874.667 904.333 868 918.333 860 929 c 1
 748.667 857 647.667 857 557 929 c 1
 533 903 517 882 509 866 c 0
 507.667 864.667 507 863.333 507 862 c 1
 585.667 862 631 826.667 643 756 c 0
 647.667 729.333 647 702 641 674 c 0
 627.667 610.667 595.333 558 544 516 c 0
 497.333 476.667 443.667 457 383 457 c 0
 374.333 457 365.667 457.333 357 458 c 0
 290.333 464 246.667 500.333 226 567 c 0
 213.333 608.333 212.333 653.667 223 703 c 0
 225.667 716.333 229 729 233 741 c 0
 261 821 289 881.667 317 923 c 0
 334.333 948.333 355.333 973.667 380 999 c 0
 428.667 1048.33 484.333 1090 547 1124 c 0
 568.333 1135.33 587.333 1143.67 604 1149 c 1
 740 1041 l 1
 907 1149 l 1
 942.333 1139 982 1112 1026 1068 c 0
 1036 1058 1036 1058 1044 1050 c 1
1102 719 m 1
 1050.67 690.333 1008.33 655 975 613 c 0
 955 588.333 942.667 565.667 938 545 c 1
 886 298 l 2
 880 269.333 892 245.667 922 227 c 0
 940.667 215.667 962 210 986 210 c 0
 1038 210 1077.67 225.333 1105 256 c 0
 1115.67 268.667 1122.67 282.667 1126 298 c 2
 1179 546 l 1
 1188.33 592.667 1188.67 626 1180 646 c 0
 1174 658.667 1164 671.333 1150 684 c 1
 1108 715 l 2
 1106.67 716.333 1104.67 717.667 1102 719 c 1
EndSplineSet
EndChar
StartChar: uni0E0C
Encoding: 134 3596 136
OldEncoding: 3596
Width: 1750
Flags: W
Fore
999 657 m 2
 1037.67 838.333 977.667 929 819 929 c 0
 713 929 628 896.333 564 831 c 1
 630.667 795 670.667 739 684 663 c 1
 680 661 643 627.667 573 563 c 0
 533 525.667 503.667 463.333 485 376 c 1
 483 363 l 1
 504.333 381.667 530 391 560 391 c 0
 578.667 391.667 596.667 388 614 380 c 0
 633.333 371.333 649 359.333 661 344 c 0
 688.333 310 695.667 264 683 206 c 1
 679 182 670.667 157.667 658 133 c 0
 629.333 76.3333 585.667 35.3333 527 10 c 0
 494.333 -3.33333 460.667 -10 426 -10 c 0
 378 -9.33333 341.667 -3 317 9 c 0
 297 19.6667 277.667 35.3333 259 56 c 0
 229 90 222.667 156 240 254 c 0
 242.667 268.667 246 285 250 303 c 1
 263 366 l 1
 281 449.333 303.333 509.333 330 546 c 0
 351.333 576 393.333 617.667 456 671 c 1
 420.667 727 363.333 767.333 284 792 c 1
 310.667 854.667 360 917 432 979 c 1
 561.333 1092.33 706 1149 866 1149 c 0
 1016 1149 1122.67 1102 1186 1008 c 0
 1240 928 1252 816.333 1222 673 c 1
 1170 430 l 1
 1228 359.333 1269 313.667 1293 293 c 0
 1325 264.333 1353 250 1377 250 c 0
 1384.33 250 1391.67 251.667 1399 255 c 0
 1417 263 1429.33 277.667 1436 299 c 0
 1438 306.333 1444 332.333 1454 377 c 1
 1616 1139 l 1
 1835 1139 l 1
 1639 218 l 2
 1618.33 120.667 1577.67 55 1517 21 c 0
 1477.67 -1.66667 1436.67 -13 1394 -13 c 0
 1362.67 -13 1332.67 -6.66667 1304 6 c 0
 1267.33 22 1203.67 74.6667 1113 164 c 1
 1103 116 1076.67 75.3333 1034 42 c 0
 992.667 10 945.667 -7.33333 893 -10 c 2
 877 -10 l 2
 811 -8 761.667 11.6667 729 49 c 0
 723.667 55 718.667 61.3333 714 68 c 0
 694.667 94.6667 687.333 138 692 198 c 1
 698 249 l 1
 699.333 255 701 261 703 267 c 0
 726.333 345 769.667 407 833 453 c 0
 873 481.667 917.667 499.667 967 507 c 1
 999 657 l 2
942 317 m 1
 928 317 914.667 312.667 902 304 c 0
 874.667 285.333 856.667 257 848 219 c 0
 839.333 177 846 156 868 156 c 0
 889.333 156 904.333 167.333 913 190 c 0
 915.667 198 918.667 208.667 922 222 c 1
 942 317 l 1
472 110 m 0
 497.333 110 519.333 124 538 152 c 0
 546.667 164.667 552.667 179 556 195 c 0
 562.667 237.667 553.667 264.667 529 276 c 0
 523 278.667 516 280 508 280 c 0
 477.333 280 455.667 260 443 220 c 0
 441.667 215.333 440.333 210 439 204 c 0
 425.667 141.333 436.667 110 472 110 c 0
EndSplineSet
EndChar
StartChar: uni0E0D
Encoding: 135 3597 137
OldEncoding: 3597
Width: 1745
Flags: W
Fore
1200 310 m 2
 1192.67 275.333 1201 248.333 1225 229 c 0
 1241 216.333 1262 210 1288 210 c 0
 1365.33 210 1411 243.333 1425 310 c 1
 1602 1139 l 1
 1822 1139 l 1
 1631 241 l 2
 1613 157 1559.33 91.3333 1470 44 c 0
 1401.33 8 1327 -10 1247 -10 c 0
 1241 -10 l 0
 1147.67 -8.66667 1074.67 16.6667 1022 66 c 0
 970 114 951.667 175 967 249 c 1
 1054 657 l 2
 1092.67 838.333 1032.67 929 874 929 c 0
 768 929 683 896.333 619 831 c 1
 685.667 795 725.667 739 739 663 c 1
 735 661 698 627.667 628 563 c 0
 588 525.667 558.667 463.333 540 376 c 1
 538 363 l 1
 559.333 381.667 585 391 615 391 c 0
 633.667 391.667 651.667 388 669 380 c 0
 688.333 371.333 704 359.333 716 344 c 0
 743.333 310 750.667 264 738 206 c 1
 734 182 725.667 157.667 713 133 c 0
 684.333 76.3333 640.667 35.3333 582 10 c 0
 549.333 -3.33333 515.667 -10 481 -10 c 0
 433 -9.33333 396.667 -3 372 9 c 0
 352 19.6667 332.667 35.3333 314 56 c 0
 284 90 277.667 156 295 254 c 0
 297.667 268.667 301 285 305 303 c 1
 318 366 l 1
 336 449.333 358.333 509.333 385 546 c 0
 406.333 576 448.333 617.667 511 671 c 1
 475.667 727 418.333 767.333 339 792 c 1
 365.667 854.667 415 917 487 979 c 1
 616.333 1092.33 761 1149 921 1149 c 0
 1071 1149 1177.67 1102 1241 1008 c 0
 1295.67 926.667 1308 815 1278 673 c 1
 1200 310 l 2
527 110 m 0
 552.333 110 574.333 124 593 152 c 0
 601.667 164.667 607.667 179 611 195 c 0
 617.667 237.667 608.667 264.667 584 276 c 0
 578 278.667 571 280 563 280 c 0
 532.333 280 510.667 260 498 220 c 0
 496.667 215.333 495.333 210 494 204 c 0
 480.667 141.333 491.667 110 527 110 c 0
1099 -22 m 0
 1158.33 -24.6667 1196.67 -48 1214 -92 c 0
 1223.33 -116 1224.67 -144.667 1218 -178 c 0
 1216.67 -184.667 1214.67 -191.333 1212 -198 c 1
 1205.33 -222.667 1189.33 -245 1164 -265 c 1
 1266 -246.333 1344 -195.667 1398 -113 c 0
 1414 -88.3333 1426.67 -62 1436 -34 c 1
 1603 -48 l 1
 1581.67 -137.333 1532.67 -216.667 1456 -286 c 1
 1416 -319 l 1
 1354.67 -363.667 1288.67 -393.333 1218 -408 c 0
 1187.33 -414 1156.33 -417 1125 -417 c 0
 997 -417 918.667 -378 890 -300 c 0
 888 -294 886.333 -288 885 -282 c 0
 879 -256 879 -228.333 885 -199 c 0
 899 -138.333 929.333 -91.3333 976 -58 c 0
 1009.33 -34 1047 -22 1089 -22 c 0
 1099 -22 l 0
1021 -235 m 1
 1039 -237 l 1
 1062.33 -235 1080 -224 1092 -204 c 0
 1094 -201.333 1095.67 -198.667 1097 -196 c 1
 1101 -176 l 1
 1102.33 -154 1093.67 -139.667 1075 -133 c 0
 1073.67 -133 1072.33 -132.667 1071 -132 c 2
 1050 -130 l 1
 1031 -136 l 2
 1021 -140 1013 -146.333 1007 -155 c 2
 997 -171 l 1
 992 -191 l 1
 989.333 -212.333 999 -227 1021 -235 c 1
EndSplineSet
EndChar
StartChar: uni0E0E
Encoding: 136 3598 138
OldEncoding: 3598
Width: 1375
Flags: W
Fore
1145 657 m 1
 1183.67 838.333 1123.67 929 965 929 c 0
 859 929 774 896.333 710 831 c 1
 776.667 795 816.667 739 830 663 c 1
 826 661 789 627.667 719 563 c 0
 679 525.667 649.667 463.333 631 376 c 1
 616 303 l 1
 592.667 193.667 562.333 118.667 525 78 c 0
 518.333 70 510.333 62.6667 501 56 c 0
 448.333 15.3333 394.667 -6.33333 340 -9 c 0
 332.667 -9.66667 321.333 -10 306 -10 c 0
 232 -10 181 17.6667 153 73 c 0
 143.667 91 138 111 136 133 c 0
 134 157.667 135.667 182 141 206 c 0
 153.667 264 181 310 223 344 c 0
 261 375.333 301 391 343 391 c 0
 355.667 391.667 367.667 390 379 386 c 0
 391.667 380.667 401.667 373 409 363 c 1
 413 384 l 1
 428.333 455.333 449.333 509.333 476 546 c 0
 497.333 576 539.333 617.667 602 671 c 1
 566.667 727 509.333 767.333 430 792 c 1
 456.667 854.667 506 917 578 979 c 1
 707.333 1092.33 852 1149 1012 1149 c 0
 1162 1149 1268.67 1102 1332 1008 c 0
 1386.67 926.667 1399 815 1369 673 c 1
 1138 -410 l 1
 918 -410 l 1
 876 -321.333 825 -258 765 -220 c 1
 703.667 -302.667 637 -361 565 -395 c 1
 561.667 -395.667 559 -396.667 557 -398 c 0
 508.333 -419.333 456 -430 400 -430 c 0
 314 -430 255.333 -405 224 -355 c 0
 222.667 -353.667 221.667 -352 221 -350 c 0
 205.667 -322.667 201.667 -291 209 -255 c 0
 213.667 -235 221.333 -214.333 232 -193 c 0
 263.333 -133.667 309.667 -85 371 -47 c 0
 393 -33.6667 414.667 -23.3333 436 -16 c 0
 486 1.33333 537.667 10 591 10 c 0
 639.667 10 687.667 2.66667 735 -12 c 1
 850 142 l 1
 974 88 l 1
 863 -67 l 1
 893.667 -79.6667 925.333 -103 958 -137 c 0
 964 -143.667 969 -149.667 973 -155 c 1
 1145 657 l 1
312 110 m 0
 347.333 110 371.667 141.333 385 204 c 0
 394.333 248.667 385.333 273.667 358 279 c 0
 354.667 279.667 351.333 280 348 280 c 0
 318.667 280 295 262 277 226 c 0
 271.667 216.667 267.333 206.333 264 195 c 0
 256 159 263 133.333 285 118 c 0
 293 112.667 302 110 312 110 c 0
401 -252 m 0
 407 -266 420 -273 440 -273 c 0
 464 -273 495.667 -263 535 -243 c 0
 549 -236.333 570.667 -217.667 600 -187 c 0
 612.667 -173.667 622 -162.667 628 -154 c 1
 614 -139.333 590.333 -132 557 -132 c 0
 554 -132 554 -132 550 -132 c 0
 513.333 -134 479 -144.667 447 -164 c 1
 426.333 -178 411.333 -196 402 -218 c 1
 398 -237 l 1
 397.333 -242.333 398.333 -247.333 401 -252 c 0
EndSplineSet
EndChar
StartChar: uni0E0F
Encoding: 137 3599 139
OldEncoding: 3599
Width: 1375
Flags: W
Fore
311 110 m 0
 346.333 110 370.667 141.333 384 204 c 0
 393.333 248.667 384.333 273.667 357 279 c 0
 353.667 279.667 350.333 280 347 280 c 0
 317.667 280 294 262 276 226 c 0
 270.667 216.667 266.333 206.333 263 195 c 0
 255 159 262 133.333 284 118 c 0
 292 112.667 301 110 311 110 c 0
1144 657 m 1
 1182 838.333 1122 929 964 929 c 0
 858 929 773 896.333 709 831 c 1
 775.667 795 815.667 739 829 663 c 1
 825 661 788 627.667 718 563 c 0
 678 525.667 648.667 463.333 630 376 c 1
 615 303 l 1
 591.667 193.667 561.333 118.667 524 78 c 0
 517.333 70 509.333 62.6667 500 56 c 0
 447.333 15.3333 393.667 -6.33333 339 -9 c 0
 331.667 -9.66667 320.333 -10 305 -10 c 0
 231 -10 180 17.6667 152 73 c 0
 142.667 91 137 111 135 133 c 0
 133 157.667 134.667 182 140 206 c 0
 152.667 264 180 310 222 344 c 0
 260 375.333 300 391 342 391 c 0
 354.667 391.667 366.667 390 378 386 c 0
 390.667 380.667 400.667 373 408 363 c 1
 412 384 l 1
 427.333 455.333 448.333 509.333 475 546 c 0
 496.333 576 538.333 617.667 601 671 c 1
 565.667 727 508.333 767.333 429 792 c 1
 455.667 854.667 505 917 577 979 c 1
 706.333 1092.33 851 1149 1011 1149 c 0
 1161 1149 1267.67 1102 1331 1008 c 0
 1385.67 926.667 1398 815 1368 673 c 1
 1137 -410 l 1
 920 -410 l 1
 921.333 -314 900.667 -259.667 858 -247 c 1
 840 -245 l 1
 809.333 -245 766.333 -283.333 711 -360 c 0
 701 -374 691.333 -388.333 682 -403 c 1
 659.333 -343 639.667 -303.333 623 -284 c 0
 615 -276 l 1
 573 -323.333 532 -359.333 492 -384 c 0
 442.667 -414 384.667 -429 318 -429 c 0
 302 -429 286.333 -428 271 -426 c 0
 210.333 -418.667 169.333 -390.333 148 -341 c 0
 134 -309.667 131.333 -274 140 -234 c 0
 155.333 -162 201 -103 277 -57 c 0
 341.667 -19 410 0.333333 482 1 c 1
 532 -3 l 1
 563.333 -7.66667 593.667 -17.3333 623 -32 c 1
 741 119 l 1
 858 73 l 1
 740 -90 l 1
 746.667 -96.6667 752.667 -107.333 758 -122 c 1
 792.667 -77.3333 826.333 -44.3333 859 -23 c 0
 871.667 -14.3333 882 -10 890 -10 c 0
 919.333 -10 953.333 -27 992 -61 c 1
 1144 657 l 1
301 -268 m 0
 310.333 -284.667 326 -293 348 -293 c 0
 371.333 -293 403.333 -283 444 -263 c 1
 458.667 -254.333 479.333 -235 506 -205 c 0
 518 -191.667 526.333 -181 531 -173 c 1
 519 -159 490.333 -152 445 -152 c 0
 409.667 -152 377.667 -160 349 -176 c 0
 331 -186.667 316 -202.667 304 -224 c 1
 296 -245 l 1
 295.333 -251.667 296.333 -257.667 299 -263 c 1
 299 -265 299.667 -266.667 301 -268 c 0
EndSplineSet
EndChar
StartChar: uni0E10
Encoding: 138 3600 140
OldEncoding: 3600
Width: 1130
Flags: W
Fore
921 529 m 1
 928.333 562.333 918.667 587 892 603 c 1
 820 636 l 1
 718.667 672 551 707.333 317 742 c 1
 353.667 829.333 396 901 444 957 c 0
 494 1015.67 555.667 1063 629 1099 c 0
 697 1132.33 778.333 1149 873 1149 c 0
 949.667 1149 1018 1133.67 1078 1103 c 0
 1129.33 1077 1186 1064 1248 1064 c 0
 1274.67 1064 1300 1066.67 1324 1072 c 1
 1241 862 l 1
 1223 858 1202.67 856 1180 856 c 0
 1158.67 855.333 1137 857 1115 861 c 0
 1075 867 1043 876.333 1019 889 c 0
 964.333 917.667 903.667 934.667 837 940 c 2
 818 941 l 2
 745.333 941 695.667 924.667 669 892 c 1
 863.667 852.667 991.667 814.667 1053 778 c 0
 1136.33 728 1168.67 659.667 1150 573 c 1
 1088 279 l 1
 1046.67 86.3333 932.667 -10 746 -10 c 0
 559.333 -10 487 87.6667 529 283 c 1
 530 289 l 1
 518 278.333 503.667 270.667 487 266 c 0
 472.333 262 458.333 260 445 260 c 0
 406.333 260.667 374.667 276.667 350 308 c 0
 323.333 341.333 315.667 385.333 327 440 c 0
 347.667 536.667 398.333 603 479 639 c 0
 504.333 649.667 531 657 559 661 c 0
 645 672.333 709.333 655.333 752 610 c 1
 787.333 569.333 797 510.333 781 433 c 1
 749 283 l 1
 738.333 234.333 753 210 793 210 c 0
 833 210 858 233 868 279 c 1
 921 529 l 1
529 541 m 0
 505 541 483.667 528 465 502 c 0
 455.667 489.333 449.333 475.333 446 460 c 0
 446 458.667 445.667 457.333 445 456 c 0
 436.333 404.667 449.667 377 485 373 c 0
 487.667 372.333 490.667 372 494 372 c 0
 530 374.667 553.333 400 564 448 c 0
 564.667 452 565.333 456.333 566 461 c 0
 577.333 514.333 565 541 529 541 c 0
679 -319 m 1
 688 -273 l 1
 661 -276 l 1
 627 -274.667 600.667 -264.667 582 -246 c 0
 560.667 -226 553.333 -200 560 -168 c 0
 562.667 -153.333 568.667 -138.667 578 -124 c 1
 592 -95.3333 619.333 -71.6667 660 -53 c 0
 686.667 -40.3333 712.667 -34 738 -34 c 0
 794 -34 835.667 -44.6667 863 -66 c 0
 891.667 -88 902 -128.333 894 -187 c 0
 891 -203 891 -203 887 -223 c 1
 822 -530 l 1
 639 -530 l 1
 629.667 -480 606.333 -453.333 569 -450 c 1
 539 -450 501.333 -473.333 456 -520 c 0
 452 -524 452 -524 447 -529 c 1
 431 -496.333 404.667 -459.333 368 -418 c 1
 334 -452.667 294 -482.667 248 -508 c 1
 202.667 -530 158 -541 114 -541 c 0
 72 -541 38 -530.667 12 -510 c 0
 2 -501.333 -6.66667 -490.667 -14 -478 c 0
 -23.3333 -462.667 -25 -441.333 -19 -414 c 0
 -13 -382.667 0.333333 -353.333 21 -326 c 0
 30.3333 -313.333 40.3333 -302.667 51 -294 c 0
 101.667 -255.333 161.333 -235.333 230 -234 c 0
 270.667 -234 302.667 -239 326 -249 c 0
 336.667 -253.667 343.667 -256.667 347 -258 c 1
 386 -217 l 2
 392.667 -210.333 399.667 -202 407 -192 c 1
 517 -239 l 1
 459 -306 l 1
 465 -309.333 476 -319.333 492 -336 c 1
 524 -300 561.667 -282 605 -282 c 0
 636.333 -282 661 -294.333 679 -319 c 1
709 -106 m 1
 686.333 -106 668.333 -116 655 -136 c 0
 651 -142 648.333 -148.333 647 -155 c 0
 645 -161.667 644.667 -168 646 -174 c 0
 649.333 -193.333 661.667 -203.667 683 -205 c 0
 687 -205 l 0
 709 -205 725.333 -195.333 736 -176 c 1
 743 -158 l 1
 748.333 -130.667 740.667 -114 720 -108 c 2
 709 -106 l 1
111 -418 m 0
 119 -429.333 130.333 -435 145 -435 c 0
 153.667 -435 163.333 -433.333 174 -430 c 0
 183.333 -427.333 194.333 -423.333 207 -418 c 0
 220.333 -412 239 -397.333 263 -374 c 0
 268.333 -369.333 273 -364.667 277 -360 c 1
 265.667 -350.667 246.667 -346 220 -346 c 0
 193.333 -346 168.333 -351.333 145 -362 c 1
 123.667 -374 111.333 -387.333 108 -402 c 0
 106.667 -408 107.667 -413.333 111 -418 c 0
EndSplineSet
EndChar
StartChar: uni0E11
Encoding: 139 3601 141
OldEncoding: 3601
Width: 1700
Flags: W
Fore
459 588 m 1
 478 586 l 1
 501.333 588 523.333 602 544 628 c 0
 551.333 636.667 556.333 644.667 559 652 c 1
 568 691 l 1
 571.333 719 561.667 738.667 539 750 c 0
 533.667 752.667 528.333 754 523 754 c 2
 506 751 l 1
 496.667 746.333 487 738.333 477 727 c 0
 467 715 457.333 699.667 448 681 c 1
 442 666.333 437.667 653.333 435 642 c 0
 429 614 437 596 459 588 c 1
645 0 m 1
 767 575 l 1
 777 623 826 679.667 914 745 c 0
 931 758 931 758 949 771 c 1
 953.667 806.333 949 845 935 887 c 0
 929.667 904.333 923 918.333 915 929 c 1
 803.667 857 702.667 857 612 929 c 1
 588 903 572 882 564 866 c 0
 562.667 864.667 562 863.333 562 862 c 1
 640.667 862 686 826.667 698 756 c 0
 702.667 729.333 702 702 696 674 c 0
 682.667 610.667 650.333 558 599 516 c 0
 552.333 476.667 498.667 457 438 457 c 0
 429.333 457 420.667 457.333 412 458 c 0
 345.333 464 301.667 500.333 281 567 c 0
 268.333 608.333 267.333 653.667 278 703 c 0
 280.667 716.333 284 729 288 741 c 0
 316 821 344 881.667 372 923 c 0
 389.333 948.333 410.333 973.667 435 999 c 0
 483.667 1048.33 539.333 1090 602 1124 c 0
 623.333 1135.33 642.333 1143.67 659 1149 c 1
 795 1041 l 1
 962 1149 l 1
 1004 1137 1042 1111.67 1076 1073 c 1
 1094 1049 l 1
 1124.67 1011 1145.67 959.333 1157 894 c 0
 1163.67 850 1163 809 1155 771 c 1
 1053 688.333 997 623 987 575 c 2
 952 410 l 1
 1351 990 l 1
 1401.67 1068 1465.33 1115 1542 1131 c 0
 1557.33 1134.33 1572.67 1136 1588 1136 c 0
 1607.33 1135.33 1625 1132.67 1641 1128 c 0
 1701.67 1110 1735.33 1067.33 1742 1000 c 0
 1745.33 973.333 1743.33 943.333 1736 910 c 1
 1543 0 l 1
 1323 0 l 1
 1463 659 l 1
 1473.67 710.333 1477.67 740.333 1475 749 c 0
 1473.67 753 1470.33 757 1465 761 c 0
 1461.67 763.667 1458 765 1454 765 c 1
 1439 761 l 1
 1426 753 l 2
 1422 749.667 1419 746 1417 742 c 1
 919 0 l 1
 645 0 l 1
EndSplineSet
EndChar
StartChar: uni0E12
Encoding: 140 3602 142
OldEncoding: 3602
Width: 1850
Flags: W
Fore
1316 677 m 1
 1264 430 l 1
 1322 359.333 1363 313.667 1387 293 c 0
 1419 264.333 1447 250 1471 250 c 0
 1478.33 250 1485.67 251.667 1493 255 c 0
 1511 263 1523.33 277.667 1530 299 c 0
 1532 306.333 1538 332.333 1548 377 c 1
 1710 1139 l 1
 1929 1139 l 1
 1733 218 l 2
 1712.33 120.667 1671.67 55 1611 21 c 0
 1571.67 -1.66667 1530.67 -13 1488 -13 c 0
 1456.67 -13 1426.67 -6.66667 1398 6 c 0
 1361.33 22 1297.67 74.6667 1207 164 c 1
 1197 116 1170.67 75.3333 1128 42 c 0
 1086 8.66667 1039.67 -8.66667 989 -10 c 2
 971 -10 l 1
 925.667 -6.66667 890.667 7.33333 866 32 c 1
 840 63 l 1
 839.333 65 838.333 66.6667 837 68 c 0
 817.667 94.6667 810.333 138 815 198 c 1
 821 249 l 1
 822.333 255 824 261 826 267 c 0
 849.333 344.333 889.667 404.333 947 447 c 0
 949.667 449 952.667 451 956 453 c 0
 986.667 473.667 1021.33 491.667 1060 507 c 1
 1094 664 l 1
 1108.67 734 1111.33 782.667 1102 810 c 0
 1088.67 848.667 1064.33 881.667 1029 909 c 1
 831 793 l 1
 692 909 l 1
 633.333 886.333 588 850.667 556 802 c 0
 528.667 761.333 508.667 710.667 496 650 c 0
 475.333 554 473.667 421.333 491 252 c 1
 492 234 l 1
 526 246 562 272 600 312 c 0
 612.667 326 622.333 338.333 629 349 c 1
 609 349 l 1
 586.333 353 566.667 362.667 550 378 c 0
 515.333 409.333 500.333 450 505 500 c 1
 513 547 l 1
 531.667 629 574.667 685.333 642 716 c 1
 672 734.667 710.333 744 757 744 c 0
 791 744 818.333 738.333 839 727 c 0
 903 693 923.667 622.333 901 515 c 0
 898.333 503 895.333 490.333 892 477 c 0
 853.333 339 773 220 651 120 c 0
 641 111.333 630.667 103 620 95 c 0
 562.667 52.3333 510.667 20.6667 464 0 c 1
 224 0 l 1
 246 108 l 1
 254 145.333 259.333 228 262 356 c 0
 264.667 510 274.667 626.667 292 706 c 0
 301.333 750.667 313.333 790.667 328 826 c 0
 374.667 936.667 449 1022.67 551 1084 c 0
 611.667 1120.67 675.667 1142.33 743 1149 c 1
 882 1033 l 1
 1080 1149 l 1
 1186 1124.33 1260 1070 1302 986 c 1
 1340 913.333 1344.67 810.333 1316 677 c 1
1036 317 m 1
 1022 317 1008.67 312.667 996 304 c 0
 968.667 285.333 950.667 257 942 219 c 0
 933.333 177 940 156 962 156 c 0
 983.333 156 998.333 167.333 1007 190 c 0
 1009.67 198 1012.67 208.667 1016 222 c 1
 1036 317 l 1
700 624 m 1
 681 620 l 1
 661 612.667 647.333 605 640 597 c 0
 624.667 580.333 614.667 563.333 610 546 c 0
 603.333 525.333 602.667 506.333 608 489 c 0
 616 467.667 629 456.333 647 455 c 0
 665.667 453.667 682.667 460.667 698 476 c 0
 709.333 488 719.333 508.333 728 537 c 0
 736.667 567 738 588.667 732 602 c 1
 724.667 614.667 714 622 700 624 c 1
EndSplineSet
EndChar
StartChar: uni0E13
Encoding: 141 3603 143
OldEncoding: 3603
Width: 1900
Flags: W
Fore
1235 673 m 1
 1172 377 l 1
 1160 322.333 1154.67 290.333 1156 281 c 0
 1157.33 269.667 1163.67 261 1175 255 c 0
 1181 251.667 1188 250 1196 250 c 0
 1233.33 250.667 1303.67 291.667 1407 373 c 0
 1408.33 374.333 1432 393.333 1478 430 c 1
 1629 1139 l 1
 1848 1139 l 1
 1713 507 l 1
 1759.67 499.667 1797 481.667 1825 453 c 0
 1868.33 407 1885 345 1875 267 c 1
 1865 220 l 1
 1847.67 161.333 1823 114.333 1791 79 c 0
 1785 73 1785 73 1780 68 c 0
 1730 23.3333 1674 -2 1612 -8 c 2
 1583 -10 l 1
 1544 -7 l 1
 1502.67 -0.333333 1470.67 16 1448 42 c 0
 1420 75.3333 1411 116 1421 164 c 1
 1293 74.6667 1207.33 22 1164 6 c 0
 1130 -6.66667 1097.33 -13 1066 -13 c 0
 1023.33 -13 987 -1.66667 957 21 c 0
 911 55 898.333 120.667 919 218 c 2
 1012 657 l 1
 1050.67 838.333 990.667 929 832 929 c 0
 726 929 641 896.333 577 831 c 1
 643.667 795 683.667 739 697 663 c 1
 693 661 656 627.667 586 563 c 0
 546 525.667 516.667 463.333 498 376 c 1
 496 363 l 1
 517.333 381.667 543 391 573 391 c 0
 591.667 391.667 609.667 388 627 380 c 0
 646.333 371.333 662 359.333 674 344 c 0
 701.333 310 708.667 264 696 206 c 1
 692 182 683.667 157.667 671 133 c 0
 642.333 76.3333 598.667 35.3333 540 10 c 0
 507.333 -3.33333 473.667 -10 439 -10 c 0
 391 -9.33333 354.667 -3 330 9 c 0
 310 19.6667 290.667 35.3333 272 56 c 0
 242 90 235.667 156 253 254 c 0
 255.667 268.667 259 285 263 303 c 1
 276 366 l 1
 294 449.333 316.333 509.333 343 546 c 0
 364.333 576 406.333 617.667 469 671 c 1
 433.667 727 376.333 767.333 297 792 c 1
 323.667 854.667 373 917 445 979 c 1
 574.333 1092.33 719 1149 879 1149 c 0
 1029 1149 1135.67 1102 1199 1008 c 0
 1253 928 1265 816.333 1235 673 c 1
1658 317 m 1
 1638 222 l 1
 1630 186.667 1632.67 166 1646 160 c 1
 1650 157.333 1656 156 1664 156 c 0
 1686 156 1701.33 177 1710 219 c 0
 1717.33 257 1711.33 285.333 1692 304 c 0
 1683.33 312.667 1672 317 1658 317 c 1
485 110 m 0
 510.333 110 532.333 124 551 152 c 0
 559.667 164.667 565.667 179 569 195 c 0
 575.667 237.667 566.667 264.667 542 276 c 0
 536 278.667 529 280 521 280 c 0
 490.333 280 468.667 260 456 220 c 0
 454.667 215.333 453.333 210 452 204 c 0
 438.667 141.333 449.667 110 485 110 c 0
EndSplineSet
EndChar
StartChar: uni0E14
Encoding: 142 3604 144
OldEncoding: 3604
Width: 1330
Flags: W
Fore
711 624 m 1
 673.667 618 646.333 599.333 629 568 c 0
 625 560.667 622 553.333 620 546 c 1
 615 517 l 1
 614.333 485 625 465 647 457 c 0
 650.333 455.667 654 455 658 455 c 2
 679 457 l 1
 705 464.333 725 491 739 537 c 1
 746 573 l 1
 748.667 603 737 620 711 624 c 1
462 0 m 1
 222 0 l 1
 244 108 l 1
 252 145.333 256.667 224.667 258 346 c 0
 259.333 492 268 603.333 284 680 c 0
 293.333 723.333 305.333 762.667 320 798 c 0
 366.667 908.667 441 994.667 543 1056 c 0
 627.667 1107.33 720 1137.33 820 1146 c 0
 843.333 1148 868.667 1149 896 1149 c 1
 965 1146 l 1
 1047.67 1137.33 1120.67 1113.33 1184 1074 c 0
 1234 1043.33 1270.67 1004.67 1294 958 c 0
 1325.33 898 1336.33 828.333 1327 749 c 0
 1324.33 727 1320 703 1314 677 c 1
 1171 0 l 1
 951 0 l 1
 1092 664 l 1
 1102.67 715.333 1103.33 754.667 1094 782 c 0
 1074 839.333 1031 881.333 965 908 c 0
 929 922 891.667 929 853 929 c 0
 777.667 929 704 904.667 632 856 c 0
 594.667 830 566.667 802.667 548 774 c 0
 520.667 733.333 501 684.333 489 627 c 0
 471 543 470 426.333 486 277 c 1
 490 234 l 1
 524 246 560 272 598 312 c 0
 610.667 326 620.333 338.333 627 349 c 1
 607 349 l 1
 584.333 353 564.667 362.667 548 378 c 0
 513.333 409.333 498.333 450 503 500 c 1
 511 547 l 1
 529.667 629 572.667 685.333 640 716 c 1
 670 734.667 708.333 744 755 744 c 0
 789 744 816.333 738.333 837 727 c 0
 901 693 921.667 622.667 899 516 c 0
 896.333 503.333 893.333 490.333 890 477 c 0
 851.333 339 771 220 649 120 c 0
 639 111.333 628.667 103 618 95 c 0
 560.667 52.3333 508.667 20.6667 462 0 c 1
EndSplineSet
EndChar
StartChar: uni0E15
Encoding: 143 3605 145
OldEncoding: 3605
Width: 1330
Flags: W
Fore
711 624 m 1
 673.667 618 646.333 599.333 629 568 c 0
 625 560.667 622 553.333 620 546 c 1
 615 517 l 1
 614.333 485 625 465 647 457 c 0
 650.333 455.667 654 455 658 455 c 2
 679 457 l 1
 705 464.333 725 491 739 537 c 1
 746 573 l 1
 748.667 603 737 620 711 624 c 1
462 0 m 1
 222 0 l 1
 244 108 l 1
 252 145.333 257.333 228 260 356 c 0
 262.667 510 272.667 626.667 290 706 c 0
 299.333 750.667 311.333 790.667 326 826 c 0
 372.667 936.667 447 1022.67 549 1084 c 0
 609.667 1120.67 673.667 1142.33 741 1149 c 1
 880 1033 l 1
 1078 1149 l 1
 1184 1124.33 1258 1070 1300 986 c 1
 1338 913.333 1342.67 810.333 1314 677 c 1
 1171 0 l 1
 951 0 l 1
 1092 664 l 1
 1106.67 734 1109.33 782.667 1100 810 c 0
 1086.67 848.667 1062.33 881.667 1027 909 c 1
 829 793 l 1
 690 909 l 1
 631.333 886.333 586 850.667 554 802 c 0
 526.667 761.333 506.667 710.667 494 650 c 0
 473.333 554 471.667 421.333 489 252 c 1
 490 234 l 1
 524 246 560 272 598 312 c 0
 610.667 326 620.333 338.333 627 349 c 1
 607 349 l 1
 584.333 353 564.667 362.667 548 378 c 0
 513.333 409.333 498.333 450 503 500 c 1
 511 547 l 1
 529.667 629 572.667 685.333 640 716 c 1
 670 734.667 708.333 744 755 744 c 0
 789 744 816.333 738.333 837 727 c 0
 901 693 921.667 622.667 899 516 c 0
 896.333 503.333 893.333 490.333 890 477 c 0
 851.333 339 771 220 649 120 c 0
 639 111.333 628.667 103 618 95 c 0
 560.667 52.3333 508.667 20.6667 462 0 c 1
EndSplineSet
EndChar
StartChar: uni0E16
Encoding: 144 3606 146
OldEncoding: 3606
Width: 1240
Flags: W
Fore
487 376 m 1
 485 363 l 1
 506.333 381.667 532 391 562 391 c 0
 580.667 391.667 598.667 388 616 380 c 0
 635.333 371.333 651 359.333 663 344 c 0
 690.333 310 697.667 264 685 206 c 1
 681 182 672.667 157.667 660 133 c 0
 631.333 76.3333 587.667 35.3333 529 10 c 0
 496.333 -3.33333 462.667 -10 428 -10 c 0
 380 -9.33333 343.667 -3 319 9 c 0
 299 19.6667 279.667 35.3333 261 56 c 0
 231 90 224.667 156 242 254 c 0
 244.667 268.667 248 285 252 303 c 1
 265 366 l 1
 283 449.333 305.333 509.333 332 546 c 0
 353.333 576 395.333 617.667 458 671 c 1
 422.667 727 365.333 767.333 286 792 c 1
 312.667 854.667 362 917 434 979 c 1
 563.333 1092.33 708 1149 868 1149 c 0
 1018 1149 1124.67 1102 1188 1008 c 0
 1242.67 926.667 1255 815 1225 673 c 2
 1082 0 l 1
 862 0 l 1
 1001 657 l 1
 1039.67 838.333 979.667 929 821 929 c 0
 715 929 630 896.333 566 831 c 1
 632.667 795 672.667 739 686 663 c 1
 682 661 645 627.667 575 563 c 0
 535 525.667 505.667 463.333 487 376 c 1
474 110 m 0
 499.333 110 521.333 124 540 152 c 0
 548.667 164.667 554.667 179 558 195 c 0
 564.667 237.667 555.667 264.667 531 276 c 0
 525 278.667 518 280 510 280 c 0
 479.333 280 457.667 260 445 220 c 1
 441 204 l 1
 427.667 141.333 438.667 110 474 110 c 0
EndSplineSet
EndChar
StartChar: uni0E17
Encoding: 145 3607 147
OldEncoding: 3607
Width: 1350
Flags: W
Fore
625 410 m 1
 1024 990 l 1
 1074.67 1068 1138.33 1115 1215 1131 c 0
 1230.33 1134.33 1245.67 1136 1261 1136 c 0
 1280.33 1135.33 1298 1132.67 1314 1128 c 0
 1374.67 1110 1408.33 1067.33 1415 1000 c 0
 1418.33 973.333 1416.33 943.333 1409 910 c 1
 1216 0 l 1
 996 0 l 1
 1136 659 l 1
 1146.67 710.333 1150.67 740.333 1148 749 c 0
 1146.67 753 1143.33 757 1138 761 c 0
 1134.67 763.667 1131 765 1127 765 c 1
 1112 761 l 2
 1103.33 757.667 1096 751.333 1090 742 c 2
 592 0 l 1
 318 0 l 1
 479 759 l 1
 469.667 754.333 452.333 752 427 752 c 2
 416 752 l 2
 388.667 754.667 364 768 342 792 c 0
 313.333 823.333 304.667 866.667 316 922 c 0
 321.333 946.667 331 974 345 1004 c 0
 365.667 1047.33 400.333 1084 449 1114 c 0
 487.667 1137.33 530.667 1149 578 1149 c 0
 632.667 1148.33 674 1130.33 702 1095 c 1
 738 1051.67 745.667 980.333 725 881 c 1
 625 410 l 1
520 1026 m 0
 501.333 1026 482 1015.33 462 994 c 1
 448.667 977.333 440.333 959.667 437 941 c 0
 432.333 920.333 434 902 442 886 c 0
 451.333 866.667 465.667 857 485 857 c 0
 502.333 857 518.333 865.333 533 882 c 0
 543 894.667 551 915.667 557 945 c 0
 563.667 975 563.333 996 556 1008 c 128
 548.667 1020 536.667 1026 520 1026 c 0
EndSplineSet
EndChar
StartChar: uni0E18
Encoding: 146 3608 148
OldEncoding: 3608
Width: 1250
Flags: W
Fore
916 529 m 1
 923.333 562.333 913.667 587 887 603 c 1
 815 636 l 1
 713.667 672 546 707.333 312 742 c 1
 348.667 829.333 391 901 439 957 c 0
 489 1015.67 550.667 1063 624 1099 c 0
 692 1132.33 773.333 1149 868 1149 c 0
 944.667 1149 1013 1133.67 1073 1103 c 0
 1124.33 1077 1181 1064 1243 1064 c 0
 1269.67 1064 1295 1066.67 1319 1072 c 1
 1236 862 l 1
 1218 858 1197.67 856 1175 856 c 0
 1153.67 855.333 1132 857 1110 861 c 0
 1070 867 1038 876.333 1014 889 c 0
 959.333 917.667 898.667 934.667 832 940 c 2
 813 941 l 2
 740.333 941 690.667 924.667 664 892 c 1
 858.667 852.667 986.667 814.667 1048 778 c 0
 1131.33 728 1163.67 659.667 1145 573 c 1
 1088 303 l 2
 1059.33 167.667 991.667 77.3333 885 32 c 0
 818.333 4 730.333 -10 621 -10 c 0
 408.333 -10 303 67.6667 305 223 c 0
 305.667 250.333 309.333 280.667 316 314 c 1
 388 650 l 1
 608 650 l 1
 536 314 l 2
 526.667 270 548.333 239 601 221 c 0
 621 214.333 643.333 210.667 668 210 c 1
 713 212 l 1
 771.667 220 816 239.667 846 271 c 0
 858.667 284.333 866.667 298.667 870 314 c 2
 916 529 l 1
EndSplineSet
EndChar
StartChar: uni0E19
Encoding: 147 3609 149
OldEncoding: 3609
Width: 1400
Flags: W
Fore
524 776 m 1
 501.333 757.333 473.333 748 440 748 c 0
 385.333 748 348.667 772.333 330 821 c 0
 317.333 853 315.667 890.333 325 933 c 0
 329.667 957 337.667 981.333 349 1006 c 0
 367.667 1046 400.667 1080.67 448 1110 c 0
 490.667 1136 533 1149 575 1149 c 0
 652.333 1149 709 1129 745 1089 c 0
 780.333 1050.33 790.667 996.333 776 927 c 2
 659 377 l 1
 647 322.333 641.667 290.333 643 281 c 1
 648 267 l 1
 651.333 262.333 656 258.333 662 255 c 0
 668 251.667 675.333 250 684 250 c 0
 732 250.667 812.333 289.667 925 367 c 0
 955 387.667 983.333 408.667 1010 430 c 1
 1161 1139 l 1
 1381 1139 l 1
 1246 507 l 1
 1292.67 499.667 1330 481.667 1358 453 c 0
 1395.33 413.667 1409.33 355.333 1400 278 c 0
 1398.67 266.667 1396.67 255.333 1394 244 c 0
 1375.33 154 1349.33 94.6667 1316 66 c 0
 1264.67 22 1207 -3 1143 -9 c 0
 1133.67 -9.66667 1124.67 -10 1116 -10 c 2
 1076 -7 l 1
 1034.67 -0.333333 1003 16 981 42 c 0
 953 75.3333 944 116 954 164 c 1
 896 123.333 812.333 78 703 28 c 1
 651 6 l 1
 617 -6.66667 584.333 -13 553 -13 c 0
 510.333 -13 474 -1.66667 444 21 c 0
 398 55 385.333 120.667 406 218 c 2
 524 776 l 1
524 1028 m 0
 500 1028 478.333 1014.33 459 987 c 1
 446 962 l 1
 443.333 956 441.333 949.667 440 943 c 0
 434.667 906.333 442.333 881 463 867 c 0
 470.333 861.667 479 859 489 859 c 0
 525 861.667 548 887.333 558 936 c 0
 559.333 939.333 560.333 943 561 947 c 0
 572.333 1001 560 1028 524 1028 c 0
1191 317 m 1
 1171 222 l 1
 1163 186.667 1165.67 166 1179 160 c 1
 1183 157.333 1189 156 1197 156 c 0
 1219 156 1234.33 177 1243 219 c 0
 1250.33 257 1244.33 285.333 1225 304 c 0
 1216.33 312.667 1205 317 1191 317 c 1
EndSplineSet
EndChar
StartChar: uni0E1A
Encoding: 148 3610 150
OldEncoding: 3610
Width: 1300
Flags: W
Fore
627 379 m 2
 607.667 287.667 640.333 233 725 215 c 0
 743 211.667 763.333 210 786 210 c 0
 892.667 210.667 963 249.667 997 327 c 0
 1003.67 342.333 1009 359.667 1013 379 c 2
 1175 1139 l 1
 1395 1139 l 1
 1211 273 l 1
 1183.67 147 1110.33 64 991 24 c 0
 923.667 1.33333 838 -10 734 -10 c 0
 484.667 -10 365.667 67.3333 377 222 c 0
 377.667 236.667 379.667 252 383 268 c 2
 488 759 l 1
 472 753 453.333 749.667 432 749 c 0
 400 749 371.667 756 347 770 c 0
 335 776.667 325 785 317 795 c 0
 290.333 829.667 282.667 874.333 294 929 c 0
 298.667 952.333 307.333 977.667 320 1005 c 0
 341.333 1050.33 376.333 1087.67 425 1117 c 0
 452.333 1133.67 479.667 1144 507 1148 c 1
 555 1151 l 1
 623 1151 673.667 1135.33 707 1104 c 1
 710.333 1102 713 1099.67 715 1097 c 0
 745 1062.33 752.667 999.667 738 909 c 1
 724 835 l 1
 627 379 l 2
496 1028 m 0
 471.333 1028 450 1014.67 432 988 c 0
 422 974 415.333 959 412 943 c 1
 406.667 905.667 414.333 880 435 866 c 0
 441.667 861.333 450 859 460 859 c 0
 496.667 861.667 520 887 530 935 c 0
 531.333 939 532.333 943.333 533 948 c 0
 544.333 1001.33 532 1028 496 1028 c 0
EndSplineSet
EndChar
StartChar: uni0E1B
Encoding: 149 3611 151
OldEncoding: 3611
Width: 1300
Flags: W
Fore
627 379 m 2
 607.667 287.667 640.333 233 725 215 c 0
 743 211.667 763.333 210 786 210 c 0
 892.667 210.667 963 249.667 997 327 c 0
 1003.67 342.333 1009 359.667 1013 379 c 2
 1247 1480 l 1
 1467 1480 l 1
 1211 273 l 1
 1183.67 147 1110.33 64 991 24 c 0
 923.667 1.33333 838 -10 734 -10 c 0
 484.667 -10 365.667 67.3333 377 222 c 0
 377.667 236.667 379.667 252 383 268 c 2
 488 759 l 1
 472 753 453.333 749.667 432 749 c 0
 400 749 371.667 756 347 770 c 0
 335 776.667 325 785 317 795 c 0
 290.333 829.667 282.667 874.333 294 929 c 0
 298.667 952.333 307.333 977.667 320 1005 c 0
 341.333 1050.33 376.333 1087.67 425 1117 c 0
 452.333 1133.67 479.667 1144 507 1148 c 1
 555 1151 l 1
 623 1151 673.667 1135.33 707 1104 c 1
 710.333 1102 713 1099.67 715 1097 c 0
 745 1062.33 752.667 999.667 738 909 c 1
 724 835 l 1
 627 379 l 2
496 1028 m 0
 471.333 1028 450 1014.67 432 988 c 0
 422 974 415.333 959 412 943 c 1
 406.667 905.667 414.333 880 435 866 c 0
 441.667 861.333 450 859 460 859 c 0
 496.667 861.667 520 887 530 935 c 0
 531.333 939 532.333 943.333 533 948 c 0
 544.333 1001.33 532 1028 496 1028 c 0
EndSplineSet
EndChar
StartChar: uni0E1C
Encoding: 150 3612 152
OldEncoding: 3612
Width: 1200
Flags: W
Fore
310 835 m 1
 332.667 942.333 360.333 1017 393 1059 c 0
 404.333 1073.67 417 1086.33 431 1097 c 0
 473.667 1129.67 530 1147.67 600 1151 c 1
 650 1150 l 2
 653.333 1149.33 657 1148.67 661 1148 c 0
 708.333 1140.67 744.333 1114.33 769 1069 c 0
 779.667 1048.33 785.333 1027 786 1005 c 0
 787.333 978.333 785.333 953.333 780 930 c 1
 767 888 l 1
 753 851.333 730.333 820.333 699 795 c 0
 663 765 619 749.667 567 749 c 0
 548.333 749 532 751.667 518 757 c 2
 514 759 l 1
 409 268 l 1
 402.333 235.333 413 214.333 441 205 c 0
 447 203 453 202 459 202 c 0
 490.333 202 513 215.333 527 242 c 0
 531 250 534 258.667 536 268 c 2
 628 698 l 1
 848 698 l 1
 756 268 l 1
 749.333 236 759.667 215 787 205 c 0
 793.667 203 800 202 806 202 c 0
 832 202 852.333 213.333 867 236 c 0
 873 245.333 877 256 879 268 c 1
 1065 1139 l 1
 1285 1139 l 1
 1099 268 l 1
 1075.67 156 1030 76.6667 962 30 c 0
 922 3.33333 876.333 -10 825 -10 c 0
 753.667 -10 710.333 -8.66667 695 -6 c 0
 647.667 0.666667 618.667 20.6667 608 54 c 1
 573.333 16 526.667 -5 468 -9 c 0
 458.667 -9.66667 428.667 -10 378 -10 c 0
 246 -10 179.667 51 179 173 c 0
 178.333 201.667 181.667 233.333 189 268 c 2
 310 835 l 1
620 1028 m 0
 584 1028 560.333 1001.33 549 948 c 1
 543 911 l 1
 545 888 l 1
 550.333 870 563.333 860.333 584 859 c 1
 612.667 859 636.333 876.333 655 911 c 0
 661 921.667 665.333 932.333 668 943 c 0
 675.333 978.333 668.333 1003.67 647 1019 c 0
 639 1025 630 1028 620 1028 c 0
EndSplineSet
EndChar
StartChar: uni0E1D
Encoding: 151 3613 153
OldEncoding: 3613
Width: 1200
Flags: W
Fore
310 835 m 1
 332.667 942.333 360.333 1017 393 1059 c 0
 404.333 1073.67 417 1086.33 431 1097 c 0
 473.667 1129.67 530 1147.67 600 1151 c 1
 650 1150 l 2
 653.333 1149.33 657 1148.67 661 1148 c 0
 708.333 1140.67 744.333 1114.33 769 1069 c 0
 779.667 1048.33 785.333 1027 786 1005 c 0
 787.333 978.333 785.333 953.333 780 930 c 1
 767 888 l 1
 753 851.333 730.333 820.333 699 795 c 0
 663 765 619 749.667 567 749 c 0
 548.333 749 532 751.667 518 757 c 2
 514 759 l 1
 409 268 l 1
 402.333 235.333 413 214.333 441 205 c 0
 447 203 453 202 459 202 c 0
 490.333 202 513 215.333 527 242 c 0
 531 250 534 258.667 536 268 c 2
 628 698 l 1
 848 698 l 1
 756 268 l 1
 749.333 236 759.667 215 787 205 c 0
 793.667 203 800 202 806 202 c 0
 832 202 852.333 213.333 867 236 c 0
 873 245.333 877 256 879 268 c 1
 1137 1480 l 1
 1357 1480 l 1
 1099 268 l 1
 1075.67 156 1030 76.6667 962 30 c 0
 922 3.33333 876.333 -10 825 -10 c 0
 753.667 -10 710.333 -8.66667 695 -6 c 0
 647.667 0.666667 618.667 20.6667 608 54 c 1
 573.333 16 526.667 -5 468 -9 c 0
 458.667 -9.66667 428.667 -10 378 -10 c 0
 246 -10 179.667 51 179 173 c 0
 178.333 201.667 181.667 233.333 189 268 c 2
 310 835 l 1
620 1028 m 0
 584 1028 560.333 1001.33 549 948 c 1
 543 911 l 1
 545 888 l 1
 550.333 870 563.333 860.333 584 859 c 1
 612.667 859 636.333 876.333 655 911 c 0
 661 921.667 665.333 932.333 668 943 c 0
 675.333 978.333 668.333 1003.67 647 1019 c 0
 639 1025 630 1028 620 1028 c 0
EndSplineSet
EndChar
StartChar: uni0E1E
Encoding: 152 3614 154
OldEncoding: 3614
Width: 1350
Flags: W
Fore
353 268 m 2
 458 759 l 1
 442 753 423.333 749.667 402 749 c 0
 370 749 341.667 756 317 770 c 0
 305 776.667 295 785 287 795 c 0
 260.333 829.667 252.667 874.333 264 929 c 0
 268.667 952.333 277.333 977.667 290 1005 c 0
 311.333 1050.33 346.333 1087.67 395 1117 c 0
 422.333 1133.67 449.667 1144 477 1148 c 1
 525 1151 l 1
 593 1151 643.667 1135.33 677 1104 c 1
 680.333 1102 683 1099.67 685 1097 c 0
 715 1062.33 722.667 999.667 708 909 c 1
 694 835 l 1
 573 268 l 1
 566.333 235.333 577 214.333 605 205 c 0
 611 203 617 202 623 202 c 0
 654.333 202 677 215.333 691 242 c 0
 695 250 698 258.667 700 268 c 2
 864 1039 l 1
 1084 1039 l 1
 920 268 l 2
 913.333 236 923.667 215 951 205 c 0
 957.667 203 964 202 970 202 c 0
 996 202 1016.33 213.333 1031 236 c 0
 1037 245.333 1041 256 1043 268 c 1
 1229 1139 l 1
 1449 1139 l 1
 1263 268 l 1
 1239.67 156 1194 76.6667 1126 30 c 0
 1086 3.33333 1040.33 -10 989 -10 c 0
 917.667 -10 874.333 -8.66667 859 -6 c 0
 811.667 0.666667 782.667 20.6667 772 54 c 1
 737.333 16 690.667 -5 632 -9 c 0
 622.667 -9.66667 592.667 -10 542 -10 c 0
 410 -10 343.667 51 343 173 c 0
 342.333 201.667 345.667 233.333 353 268 c 2
466 1028 m 0
 441.333 1028 420 1014.67 402 988 c 0
 392 974 385.333 959 382 943 c 1
 376.667 905.667 384.333 880 405 866 c 0
 411.667 861.333 420 859 430 859 c 0
 466.667 861.667 490 887 500 935 c 0
 501.333 939 502.333 943.333 503 948 c 0
 514.333 1001.33 502 1028 466 1028 c 0
EndSplineSet
EndChar
StartChar: uni0E1F
Encoding: 153 3615 155
OldEncoding: 3615
Width: 1450
Flags: W
Fore
404 268 m 2
 509 759 l 1
 493 753 474.333 749.667 453 749 c 0
 421 749 392.667 756 368 770 c 0
 356 776.667 346 785 338 795 c 0
 311.333 829.667 303.667 874.333 315 929 c 0
 319.667 952.333 328.333 977.667 341 1005 c 0
 362.333 1050.33 397.333 1087.67 446 1117 c 0
 473.333 1133.67 500.667 1144 528 1148 c 1
 576 1151 l 1
 644 1151 694.667 1135.33 728 1104 c 1
 731.333 1102 734 1099.67 736 1097 c 0
 766 1062.33 773.667 999.667 759 909 c 1
 745 835 l 1
 624 268 l 1
 617.333 235.333 628 214.333 656 205 c 0
 662 203 668 202 674 202 c 0
 705.333 202 728 215.333 742 242 c 0
 746 250 749 258.667 751 268 c 2
 915 1039 l 1
 1135 1039 l 1
 971 268 l 2
 964.333 236 974.667 215 1002 205 c 0
 1008.67 203 1015 202 1021 202 c 0
 1047 202 1067.33 213.333 1082 236 c 0
 1088 245.333 1092 256 1094 268 c 1
 1352 1480 l 1
 1572 1480 l 1
 1314 268 l 1
 1290.67 156 1245 76.6667 1177 30 c 0
 1137 3.33333 1091.33 -10 1040 -10 c 0
 968.667 -10 925.333 -8.66667 910 -6 c 0
 862.667 0.666667 833.667 20.6667 823 54 c 1
 788.333 16 741.667 -5 683 -9 c 0
 673.667 -9.66667 643.667 -10 593 -10 c 0
 461 -10 394.667 51 394 173 c 0
 393.333 201.667 396.667 233.333 404 268 c 2
517 1028 m 0
 492.333 1028 471 1014.67 453 988 c 0
 443 974 436.333 959 433 943 c 1
 427.667 905.667 435.333 880 456 866 c 0
 462.667 861.333 471 859 481 859 c 0
 517.667 861.667 541 887 551 935 c 0
 552.333 939 553.333 943.333 554 948 c 0
 565.333 1001.33 553 1028 517 1028 c 0
EndSplineSet
EndChar
StartChar: uni0E20
Encoding: 154 3616 156
OldEncoding: 3616
Width: 1350
Flags: W
Fore
617 376 m 1
 602 303 l 1
 578.667 193.667 548.333 118.667 511 78 c 0
 504.333 70 496.333 62.6667 487 56 c 0
 434.333 15.3333 380.667 -6.33333 326 -9 c 0
 318.667 -9.66667 307.333 -10 292 -10 c 0
 218 -10 167 17.6667 139 73 c 0
 129.667 91 124 111 122 133 c 0
 120 157.667 121.667 182 127 206 c 0
 139.667 264 167 310 209 344 c 0
 247 375.333 287 391 329 391 c 0
 341.667 391.667 353.667 390 365 386 c 0
 377.667 380.667 387.667 373 395 363 c 1
 399 384 l 1
 414.333 455.333 435.333 509.333 462 546 c 0
 483.333 576 525.333 617.667 588 671 c 1
 552.667 727 495.333 767.333 416 792 c 1
 442.667 854.667 492 917 564 979 c 1
 693.333 1092.33 838 1149 998 1149 c 0
 1148 1149 1254.67 1102 1318 1008 c 0
 1372.67 926.667 1385 815 1355 673 c 2
 1212 0 l 1
 992 0 l 1
 1131 657 l 1
 1169.67 838.333 1109.67 929 951 929 c 0
 845 929 760 896.333 696 831 c 1
 762.667 795 802.667 739 816 663 c 1
 812 661 775 627.667 705 563 c 0
 665 525.667 635.667 463.333 617 376 c 1
298 110 m 0
 333.333 110 357.667 141.333 371 204 c 0
 380.333 248.667 371.333 273.667 344 279 c 2
 334 280 l 2
 304.667 280 281 262 263 226 c 0
 257.667 216.667 253.333 206.333 250 195 c 0
 242 159 249 133.333 271 118 c 0
 279 112.667 288 110 298 110 c 0
EndSplineSet
EndChar
StartChar: uni0E21
Encoding: 155 3617 157
OldEncoding: 3617
Width: 1350
Flags: W
Fore
1395 1139 m 1
 1199 218 l 2
 1178.33 120.667 1137.67 55 1077 21 c 0
 1037.67 -1.66667 996.667 -13 954 -13 c 0
 922.667 -13 892.667 -6.66667 864 6 c 0
 854 10 839.333 17.3333 820 28 c 0
 732 78 667.667 123.333 627 164 c 1
 617 116 590.667 75.3333 548 42 c 0
 514.667 16 476 -0.333333 432 -7 c 1
 391 -10 l 2
 381 -10 372 -9.33333 364 -8 c 0
 304.667 -2 259.333 23.3333 228 68 c 0
 226 71.3333 223.667 75 221 79 c 1
 205 114.333 200.333 161.333 207 220 c 1
 217 267 l 1
 240.333 345 283.667 407 347 453 c 0
 387 481.667 431.667 499.667 481 507 c 1
 538 776 l 1
 515.333 757.333 487.333 748 454 748 c 0
 420 748 392.333 758.333 371 779 c 0
 335 813.667 324.333 864.667 339 932 c 0
 343.667 956 351.667 980.667 363 1006 c 0
 375 1031.33 394.667 1056 422 1080 c 0
 474.667 1126 530.333 1149 589 1149 c 0
 666.333 1149 723 1129 759 1089 c 0
 794.333 1050.33 804.667 996.333 790 927 c 2
 684 430 l 1
 689 424 l 2
 705.667 404 724 384.333 744 365 c 0
 823.333 289 887 250.667 935 250 c 0
 943.667 250 951.667 251.667 959 255 c 0
 966.333 258.333 972.333 262.333 977 267 c 1
 988 281 l 1
 993.333 290.333 1002 322.333 1014 377 c 1
 1176 1139 l 1
 1395 1139 l 1
538 1028 m 0
 526.667 1028 515.333 1024.33 504 1017 c 0
 477.333 1000.33 460.667 975.667 454 943 c 0
 452 930.333 452 918.667 454 908 c 0
 459.333 875.333 475.667 859 503 859 c 1
 532.333 861.667 553 878.667 565 910 c 1
 575 947 l 1
 586.333 1001 574 1028 538 1028 c 0
456 317 m 1
 442 317 428.667 312.667 416 304 c 0
 388.667 285.333 370.667 257 362 219 c 0
 353.333 177 360 156 382 156 c 0
 390 156 396.667 157.333 402 160 c 0
 416.667 166 428 186.667 436 222 c 1
 456 317 l 1
EndSplineSet
EndChar
StartChar: uni0E22
Encoding: 156 3618 158
OldEncoding: 3618
Width: 1200
Flags: W
Fore
653 1028 m 1
 633 1025 l 1
 621 1021 610.667 1012.33 602 999 c 1
 590 974 l 1
 586.667 966 584 957 582 947 c 0
 569.333 888.333 581 859 617 859 c 1
 636 861 l 1
 662 869.667 682.667 894.667 698 936 c 0
 699.333 938.667 700.333 941 701 943 c 1
 705 966 l 1
 705 992 695 1010.67 675 1022 c 0
 668.333 1026 661 1028 653 1028 c 1
325 477 m 0
 346.333 502.333 372 524.667 402 544 c 2
 429 562 l 1
 398.333 581.333 376 602 362 624 c 0
 339.333 660.667 338.667 729.667 360 831 c 0
 376 905 390 955.667 402 983 c 1
 422.667 1025 453 1061.67 493 1093 c 0
 528.333 1120.33 566.333 1138 607 1146 c 0
 617 1148 626.333 1149 635 1149 c 0
 715.667 1149 771 1130.67 801 1094 c 0
 827.667 1061.33 840.333 1020.67 839 972 c 0
 838.333 960 836.667 948 834 936 c 0
 820.667 873.333 786.333 823.333 731 786 c 1
 709 773 l 1
 680.333 759 645.333 752 604 752 c 0
 588 752 577.667 753.333 573 756 c 1
 566.333 725.333 576.333 696.333 603 669 c 0
 604 668 604 668 615 657 c 0
 631 641 663.333 631.667 712 629 c 0
 725.333 628.333 740.333 628 757 628 c 1
 729 495 l 1
 657 494 l 1
 593.667 487.333 549.667 452.667 525 390 c 0
 519.667 376.667 515.333 362.333 512 347 c 0
 496 271 529.667 226.667 613 214 c 0
 628.333 211.333 644.667 210 662 210 c 0
 788 210 860.333 253.667 879 341 c 2
 1049 1139 l 1
 1269 1139 l 1
 1084 269 l 1
 1055.33 135.667 973 50.6667 837 14 c 0
 784.333 -0.666667 721 -8.66667 647 -10 c 2
 623 -10 l 2
 449 -10 337 22 287 86 c 0
 253 129.333 243 188.667 257 264 c 1
 275 349 l 1
 289 410 l 1
 297 435.333 309 457.667 325 477 c 0
EndSplineSet
EndChar
StartChar: uni0E23
Encoding: 157 3619 159
OldEncoding: 3619
Width: 1100
Flags: W
Fore
1007 303 m 1
 986.333 207 966.333 142.333 947 109 c 0
 919.667 62.3333 879 28.3333 825 7 c 0
 795.667 -4.33333 765.667 -10 735 -10 c 0
 608.333 -10 538.667 32.3333 526 117 c 0
 522 144.333 523 172.667 529 202 c 0
 541.667 259.333 567.667 306 607 342 c 0
 646.333 378 691.333 397.667 742 401 c 1
 784 399 l 2
 794.667 397.667 802.333 395.667 807 393 c 1
 836 529 l 1
 843.333 562.333 834 589 808 609 c 1
 768 634 l 2
 766 634.667 764.667 635.333 764 636 c 0
 662.667 672 495 707.333 261 742 c 1
 297.667 829.333 340 901 388 957 c 0
 438 1015.67 499.667 1063 573 1099 c 0
 641 1132.33 722.333 1149 817 1149 c 0
 893.667 1149 962 1133.67 1022 1103 c 0
 1073.33 1077 1130 1064 1192 1064 c 0
 1218.67 1064 1244 1066.67 1268 1072 c 1
 1185 862 l 1
 1167 858 1146.67 856 1124 856 c 0
 1102.67 855.333 1081 857 1059 861 c 0
 1027 865.667 999 873 975 883 c 0
 963 889 l 0
 908.333 917.667 847.667 934.667 781 940 c 2
 762 941 l 2
 689.333 941 639.667 924.667 613 892 c 1
 765 861.333 866.333 836.667 917 818 c 0
 951 805.333 977.667 792 997 778 c 0
 1053 736.667 1076.67 677.667 1068 601 c 0
 1067.33 591.667 1066 582.333 1064 573 c 2
 1007 303 l 1
764 192 m 1
 776.667 250.667 765 280 729 280 c 0
 700.333 280 676.667 263 658 229 c 1
 645 197 l 1
 645 195 l 0
 640.333 156.333 648 130 668 116 c 0
 674 112 680.333 110 687 110 c 1
 707 113 l 1
 735 126.333 754 152.667 764 192 c 1
EndSplineSet
EndChar
StartChar: uni0E24
Encoding: 158 3620 160
OldEncoding: 3620
Width: 1240
Flags: W
Fore
487 376 m 1
 485 363 l 1
 506.333 381.667 532 391 562 391 c 0
 580.667 391.667 598.667 388 616 380 c 0
 635.333 371.333 651 359.333 663 344 c 0
 690.333 310 697.667 264 685 206 c 1
 681 182 672.667 157.667 660 133 c 0
 631.333 76.3333 587.667 35.3333 529 10 c 0
 496.333 -3.33333 462.667 -10 428 -10 c 0
 380 -9.33333 343.667 -3 319 9 c 0
 299 19.6667 279.667 35.3333 261 56 c 0
 231 90 224.667 156 242 254 c 0
 244.667 268.667 248 285 252 303 c 1
 265 366 l 1
 283 449.333 305.333 509.333 332 546 c 0
 353.333 576 395.333 617.667 458 671 c 1
 422.667 727 365.333 767.333 286 792 c 1
 312.667 854.667 362 917 434 979 c 1
 563.333 1092.33 708 1149 868 1149 c 0
 1018 1149 1124.67 1102 1188 1008 c 0
 1242.67 926.667 1255 815 1225 673 c 1
 1001 -380 l 1
 781 -380 l 1
 1001 657 l 1
 1039.67 838.333 979.667 929 821 929 c 0
 715 929 630 896.333 566 831 c 1
 632.667 795 672.667 739 686 663 c 1
 682 661 645 627.667 575 563 c 0
 535 525.667 505.667 463.333 487 376 c 1
474 110 m 0
 499.333 110 521.333 124 540 152 c 0
 548.667 164.667 554.667 179 558 195 c 0
 564.667 237.667 555.667 264.667 531 276 c 0
 525 278.667 518 280 510 280 c 0
 479.333 280 457.667 260 445 220 c 1
 441 204 l 1
 427.667 141.333 438.667 110 474 110 c 0
EndSplineSet
EndChar
StartChar: uni0E25
Encoding: 159 3621 161
OldEncoding: 3621
Width: 1250
Flags: W
Fore
1214 915 m 2
 1226 868.333 1222.67 801 1204 713 c 2
 1053 0 l 1
 833 0 l 1
 888 263 l 1
 908 355.667 899.667 424 863 468 c 0
 834.333 502.667 778.333 520 695 520 c 0
 688 520 688 520 680 520 c 0
 613.333 519.333 562.333 498.333 527 457 c 1
 509 434.333 497 409.667 491 383 c 1
 487 363 l 1
 508.333 381.667 534 391 564 391 c 0
 582.667 391.667 600.667 388 618 380 c 0
 637.333 371.333 653 359.333 665 344 c 0
 692.333 310 699.667 264 687 206 c 1
 683 182 674.667 157.667 662 133 c 0
 633.333 76.3333 589.667 35.3333 531 10 c 0
 498.333 -3.33333 464.667 -10 430 -10 c 0
 382 -9.33333 345.667 -3 321 9 c 0
 301 19.6667 281.667 35.3333 263 56 c 0
 233 90 226.667 156 244 254 c 0
 246.667 268.667 250 285 254 303 c 2
 283 438 l 1
 307 551.333 374.333 634.667 485 688 c 0
 556.333 722.667 635.667 740 723 740 c 0
 815.667 740 887.333 723.667 938 691 c 0
 952.667 681.667 963.667 670.667 971 658 c 1
 983 714 l 1
 995.667 771.333 991.333 816 970 848 c 0
 968.667 849.333 967.667 850.667 967 852 c 0
 945.667 882 909 904 857 918 c 0
 828.333 925.333 798.333 929 767 929 c 0
 676.333 929 591.333 902.333 512 849 c 0
 480 827 452.667 802.333 430 775 c 1
 323 929 l 1
 376.333 995.667 452.333 1050 551 1092 c 0
 639 1130 725.667 1149 811 1149 c 0
 922.333 1149 1018 1124 1098 1074 c 0
 1106 1068.67 1113.33 1063.33 1120 1058 c 0
 1148 1037.33 1173.33 1004.67 1196 960 c 1
 1212 922 l 1
 1214 915 l 2
486 110 m 0
 511.333 110 533.333 124 552 152 c 0
 560.667 164.667 566.667 179 570 195 c 0
 576.667 237.667 567.667 264.667 543 276 c 0
 537 278.667 530 280 522 280 c 0
 491.333 280 469.667 260 457 220 c 1
 453 204 l 1
 439.667 141.333 450.667 110 486 110 c 0
EndSplineSet
EndChar
StartChar: uni0E26
Encoding: 160 3622 162
OldEncoding: 3622
Width: 1350
Flags: W
Fore
617 376 m 1
 602 303 l 1
 578.667 193.667 548.333 118.667 511 78 c 0
 504.333 70 496.333 62.6667 487 56 c 0
 434.333 15.3333 380.667 -6.33333 326 -9 c 0
 318.667 -9.66667 307.333 -10 292 -10 c 0
 218 -10 167 17.6667 139 73 c 0
 129.667 91 124 111 122 133 c 0
 120 157.667 121.667 182 127 206 c 0
 139.667 264 167 310 209 344 c 0
 247 375.333 287 391 329 391 c 0
 341.667 391.667 353.667 390 365 386 c 0
 377.667 380.667 387.667 373 395 363 c 1
 399 384 l 1
 414.333 455.333 435.333 509.333 462 546 c 0
 483.333 576 525.333 617.667 588 671 c 1
 552.667 727 495.333 767.333 416 792 c 1
 442.667 854.667 492 917 564 979 c 1
 693.333 1092.33 838 1149 998 1149 c 0
 1148 1149 1254.67 1102 1318 1008 c 0
 1372.67 926.667 1385 815 1355 673 c 1
 1131 -380 l 1
 911 -380 l 1
 1131 657 l 1
 1169.67 838.333 1109.67 929 951 929 c 0
 845 929 760 896.333 696 831 c 1
 762.667 795 802.667 739 816 663 c 1
 812 661 775 627.667 705 563 c 0
 665 525.667 635.667 463.333 617 376 c 1
298 110 m 0
 333.333 110 357.667 141.333 371 204 c 0
 380.333 248.667 371.333 273.667 344 279 c 2
 334 280 l 2
 304.667 280 281 262 263 226 c 0
 257.667 216.667 253.333 206.333 250 195 c 0
 242 159 249 133.333 271 118 c 0
 279 112.667 288 110 298 110 c 0
EndSplineSet
EndChar
StartChar: uni0E27
Encoding: 161 3623 163
OldEncoding: 3623
Width: 1150
Flags: W
Fore
1183 714 m 2
 1096 303 l 2
 1075.33 205 1055 140 1035 108 c 0
 1021.67 85.3333 1001.33 63.3333 974 42 c 0
 936 12 885 -5.33333 821 -10 c 0
 813.667 -10.6667 806.667 -11 800 -11 c 0
 720 -11 665 17.6667 635 75 c 1
 617 113 613 158.333 623 211 c 1
 636.333 269 666.333 316.667 713 354 c 0
 747 381.333 782.333 395 819 395 c 0
 853 395 876.333 390.333 889 381 c 0
 890.333 379.667 892 378.333 894 377 c 1
 957 675 l 2
 969.667 735.667 973.667 777.333 969 800 c 0
 965 814.667 958 828.667 948 842 c 0
 905.333 900 825.667 929 709 929 c 0
 619.667 929 536 903.333 458 852 c 0
 423.333 829.333 394.667 803.667 372 775 c 1
 265 929 l 1
 305.667 971 358.333 1012.33 423 1053 c 0
 449.667 1069.67 473.667 1083 495 1093 c 0
 576.333 1130.33 662.667 1149 754 1149 c 0
 862 1149 956.333 1129.33 1037 1090 c 0
 1057 1080.67 1075 1070.33 1091 1059 c 0
 1143 1021 1176 974 1190 918 c 0
 1202.67 863.333 1200.33 795.333 1183 714 c 2
854 192 m 0
 866.667 250.667 855 280 819 280 c 0
 793 280 770.333 264.333 751 233 c 0
 743.667 221 738.333 208.667 735 196 c 0
 728.333 163.333 735 138.667 755 122 c 0
 761.667 116.667 769 113 777 111 c 1
 802 113 l 1
 824.667 119 841.333 142 852 182 c 0
 854 192 l 0
EndSplineSet
EndChar
StartChar: uni0E28
Encoding: 162 3624 164
OldEncoding: 3624
Width: 1300
Flags: W
Fore
1163 1061 m 1
 1217.67 1093.67 1270.67 1148 1322 1224 c 1
 1540 1224 l 1
 1478.67 1108.67 1388 1013 1268 937 c 1
 1296.67 869.667 1298 774.333 1272 651 c 2
 1134 0 l 1
 954 0 l 1
 1103 702 l 2
 1117 767.333 1102.67 826.667 1060 880 c 0
 1044.67 899.333 1026.67 915.333 1006 928 c 0
 961.333 955.333 902.333 969 829 969 c 2
 822 969 l 2
 756.667 968.333 696 955.333 640 930 c 1
 574.667 902.667 523 862 485 808 c 0
 457 768 436 714 422 646 c 0
 412.667 602.667 408.333 562.333 409 525 c 1
 418 316 l 1
 461.333 420.667 515.667 511 581 587 c 0
 629 643.667 679 683 731 705 c 0
 768.333 721 807.667 724 849 714 c 0
 887 704 918.667 679.333 944 640 c 0
 956 620 962.667 600.667 964 582 c 0
 966 558 964.667 536.333 960 517 c 0
 952 479.667 928 439 888 395 c 2
 883 389 l 2
 834.333 338.333 784 313 732 313 c 0
 720.667 313 709.333 314.333 698 317 c 0
 676.667 321 656.333 333 637 353 c 1
 631 358.333 627 363.667 625 369 c 1
 575 301.667 519 205.667 457 81 c 0
 436 38 436 38 419 0 c 1
 186 0 l 1
 208 108 l 1
 219.333 160.667 225 266 225 424 c 1
 223 515.333 230 599.333 246 676 c 0
 256 721.333 269 762.667 285 800 c 0
 332.333 906.667 413 992.333 527 1057 c 1
 631.667 1114.33 735.667 1145 839 1149 c 2
 861 1149 l 2
 959 1148.33 1039.33 1131.33 1102 1098 c 0
 1103.33 1096.67 1105 1095.67 1107 1095 c 0
 1124.33 1086.33 1143 1075 1163 1061 c 1
792 574 m 1
 776.667 570 757.333 555.333 734 530 c 0
 712.667 506.667 700.333 487.333 697 472 c 0
 691.667 452.667 695.667 437.667 709 427 c 0
 716.333 420.333 725.333 417 736 417 c 0
 744.667 417 754 419 764 423 c 0
 783.333 430.333 801 442.667 817 460 c 0
 830.333 473.333 839.667 490.667 845 512 c 0
 850.333 533.333 847.333 551 836 565 c 0
 830 572.333 820 576 806 576 c 1
 792 574 l 1
EndSplineSet
EndChar
StartChar: uni0E29
Encoding: 163 3625 165
OldEncoding: 3625
Width: 1350
Flags: W
Fore
465 1028 m 0
 440.333 1028 419 1014.67 401 988 c 0
 391 974 384.333 959 381 943 c 1
 375.667 905.667 383.333 880 404 866 c 0
 410.667 861.333 419 859 429 859 c 0
 465.667 861.667 489 887 499 935 c 0
 500.333 939 501.333 943.333 502 948 c 0
 513.333 1001.33 501 1028 465 1028 c 0
1220 463 m 1
 1180 273 l 1
 1152.67 147 1079.33 64 960 24 c 0
 892.667 1.33333 807 -10 703 -10 c 0
 453.667 -10 334.667 67.3333 346 222 c 0
 346.667 236.667 348.667 252 352 268 c 2
 457 759 l 1
 441 753 422.333 749.667 401 749 c 0
 369 749 340.667 756 316 770 c 0
 304 776.667 294 785 286 795 c 0
 259.333 829.667 251.667 874.333 263 929 c 0
 267.667 952.333 276.333 977.667 289 1005 c 0
 310.333 1050.33 345.333 1087.67 394 1117 c 0
 421.333 1133.67 448.667 1144 476 1148 c 1
 524 1151 l 1
 592 1151 642.667 1135.33 676 1104 c 1
 679.333 1102 682 1099.67 684 1097 c 0
 714 1062.33 721.667 999.667 707 909 c 1
 693 835 l 1
 596 379 l 2
 576.667 287.667 609.333 233 694 215 c 0
 712 211.667 732.333 210 755 210 c 0
 861.667 210.667 932 249.667 966 327 c 0
 972.667 342.333 978 359.667 982 379 c 2
 991 421 l 1
 975.667 418.333 956 417 932 417 c 0
 928 417 l 0
 878 418.333 834.333 431.667 797 457 c 0
 764.333 479.667 744 512.667 736 556 c 0
 732 576.667 732.333 597.333 737 618 c 0
 737 620 737.333 622.333 738 625 c 0
 761.333 714.333 811.333 766.333 888 781 c 0
 895.333 782.333 903 783.333 911 784 c 1
 945 783 l 1
 981.667 777 1007 757 1021 723 c 0
 1028.33 705.667 1029 683 1023 655 c 0
 1020.33 643.667 1017 633.667 1013 625 c 0
 1005.67 608.333 991 591.667 969 575 c 1
 970.333 567.667 981.333 564 1002 564 c 0
 1010.67 563.333 1017.33 564 1022 566 c 1
 1144 1139 l 1
 1364 1139 l 1
 1258 642 l 1
 1289.33 668 1311.33 711 1324 771 c 1
 1457 771 l 1
 1441.67 698.333 1420.67 642.333 1394 603 c 0
 1386 590.333 1376.67 578 1366 566 c 0
 1332.67 527.333 1284 493 1220 463 c 1
932 651 m 1
 932.667 678.333 921 693.667 897 697 c 1
 881 696 l 1
 867.667 692 857 683 849 669 c 1
 841 653 l 1
 837 633.667 842.667 619.667 858 611 c 1
 864.667 608.333 871.333 607 878 607 c 0
 896.667 607 912 616.333 924 635 c 0
 928 640.333 930.667 645.667 932 651 c 1
EndSplineSet
EndChar
StartChar: uni0E2A
Encoding: 164 3626 166
OldEncoding: 3626
Width: 1250
Flags: W
Fore
1214 915 m 1
 1224.67 862.333 1221.33 795 1204 713 c 2
 1053 0 l 1
 833 0 l 1
 888 263 l 1
 908 355.667 899.667 424 863 468 c 0
 834.333 502.667 778.333 520 695 520 c 0
 688 520 688 520 680 520 c 0
 613.333 519.333 562.333 498.333 527 457 c 1
 509 434.333 497 409.667 491 383 c 1
 487 363 l 1
 508.333 381.667 534 391 564 391 c 0
 582.667 391.667 600.667 388 618 380 c 0
 637.333 371.333 653 359.333 665 344 c 0
 692.333 310 699.667 264 687 206 c 1
 683 182 674.667 157.667 662 133 c 0
 633.333 76.3333 589.667 35.3333 531 10 c 0
 498.333 -3.33333 464.667 -10 430 -10 c 0
 382 -9.33333 345.667 -3 321 9 c 0
 301 19.6667 281.667 35.3333 263 56 c 0
 233 90 226.667 156 244 254 c 0
 246.667 268.667 250 285 254 303 c 2
 283 438 l 1
 307 551.333 374.333 634.667 485 688 c 0
 556.333 722.667 635.667 740 723 740 c 0
 815.667 740 887.333 723.667 938 691 c 0
 952.667 681.667 963.667 670.667 971 658 c 1
 983 714 l 1
 995.667 771.333 991.333 816 970 848 c 0
 968.667 849.333 967.667 850.667 967 852 c 0
 945.667 882 909 904 857 918 c 0
 828.333 925.333 798.333 929 767 929 c 0
 676.333 929 591.333 902.333 512 849 c 0
 480 827 452.667 802.333 430 775 c 1
 323 929 l 1
 376.333 995.667 452.333 1050 551 1092 c 0
 639 1130 725.667 1149 811 1149 c 0
 946.333 1149 1044.33 1119 1105 1059 c 1
 1163.67 1094.33 1214.67 1144.33 1258 1209 c 1
 1526 1209 l 1
 1499.33 1137.67 1430.67 1063 1320 985 c 1
 1216 916 l 1
 1214 915 l 1
486 110 m 0
 511.333 110 533.333 124 552 152 c 0
 560.667 164.667 566.667 179 570 195 c 0
 576.667 237.667 567.667 264.667 543 276 c 0
 537 278.667 530 280 522 280 c 0
 491.333 280 469.667 260 457 220 c 1
 453 204 l 1
 439.667 141.333 450.667 110 486 110 c 0
EndSplineSet
EndChar
StartChar: uni0E2B
Encoding: 165 3627 167
OldEncoding: 3627
Width: 1350
Flags: W
Fore
634 385 m 1
 731 510 l 1
 759 544 788.667 577.667 820 611 c 0
 886.667 681 947.667 736 1003 776 c 1
 965.667 828 953.667 885.333 967 948 c 0
 979 1006 1012 1055 1066 1095 c 0
 1114 1131 1166.33 1149 1223 1149 c 0
 1300.33 1149 1353.33 1122 1382 1068 c 1
 1393 1038 l 1
 1399 1002 l 1
 1400.33 984 1399 965.333 1395 946 c 0
 1377 862.667 1335 802 1269 764 c 1
 1297 747.333 1316 719.333 1326 680 c 0
 1331.33 656 1331.67 632.667 1327 610 c 2
 1198 0 l 1
 978 0 l 1
 1092 538 l 2
 1098 566.667 1095 589.333 1083 606 c 1
 1021.67 571.333 945 494.667 853 376 c 0
 757 251.333 674.667 126 606 0 c 1
 332 0 l 1
 493 759 l 1
 476.333 749.667 449.667 745 413 745 c 0
 358.333 745 321 769.333 301 818 c 1
 289 850.667 287.667 888.667 297 932 c 0
 301.667 955.333 309.667 979 321 1003 c 0
 345 1055 386.667 1094.67 446 1122 c 0
 484 1139.33 524.333 1148.33 567 1149 c 1
 608 1146 l 1
 670.667 1135.33 713.667 1103 737 1049 c 0
 754.333 1011 758 968.333 748 921 c 2
 634 385 l 1
495 1025 m 1
 470.333 1025 449 1012.33 431 987 c 1
 418 963 l 1
 411 940 l 1
 405.667 906.667 412.333 882 431 866 c 0
 438.333 859.333 447.667 856 459 856 c 0
 491.667 858 514.333 879 527 919 c 0
 529 926.333 531 934.667 533 944 c 1
 536.333 994.667 523.667 1021.67 495 1025 c 1
1165 863 m 0
 1193.67 863 1216.67 876 1234 902 c 0
 1240.67 911.333 1245.33 921.333 1248 932 c 0
 1254.67 966 1246.67 990 1224 1004 c 0
 1215.33 1008.67 1205.67 1011.33 1195 1012 c 1
 1171 1009 l 1
 1148.33 1002.33 1131.33 988.333 1120 967 c 1
 1111 941 l 1
 1110 938 l 1
 1103.33 906.667 1111.33 884.333 1134 871 c 0
 1142.67 865.667 1153 863 1165 863 c 0
EndSplineSet
EndChar
StartChar: uni0E2C
Encoding: 166 3628 168
OldEncoding: 3628
Width: 1400
Flags: W
Fore
480 1028 m 0
 455.333 1028 434 1014.67 416 988 c 0
 406 974 399.333 959 396 943 c 1
 390.667 905.667 398.333 880 419 866 c 0
 425.667 861.333 434 859 444 859 c 0
 480.667 861.667 504 887 514 935 c 0
 515.333 939 516.333 943.333 517 948 c 0
 528.333 1001.33 516 1028 480 1028 c 0
1277 268 m 1
 1253.67 156 1208 76.6667 1140 30 c 0
 1100 3.33333 1054.33 -10 1003 -10 c 0
 931.667 -10 888.333 -8.66667 873 -6 c 0
 825.667 0.666667 796.667 20.6667 786 54 c 1
 751.333 16 704.667 -5 646 -9 c 0
 636.667 -9.66667 606.667 -10 556 -10 c 0
 424 -10 357.667 51 357 173 c 0
 356.333 201.667 359.667 233.333 367 268 c 2
 472 759 l 1
 456 753 437.333 749.667 416 749 c 0
 384 749 355.667 756 331 770 c 0
 319 776.667 309 785 301 795 c 0
 274.333 829.667 266.667 874.333 278 929 c 0
 282.667 952.333 291.333 977.667 304 1005 c 0
 325.333 1050.33 360.333 1087.67 409 1117 c 0
 436.333 1133.67 463.667 1144 491 1148 c 1
 539 1151 l 1
 607 1151 657.667 1135.33 691 1104 c 1
 694.333 1102 697 1099.67 699 1097 c 0
 729 1062.33 736.667 999.667 722 909 c 1
 708 835 l 1
 587 268 l 1
 580.333 235.333 591 214.333 619 205 c 0
 625 203 631 202 637 202 c 0
 668.333 202 691 215.333 705 242 c 0
 709 250 712 258.667 714 268 c 2
 878 1039 l 1
 1098 1039 l 1
 934 268 l 2
 927.333 236 937.667 215 965 205 c 0
 971.667 203 978 202 984 202 c 0
 1010 202 1030.33 213.333 1045 236 c 0
 1051 245.333 1055 256 1057 268 c 1
 1247 1158 l 1
 1191.67 1168 1152.67 1193.33 1130 1234 c 0
 1110.67 1268.67 1106 1309.67 1116 1357 c 0
 1120.67 1380.33 1128.67 1403.33 1140 1426 c 0
 1166.67 1480.67 1208.67 1519 1266 1541 c 0
 1294 1551.67 1323.67 1557 1355 1557 c 0
 1417 1557 1463.33 1534.33 1494 1489 c 0
 1500 1479 1504.67 1469 1508 1459 c 0
 1517.33 1428.33 1515.67 1383.67 1503 1325 c 2
 1498 1301 l 1
 1535.33 1304.33 1567.67 1316.67 1595 1338 c 0
 1631 1367.33 1657.67 1417 1675 1487 c 1
 1809 1487 l 1
 1796 1436 l 1
 1786.67 1406.67 1774.67 1378 1760 1350 c 0
 1730 1291.33 1686.67 1243.67 1630 1207 c 0
 1587.33 1180.33 1538 1163.33 1482 1156 c 2
 1466 1154 l 1
 1277 268 l 1
1289 1302 m 0
 1313 1302 1333.67 1313 1351 1335 c 0
 1358.33 1344.33 1363.33 1354.33 1366 1365 c 0
 1370.67 1387.67 1363.67 1405.67 1345 1419 c 0
 1336.33 1425 1326.67 1428 1316 1428 c 0
 1292 1428 1271 1417.33 1253 1396 c 0
 1245 1386 1240 1375.67 1238 1365 c 0
 1232.67 1340.33 1240 1322 1260 1310 c 0
 1268.67 1304.67 1278.33 1302 1289 1302 c 0
EndSplineSet
EndChar
StartChar: uni0E2D
Encoding: 167 3629 169
OldEncoding: 3629
Width: 1230
Flags: W
Fore
280 270 m 1
 315 434 l 1
 335 529.333 356.333 595 379 631 c 0
 412.333 683.667 458.333 719 517 737 c 0
 540.333 744.333 564.333 748 589 748 c 0
 602.333 748 616 747 630 745 c 0
 688 735.667 726.333 703.667 745 649 c 0
 754.333 624.333 757.667 596.333 755 565 c 0
 754.333 552.333 752.333 539 749 525 c 0
 739.667 482.333 714.333 442 673 404 c 0
 637 370.667 597 354 553 354 c 0
 541 354 529.667 355.333 519 358 c 1
 512 325 l 2
 499.333 267.667 527 231.667 595 217 c 0
 614.333 212.333 637 210 663 210 c 0
 737.667 210 798.667 228.667 846 266 c 0
 878 291.333 898 322.667 906 360 c 2
 981 715 l 1
 1001 807.667 972.333 871 895 905 c 0
 859.667 921 816.333 929 765 929 c 0
 641.667 928.333 539.333 888 458 808 c 1
 427 775 l 1
 314 936 l 1
 446.667 1078 611.667 1149 809 1149 c 0
 938.333 1149 1040.67 1118.33 1116 1057 c 0
 1150.67 1029.67 1176.67 997 1194 959 c 0
 1220.67 899.667 1225.67 830.333 1209 751 c 2
 1108 273 l 1
 1080.67 146.333 1006.67 63.3333 886 24 c 0
 818 1.33333 726.667 -10 612 -10 c 0
 358.667 -10 246.667 77.6667 276 253 c 0
 277.333 259 278.667 264.667 280 270 c 1
590 625 m 0
 554 625 530.333 598.333 519 545 c 0
 508.333 495 515.333 466 540 458 c 1
 554 456 l 0
 580.667 456 603.667 472 623 504 c 0
 629.667 515.333 634.667 527.333 638 540 c 0
 644.667 570.667 639 595 621 613 c 1
 611.667 621 601.333 625 590 625 c 0
EndSplineSet
EndChar
StartChar: uni0E2E
Encoding: 168 3630 170
OldEncoding: 3630
Width: 1250
Flags: W
Fore
994 741 m 2
 1000 769 1003.33 791.333 1004 808 c 1
 922 766.667 830.667 746 730 746 c 0
 712 746 l 0
 608 748 525.667 769 465 809 c 0
 411.667 845 390 890 400 944 c 1
 409 970 l 1
 429 1012 469.333 1048.33 530 1079 c 0
 534.667 1081 539.667 1083.33 545 1086 c 0
 633 1126 727.667 1147 829 1149 c 1
 945.667 1149 1044 1120.67 1124 1064 c 1
 1159.33 1100 1183.33 1131.33 1196 1158 c 1
 1309 1116 l 1
 1273.67 1060.67 1237.67 1013.67 1201 975 c 1
 1229.67 913.667 1237.33 850.667 1224 786 c 1
 1115 273 l 1
 1087.67 146.333 1013.67 63.3333 893 24 c 0
 825 1.33333 733.667 -10 619 -10 c 0
 365.667 -10 253.667 77.6667 283 253 c 0
 284.333 259 285.667 264.667 287 270 c 1
 322 434 l 1
 342 529.333 363.333 595 386 631 c 0
 419.333 683.667 465.333 719 524 737 c 0
 547.333 744.333 571.333 748 596 748 c 0
 609.333 748 623 747 637 745 c 0
 695 735.667 733.333 703.667 752 649 c 0
 761.333 624.333 764.667 596.333 762 565 c 0
 761.333 552.333 759.333 539 756 525 c 0
 746.667 482.333 721.333 442 680 404 c 0
 644 370.667 604 354 560 354 c 0
 548 354 536.667 355.333 526 358 c 1
 519 325 l 2
 506.333 267.667 534 231.667 602 217 c 0
 621.333 212.333 644 210 670 210 c 0
 744.667 210 805.667 228.667 853 266 c 0
 885 291.333 905 322.667 913 360 c 2
 994 741 l 2
597 625 m 0
 561 625 537.333 598.333 526 545 c 0
 515.333 495 522.333 466 547 458 c 1
 561 456 l 0
 587.667 456 610.667 472 630 504 c 0
 636.667 515.333 641.667 527.333 645 540 c 0
 651.667 570.667 646 595 628 613 c 1
 618.667 621 608.333 625 597 625 c 0
934 935 m 1
 915.333 956.333 871 968.667 801 972 c 0
 793 972 793 972 786 972 c 0
 754.667 972 723.667 964.667 693 950 c 0
 680.333 943.333 673.667 937.333 673 932 c 0
 669 914.667 689.667 903 735 897 c 0
 747.667 895 760 894 772 894 c 0
 830.667 894 880.333 905 921 927 c 0
 925.667 929.667 930 932.333 934 935 c 1
EndSplineSet
EndChar
StartChar: uni0E2F
Encoding: 169 3631 171
OldEncoding: 3631
Width: 1150
Flags: W
Fore
1269 1149 m 1
 1025 0 l 1
 805 0 l 1
 969 776 l 1
 914.333 722 832.333 687.333 723 672 c 0
 691.667 667.333 660 665 628 665 c 0
 531.333 665 453.667 683 395 719 c 0
 356.333 743 331.333 782 320 836 c 0
 314.667 861.333 314.333 887.333 319 914 c 1
 330 958 l 1
 352 1023.33 391.667 1074 449 1110 c 0
 479 1128.67 510.333 1140 543 1144 c 1
 590 1147 l 1
 665.333 1145.67 718 1117 748 1061 c 1
 749.333 1057 751 1053.33 753 1050 c 0
 761 1031.33 761.333 1005.33 754 972 c 0
 748.667 944 739 918.333 725 895 c 0
 716.333 880.333 706.667 868.667 696 860 c 1
 731 857 l 1
 779.667 858.333 825.333 871 868 895 c 0
 870.667 896.333 873.667 898 877 900 c 0
 945.667 943.333 997.667 1011 1033 1103 c 0
 1039 1117.67 1044.33 1133 1049 1149 c 1
 1269 1149 l 1
463 958 m 1
 460 936 l 1
 460.667 911.333 473.333 896 498 890 c 0
 502.667 889.333 507.333 889 512 889 c 0
 536.667 889 559 899.333 579 920 c 0
 589.667 932 596.333 944.667 599 958 c 0
 604.333 981.333 597.667 999.667 579 1013 c 0
 569.667 1019.67 559 1023 547 1023 c 0
 513 1023 487.667 1008 471 978 c 1
 463 958 l 1
EndSplineSet
EndChar
StartChar: uni0E30
Encoding: 170 3632 172
OldEncoding: 3632
Width: 1100
Flags: W
Fore
237 312 m 0
 259 412 316.667 471.667 410 491 c 0
 429.333 495 449.667 497.333 471 498 c 1
 510 495 l 1
 566 484.333 599 449.667 609 391 c 0
 611.667 374.333 612 357.333 610 340 c 1
 601 303 l 1
 591.667 275 578 251.667 560 233 c 1
 593 235 l 1
 647.667 243 702.667 272 758 322 c 0
 787.333 348 809 373.667 823 399 c 0
 836.333 423 848 450 858 480 c 1
 1024 480 l 1
 1000 368.667 941 275 847 199 c 0
 754.333 125 650 85.3333 534 80 c 0
 524.667 79.3333 516 79 508 79 c 0
 412.667 79 339.667 102.333 289 149 c 0
 255 180.333 236.333 220 233 268 c 0
 232.333 282.667 233.667 297.333 237 312 c 0
356 327 m 1
 356 307 l 1
 359.333 285 372.333 272.667 395 270 c 0
 397.667 269.333 400 269 402 269 c 2
 425 272 l 1
 451 280 468.667 295.667 478 319 c 0
 479.333 322.333 480.667 326 482 330 c 1
 482 350 l 1
 478 370.667 465 383 443 387 c 0
 439.667 387.667 436.333 388 433 388 c 0
 405 388 383 376 367 352 c 0
 361.667 344.667 358 336.333 356 327 c 1
348 836 m 0
 370 936 427.667 995.667 521 1015 c 0
 541 1019 561.667 1021.33 583 1022 c 1
 621 1019 l 1
 677.667 1008.33 710.667 973.667 720 915 c 0
 723.333 898.333 723.667 881.333 721 864 c 1
 712 827 l 1
 697 792 l 1
 689.667 778.667 681 767 671 757 c 1
 705 759 l 1
 759 767 813.667 796 869 846 c 1
 899 872 921 897.667 935 923 c 0
 947.667 947 959 974 969 1004 c 1
 1135 1004 l 1
 1111 892.667 1052 799 958 723 c 0
 866 649 761.667 609.333 645 604 c 0
 636.333 603.333 628 603 620 603 c 0
 524.667 603 451.667 626.333 401 673 c 0
 367 704.333 348.333 744 345 792 c 0
 344.333 806.667 345.333 821.333 348 836 c 0
467 851 m 1
 467 831 l 1
 470.333 809 483.333 796.667 506 794 c 0
 508.667 793.333 511 793 513 793 c 2
 537 796 l 1
 562.333 804 580 819.667 590 843 c 0
 591.333 846.333 592.333 850 593 854 c 1
 593 874 l 1
 589.667 894.667 576.667 907 554 911 c 0
 550.667 911.667 547.333 912 544 912 c 0
 516 912 494.333 900 479 876 c 1
 473 868.667 469 860.333 467 851 c 1
EndSplineSet
EndChar
StartChar: uni0E31
Encoding: 171 3633 173
OldEncoding: 3633
Width: 0
Flags: W
Fore
-422 1466 m 0
 -400 1566 -342.333 1625.67 -249 1645 c 0
 -229.667 1649 -209 1651.33 -187 1652 c 1
 -149 1649 l 1
 -92.3333 1638.33 -59.3333 1603.67 -50 1545 c 0
 -46.6667 1528.33 -46.3333 1511.33 -49 1494 c 1
 -58 1457 l 1
 -73 1422 l 1
 -80.3333 1408.67 -89 1397 -99 1387 c 1
 -65 1389 l 1
 -11.6667 1397 42.6667 1426 98 1476 c 1
 128 1502 150 1527.67 164 1553 c 0
 176.667 1577 188 1604 198 1634 c 1
 364 1634 l 1
 340 1522.67 281 1429 187 1353 c 0
 94.3333 1279 -9.66667 1239.33 -125 1234 c 0
 -133.667 1233.33 -142 1233 -150 1233 c 0
 -245.333 1233 -318.667 1256.33 -370 1303 c 0
 -404 1334.33 -422.333 1374 -425 1422 c 0
 -426.333 1436.67 -425.333 1451.33 -422 1466 c 0
-303 1481 m 1
 -303 1461 l 1
 -299.667 1439 -286.667 1426.67 -264 1424 c 0
 -261.333 1423.33 -259 1423 -257 1423 c 2
 -233 1426 l 1
 -207.667 1434 -190 1449.67 -180 1473 c 0
 -178.667 1476.33 -177.667 1480 -177 1484 c 1
 -177 1504 l 1
 -179 1518.67 -187.333 1529.67 -202 1537 c 1
 -222 1542 l 1
 -226 1542 l 2
 -254 1542 -275.667 1530 -291 1506 c 1
 -302 1486 l 1
 -302 1484.67 -302.333 1483 -303 1481 c 1
EndSplineSet
EndChar
StartChar: uni0E32
Encoding: 172 3634 174
OldEncoding: 3634
Width: 1150
Flags: W
Fore
1116 753 m 1
 956 0 l 1
 736 0 l 1
 890 729 l 1
 907.333 809.667 891.333 867 842 901 c 0
 814.667 919.667 777.333 929 730 929 c 0
 670.667 929 612 903.667 554 853 c 0
 522.667 825.667 498 796 480 764 c 1
 299 846 l 1
 349.667 928 417.333 998 502 1056 c 0
 592 1118 680 1149 766 1149 c 0
 914 1149 1018 1106.67 1078 1022 c 1
 1098 987 l 1
 1129.33 923.667 1135.33 845.667 1116 753 c 1
EndSplineSet
EndChar
StartChar: uni0E33
Encoding: 173 3635 175
OldEncoding: 3635
Width: 1050
Flags: W
Fore
1062 753 m 2
 902 0 l 1
 682 0 l 1
 836 729 l 1
 853.333 809.667 837.333 867 788 901 c 0
 760.667 919.667 723.333 929 676 929 c 0
 616.667 929 558 903.667 500 853 c 0
 468.667 825.667 444 796 426 764 c 1
 245 846 l 1
 295.667 928 363.333 998 448 1056 c 0
 538 1118 626 1149 712 1149 c 0
 860 1149 964 1106.67 1024 1022 c 0
 1069.33 958 1083.33 875 1066 773 c 0
 1062 753 l 2
54 1668 m 0
 124.667 1668 177.667 1643.33 213 1594 c 0
 230.333 1570 240.333 1542.67 243 1512 c 0
 245.667 1489.33 244.333 1465.67 239 1441 c 0
 223.667 1369.67 184.667 1311.67 122 1267 c 0
 71.3333 1231 16.6667 1212.67 -42 1212 c 1
 -86 1216 l 1
 -151.333 1227.33 -194.667 1262.33 -216 1321 c 0
 -228.667 1357 -230.333 1397 -221 1441 c 0
 -207 1506.33 -170.667 1561.67 -112 1607 c 0
 -60 1647.67 -4.66667 1668 54 1668 c 0
21 1509 m 0
 -12.3333 1509 -38.6667 1496 -58 1470 c 0
 -65.3333 1459.33 -70.3333 1447.67 -73 1435 c 0
 -79.6667 1403.67 -70.6667 1381.33 -46 1368 c 0
 -36 1362 -24 1359 -10 1359 c 0
 28 1359 56.6667 1374 76 1404 c 0
 82.6667 1413.33 87.3333 1423.67 90 1435 c 0
 96.6667 1467 86 1489.33 58 1502 c 1
 33 1509 l 1
 21 1509 l 0
EndSplineSet
EndChar
StartChar: uni0E34
Encoding: 174 3636 176
OldEncoding: 3636
Width: 0
Flags: W
Fore
102 1207 m 1
 -16 1234.33 -203.333 1260.33 -460 1285 c 0
 -631.333 1301.67 -770 1310 -876 1310 c 1
 -842.667 1377.33 -783.333 1445 -698 1513 c 0
 -656 1546.33 -614.667 1573.67 -574 1595 c 0
 -492.667 1637 -405 1658 -311 1658 c 0
 -289 1658 -267 1657 -245 1655 c 0
 -159.667 1645 -84.3333 1611.33 -19 1554 c 0
 -7.66667 1543.33 3 1532.33 13 1521 c 0
 75.6667 1450.33 105.333 1345.67 102 1207 c 1
-117 1371 m 1
 -127.667 1411.67 -158.333 1444.67 -209 1470 c 0
 -239.667 1485.33 -273.333 1494.67 -310 1498 c 1
 -366 1499 l 1
 -447.333 1495 -514 1468.67 -566 1420 c 1
 -468 1420 -355 1410.67 -227 1392 c 0
 -181 1385.33 -144.333 1378.33 -117 1371 c 1
EndSplineSet
EndChar
StartChar: uni0E35
Encoding: 175 3637 177
OldEncoding: 3637
Width: 0
Flags: W
Fore
79 1260 m 1
 79.6667 1248.67 80 1238 80 1228 c 1
 -35.3333 1254 -216.667 1278.33 -464 1301 c 0
 -620 1315.67 -746.333 1323 -843 1323 c 1
 -801 1405.67 -734.667 1477 -644 1537 c 0
 -537.333 1607 -425.667 1642 -309 1642 c 0
 -202.333 1642 -120.333 1617.33 -63 1568 c 0
 -55.6667 1561.33 -48.3333 1554 -41 1546 c 1
 -1 1735 l 1
 180 1735 l 1
 79 1260 l 1
-134 1387 m 1
 -142.667 1419.67 -170.667 1447.67 -218 1471 c 1
 -246.667 1486.33 -277 1495.33 -309 1498 c 1
 -363 1499 l 1
 -435.667 1494.33 -494.667 1471 -540 1429 c 1
 -446 1429 -340 1420.33 -222 1403 c 0
 -186 1397.67 -156.667 1392.33 -134 1387 c 1
EndSplineSet
EndChar
StartChar: uni0E36
Encoding: 176 3638 178
OldEncoding: 3638
Width: 0
Flags: W
Fore
-49 1562 m 1
 -25 1606 11.6667 1639 61 1661 c 0
 91 1674.33 121 1681 151 1681 c 0
 155 1681 155 1681 158 1681 c 0
 217.333 1679 260.333 1656.33 287 1613 c 0
 307 1581.67 312.667 1544.67 304 1502 c 0
 291.333 1442.67 258.333 1395.33 205 1360 c 0
 165 1334 122.333 1321 77 1321 c 1
 79.6667 1304.33 80.6667 1273.33 80 1228 c 1
 -35.3333 1254 -216.667 1278.33 -464 1301 c 0
 -620 1315.67 -746.333 1323 -843 1323 c 1
 -799.667 1409 -729.667 1481.33 -633 1540 c 1
 -525.667 1606.67 -410.333 1640 -287 1640 c 0
 -274.333 1640 -262 1639.67 -250 1639 c 0
 -162 1633.67 -97.6667 1610.67 -57 1570 c 0
 -49 1562 l 1
132 1559 m 0
 105.333 1559 84 1548 68 1526 c 1
 58 1507 l 1
 56 1500 l 1
 50.6667 1473.33 58.3333 1454.67 79 1444 c 0
 87 1439.33 96 1437 106 1437 c 0
 137.333 1437 160.667 1450 176 1476 c 0
 180.667 1483.33 183.667 1491.33 185 1500 c 0
 191 1526.67 182.333 1544.67 159 1554 c 0
 151 1557.33 142 1559 132 1559 c 0
-139 1376 m 1
 -148.333 1410 -173.667 1440.33 -215 1467 c 0
 -245 1485.67 -276.333 1496.67 -309 1500 c 1
 -348 1499 l 1
 -402.667 1493.67 -453.667 1476.33 -501 1447 c 0
 -517 1437.67 -529 1428.33 -537 1419 c 1
 -447 1419 -344.333 1410.33 -229 1393 c 0
 -191.667 1387.67 -161.667 1382 -139 1376 c 1
EndSplineSet
EndChar
StartChar: uni0E37
Encoding: 177 3639 179
OldEncoding: 3639
Width: 0
Flags: W
Fore
-72 1560 m 1
 -57.3333 1556 -44.6667 1544 -34 1524 c 1
 2 1695 l 1
 172 1695 l 1
 79 1258 l 1
 69 1201 l 1
 -36.3333 1225 -208.667 1248.67 -448 1272 c 0
 -608 1288 -735.333 1296 -830 1296 c 1
 -783.333 1382 -714 1454 -622 1512 c 0
 -522 1575.33 -416.667 1607 -306 1607 c 0
 -300 1607 l 0
 -283.333 1607 -263.333 1604 -240 1598 c 1
 -219 1696 l 1
 -43 1696 l 1
 -72 1560 l 1
-114 1343 m 1
 -130.667 1405.67 -171.667 1447.33 -237 1468 c 0
 -257.667 1474 -279.333 1477.67 -302 1479 c 1
 -362 1479 l 1
 -442 1473 -509 1443.33 -563 1390 c 2
 -566 1387 l 1
 -418.667 1381 -285 1369.33 -165 1352 c 0
 -141 1348.67 -124 1345.67 -114 1343 c 1
EndSplineSet
EndChar
StartChar: uni0E38
Encoding: 178 3640 180
OldEncoding: 3640
Width: 0
Flags: W
Fore
-474 -534 m 1
 -439 -370 l 1
 -451 -375.333 -463.667 -378 -477 -378 c 0
 -509 -377.333 -536 -365 -558 -341 c 0
 -579.333 -317.667 -585 -283.333 -575 -238 c 0
 -572.333 -224 -567.667 -210.333 -561 -197 c 0
 -558.333 -189.667 -555 -183 -551 -177 c 0
 -523 -129.667 -477.667 -100.333 -415 -89 c 0
 -400.333 -86.3333 -385.333 -85 -370 -85 c 0
 -320.667 -85 -282.333 -96.6667 -255 -120 c 0
 -251.667 -122.667 -248.667 -125.667 -246 -129 c 0
 -221.333 -160.333 -211.667 -203.333 -217 -258 c 1
 -219.667 -274.667 -223 -293 -227 -313 c 1
 -274 -534 l 1
 -474 -534 l 1
-420 -176 m 0
 -442 -176 -460.333 -187 -475 -209 c 0
 -480.333 -217.667 -484 -226.667 -486 -236 c 0
 -489.333 -263.333 -482.333 -282 -465 -292 c 0
 -459.667 -294.667 -453 -296 -445 -296 c 0
 -417 -296 -398.667 -275 -390 -233 c 0
 -382 -195 -392 -176 -420 -176 c 0
EndSplineSet
EndChar
StartChar: uni0E39
Encoding: 179 3641 181
OldEncoding: 3641
Width: 0
Flags: W
Fore
-557 -375 m 1
 -441 -375 l 1
 -382 -98 l 1
 -233 -98 l 1
 -320 -504 l 1
 -734 -504 l 1
 -698 -335 l 1
 -707.333 -343 -718.667 -347.667 -732 -349 c 0
 -773.333 -355 -805.333 -344.333 -828 -317 c 1
 -857.333 -284.333 -857.667 -237.333 -829 -176 c 1
 -813 -144.667 -786.333 -118.333 -749 -97 c 0
 -722.333 -82.3333 -696.333 -75 -671 -75 c 0
 -622.333 -75 -586 -85.3333 -562 -106 c 1
 -533.333 -133.333 -522.333 -175.333 -529 -232 c 0
 -531 -248 -534.333 -267.333 -539 -290 c 2
 -557 -375 l 1
-701 -161 m 0
 -715 -161 -728.667 -168 -742 -182 c 0
 -752 -193.333 -758.333 -205.333 -761 -218 c 0
 -763 -233.333 -761.333 -245.667 -756 -255 c 0
 -747.333 -269 -737 -275.333 -725 -274 c 1
 -711 -274 -698.667 -268.333 -688 -257 c 0
 -682 -249.667 -676.667 -235.667 -672 -215 c 1
 -668.667 -193.667 -669.333 -179.667 -674 -173 c 0
 -680 -165 -689 -161 -701 -161 c 0
EndSplineSet
EndChar
StartChar: uni0E3A
Encoding: 180 3642 182
OldEncoding: 3642
Width: 0
Flags: W
Fore
-258 -60 m 0
 -221.333 -60 -193 -73 -173 -99 c 0
 -151.667 -127.667 -144.667 -159.667 -152 -195 c 0
 -160 -231.667 -180.333 -263 -213 -289 c 1
 -245 -316.333 -279.333 -330 -316 -330 c 0
 -351.333 -330 -379.667 -316.333 -401 -289 c 0
 -421.667 -262.333 -428.333 -231 -421 -195 c 0
 -413.667 -159.667 -393.667 -127.667 -361 -99 c 1
 -328.333 -73 -294 -60 -258 -60 c 0
EndSplineSet
EndChar
StartChar: uni0E3F
Encoding: 181 3647 183
OldEncoding: 3647
Width: 1250
Flags: W
Fore
1137 827 m 1
 1227.67 799.667 1282.67 738.667 1302 644 c 0
 1313.33 589.333 1311.67 527 1297 457 c 0
 1266.33 313.667 1191 200.333 1071 117 c 1
 1023 86 l 1
 927.667 33.3333 820.667 5.33333 702 2 c 1
 673 -133 l 1
 512 -133 l 1
 541 0 l 1
 132 0 l 1
 448 1489 l 1
 857 1489 l 1
 880 1595 l 1
 1041 1595 l 1
 1018 1489 l 1
 1208.67 1485.67 1325 1430.33 1367 1323 c 0
 1386.33 1273.67 1388.67 1214 1374 1144 c 0
 1351.33 1039.33 1317.33 963 1272 915 c 0
 1260.67 903.667 1248.67 893.333 1236 884 c 1
 1202 862 l 1
 1186.67 854 1170.67 847 1154 841 c 0
 1149.33 839 1144.33 837.333 1139 836 c 1
 1137 827 l 1
735 916 m 1
 815 1291 l 1
 642 1291 l 1
 562 916 l 1
 735 916 l 1
896 916 m 1
 976.667 916.667 1035 942 1071 992 c 0
 1093.67 1023.33 1111 1067.33 1123 1124 c 0
 1139.67 1200 1124 1249.33 1076 1272 c 0
 1052 1282.67 1018.67 1289 976 1291 c 1
 896 916 l 1
581 190 m 1
 687 689 l 1
 514 689 l 1
 408 190 l 1
 581 190 l 1
743 194 m 1
 839 198.667 916 233.333 974 298 c 0
 1010.67 338.667 1035.33 389 1048 449 c 0
 1073.33 572.333 1041 647.333 951 674 c 0
 923.667 682.667 889.333 687 848 687 c 1
 743 194 l 1
EndSplineSet
EndChar
StartChar: uni0E40
Encoding: 182 3648 184
OldEncoding: 3648
Width: 700
Flags: W
Fore
387 1146 m 1
 607 1146 l 1
 441 364 l 1
 462.333 382.667 488 392 518 392 c 0
 536.667 392.667 554.667 389 572 381 c 0
 591.333 372.333 607 360.333 619 345 c 0
 646.333 311 653.667 265 641 207 c 1
 637 183 628.667 158.667 616 134 c 0
 587.333 77.3333 543.667 36.3333 485 11 c 0
 453 -2.33333 419.667 -9 385 -9 c 0
 336.333 -8.33333 300 -2 276 10 c 0
 255.333 20.6667 236 36.3333 218 57 c 0
 187.333 91 181 157 199 255 c 0
 201 269.667 204 286 208 304 c 1
 387 1146 l 1
430 111 m 0
 455.333 111 477.333 125 496 153 c 0
 504.667 165.667 510.667 180 514 196 c 0
 520.667 238.667 511.667 265.667 487 277 c 0
 481 279.667 474 281 466 281 c 0
 435.333 281 413.667 261 401 221 c 0
 399.667 216.333 398.333 211 397 205 c 0
 383.667 142.333 394.667 111 430 111 c 0
EndSplineSet
EndChar
StartChar: uni0E41
Encoding: 183 3649 185
OldEncoding: 3649
Width: 1320
Flags: W
Fore
1012 1146 m 1
 1232 1146 l 1
 1066 364 l 1
 1087.33 382.667 1113 392 1143 392 c 0
 1161.67 392.667 1179.67 389 1197 381 c 0
 1216.33 372.333 1232 360.333 1244 345 c 0
 1271.33 311 1278.67 265 1266 207 c 1
 1262 183 1253.67 158.667 1241 134 c 0
 1212.33 77.3333 1168.67 36.3333 1110 11 c 0
 1078 -2.33333 1044.67 -9 1010 -9 c 0
 961.333 -8.33333 925 -2 901 10 c 0
 880.333 20.6667 861 36.3333 843 57 c 0
 812.333 91 806 157 824 255 c 0
 826 269.667 829 286 833 304 c 1
 1012 1146 l 1
1055 111 m 0
 1080.33 111 1102.33 125 1121 153 c 0
 1129.67 165.667 1135.67 180 1139 196 c 0
 1145.67 238.667 1136.67 265.667 1112 277 c 1
 1093 281 l 1
 1091 281 l 2
 1060.33 281 1038.67 261 1026 221 c 0
 1024.67 216.333 1023.33 211 1022 205 c 0
 1008.67 142.333 1019.67 111 1055 111 c 0
419 1146 m 1
 639 1146 l 1
 473 364 l 1
 494.333 382.667 520 392 550 392 c 0
 568.667 392.667 586.667 389 604 381 c 0
 623.333 372.333 639 360.333 651 345 c 0
 678.333 311 685.667 265 673 207 c 1
 669 183 660.667 158.667 648 134 c 0
 619.333 77.3333 575.667 36.3333 517 11 c 0
 485 -2.33333 451.667 -9 417 -9 c 0
 368.333 -8.33333 332 -2 308 10 c 0
 287.333 20.6667 268 36.3333 250 57 c 0
 219.333 91 213 157 231 255 c 0
 233 269.667 236 286 240 304 c 1
 419 1146 l 1
462 111 m 0
 487.333 111 509.333 125 528 153 c 0
 536.667 165.667 542.667 180 546 196 c 0
 552.667 238.667 543.667 265.667 519 277 c 0
 513 279.667 506 281 498 281 c 0
 467.333 281 445.667 261 433 221 c 0
 431.667 216.333 430.333 211 429 205 c 0
 415.667 142.333 426.667 111 462 111 c 0
EndSplineSet
EndChar
StartChar: uni0E42
Encoding: 184 3650 186
OldEncoding: 3650
Width: 1100
Flags: W
Fore
941 850 m 1
 843 388 l 1
 865.667 394 887 397 907 397 c 0
 954.333 397 990.667 379.667 1016 345 c 0
 1042.67 308.333 1050 261.667 1038 205 c 0
 1032.67 181 1024.33 157.333 1013 134 c 0
 984.333 77.3333 940.667 36.3333 882 11 c 0
 850 -2.33333 816.667 -9 782 -9 c 0
 733.333 -8.33333 697 -2 673 10 c 0
 652.333 20.6667 633 36.3333 615 57 c 0
 584.333 91 578 157 596 255 c 0
 598 269.667 601 286 605 304 c 1
 721 850 l 2
 738.333 931.333 740 986.667 726 1016 c 1
 696.667 1083.33 580 1131.67 376 1161 c 0
 347.333 1165.67 312 1170.33 270 1175 c 1
 274.667 1195 301.333 1239.67 350 1309 c 0
 367.333 1334.33 382.667 1354.67 396 1370 c 0
 464 1450.67 542 1507 630 1539 c 0
 675.333 1555.67 717 1564 755 1564 c 0
 764.333 1564 774 1563.67 784 1563 c 0
 816.667 1561 874.667 1545.33 958 1516 c 0
 1057.33 1481.33 1132 1463.67 1182 1463 c 0
 1260 1463 1325.67 1483.33 1379 1524 c 1
 1279 1297 l 1
 1217 1267 1152 1252 1084 1252 c 0
 1036.67 1252 974.333 1268.33 897 1301 c 0
 830.333 1329 783.333 1344.33 756 1347 c 1
 721 1347 l 1
 708.333 1345.67 696.667 1342.67 686 1338 c 0
 668 1330 650.333 1315.67 633 1295 c 1
 743.667 1276.33 830.667 1237 894 1177 c 1
 894.667 1175.67 896 1174.33 898 1173 c 0
 943.333 1129.67 965 1071.33 963 998 c 1
 956 930 l 1
 952.667 906.667 947.667 880 941 850 c 1
827 111 m 0
 852.333 111 874.333 125 893 153 c 0
 901.667 165.667 907.667 180 911 196 c 0
 917.667 238.667 908.667 265.667 884 277 c 0
 878 279.667 871 281 863 281 c 0
 832.333 281 810.667 261 798 221 c 0
 796.667 216.333 795.333 211 794 205 c 0
 780.667 142.333 791.667 111 827 111 c 0
EndSplineSet
EndChar
StartChar: uni0E43
Encoding: 185 3651 187
OldEncoding: 3651
Width: 1000
Flags: W
Fore
628 633 m 2
 646.667 721 671.667 788 703 834 c 0
 721 861.333 742.667 886.667 768 910 c 2
 824 962 l 2
 891.333 1025.33 934.667 1078.33 954 1121 c 0
 960 1134.33 965 1149 969 1165 c 1
 976 1206 l 1
 979.333 1260 960.333 1300 919 1326 c 0
 894.333 1342 859.333 1350 814 1350 c 1
 843.333 1344 861.333 1316.67 868 1268 c 1
 871 1225 l 1
 870.333 1207 868.333 1189.67 865 1173 c 0
 861.667 1157.67 857.333 1143.33 852 1130 c 0
 824 1060 773 1008.33 699 975 c 0
 649.667 953 595.333 942 536 942 c 0
 437.333 942 371 978.667 337 1052 c 0
 315 1099.33 310.667 1154.33 324 1217 c 0
 352.667 1345 428.333 1439 551 1499 c 0
 613 1529.67 682.667 1549 760 1557 c 0
 784.667 1559.67 808.667 1561 832 1561 c 0
 948 1560.33 1041 1531.33 1111 1474 c 0
 1128.33 1459.33 1142.33 1444 1153 1428 c 0
 1184.33 1382.67 1194.67 1314 1184 1222 c 0
 1182 1203.33 1179 1184.67 1175 1166 c 0
 1157 1083.33 1110 1008.67 1034 942 c 0
 990 903.333 954 865.667 926 829 c 2
 915 815 l 2
 889.667 782.333 871 739 859 685 c 0
 857.667 679.667 854 662.333 848 633 c 1
 796 388 l 1
 818.667 394 840 397 860 397 c 0
 907.333 397 943.667 379.667 969 345 c 0
 995.667 308.333 1003 261.667 991 205 c 0
 985.667 181 977.333 157.333 966 134 c 0
 937.333 77.3333 893.667 36.3333 835 11 c 0
 803 -2.33333 769.667 -9 735 -9 c 0
 686.333 -8.33333 650 -2 626 10 c 0
 605.333 20.6667 586 36.3333 568 57 c 0
 537.333 91 531 157 549 255 c 0
 551 269.667 554 286 558 304 c 1
 628 633 l 2
780 111 m 0
 805.333 111 827.333 125 846 153 c 0
 854.667 165.667 860.667 180 864 196 c 0
 870.667 238.667 861.667 265.667 837 277 c 0
 831 279.667 824 281 816 281 c 0
 785.333 281 763.667 261 751 221 c 0
 749.667 216.333 748.333 211 747 205 c 0
 733.667 142.333 744.667 111 780 111 c 0
511 1188 m 0
 501.667 1134 523.333 1105.67 576 1103 c 1
 603 1106 l 1
 635.667 1113.33 659.667 1132 675 1162 c 0
 679.667 1171.33 683 1180.67 685 1190 c 0
 691 1224 680.333 1247.67 653 1261 c 1
 629 1268 l 1
 623.667 1268.67 618.667 1269 614 1269 c 0
 576 1269 546.667 1254 526 1224 c 0
 518.667 1213.33 513.667 1201.33 511 1188 c 0
EndSplineSet
EndChar
StartChar: uni0E44
Encoding: 186 3652 188
OldEncoding: 3652
Width: 1140
Flags: W
Fore
882 1194 m 2
 890.667 1235.33 883.333 1256 860 1256 c 0
 844.667 1256 827.667 1242.33 809 1215 c 1
 760 1148 l 1
 705.333 1082 634.667 1048.33 548 1047 c 0
 533.333 1047 519.333 1048.67 506 1052 c 0
 420.667 1075.33 370 1180 354 1366 c 0
 352.667 1384.67 350 1436.33 346 1521 c 1
 543 1521 l 1
 551 1407.67 563 1335.67 579 1305 c 0
 587.667 1289.67 597.333 1282 608 1282 c 0
 631.333 1282 657.667 1302.33 687 1343 c 1
 764 1454 l 1
 817.333 1524.67 873.667 1563.67 933 1571 c 0
 941.667 1571.67 950 1572 958 1572 c 0
 1059.33 1567.33 1118.67 1526.67 1136 1450 c 0
 1143.33 1418.67 1142.67 1382.33 1134 1341 c 2
 931 388 l 1
 953.667 394 975 397 995 397 c 0
 1042.33 397 1078.67 379.667 1104 345 c 0
 1130.67 308.333 1138 261.667 1126 205 c 0
 1120.67 181 1112.33 157.333 1101 134 c 0
 1072.33 77.3333 1028.67 36.3333 970 11 c 0
 938 -2.33333 904.667 -9 870 -9 c 0
 821.333 -8.33333 785 -2 761 10 c 0
 740.333 20.6667 721 36.3333 703 57 c 0
 672.333 91.6667 667 162.333 687 269 c 0
 689 281 691.333 294 694 308 c 1
 882 1194 l 2
915 111 m 0
 940.333 111 962.333 125 981 153 c 0
 989.667 165.667 995.667 180 999 196 c 0
 1005.67 238.667 996.667 265.667 972 277 c 0
 966 279.667 959 281 951 281 c 0
 920.333 281 898.667 261 886 221 c 0
 884.667 216.333 883.333 211 882 205 c 0
 868.667 142.333 879.667 111 915 111 c 0
EndSplineSet
EndChar
StartChar: uni0E45
Encoding: 187 3653 189
OldEncoding: 3653
Width: 1000
Flags: W
Fore
1044 753 m 2
 803 -380 l 1
 583 -380 l 1
 818 729 l 1
 835.333 809.667 819.333 867 770 901 c 0
 742.667 919.667 705.333 929 658 929 c 0
 598.667 929 540 903.667 482 853 c 0
 450.667 825.667 426 796 408 764 c 1
 227 846 l 1
 277.667 928 345.333 998 430 1056 c 0
 520 1118 608 1149 694 1149 c 0
 842 1149 946 1106.67 1006 1022 c 0
 1051.33 958 1065.33 875 1048 773 c 0
 1044 753 l 2
EndSplineSet
EndChar
StartChar: uni0E46
Encoding: 188 3654 190
OldEncoding: 3654
Width: 1100
Flags: W
Fore
436 588 m 1
 455 586 l 1
 478.333 588 500.333 602 521 628 c 0
 528.333 636.667 533.333 644.667 536 652 c 1
 545 691 l 1
 548.333 719 538.667 738.667 516 750 c 0
 510.667 752.667 505.333 754 500 754 c 2
 483 751 l 1
 473.667 746.333 464 738.333 454 727 c 0
 444 715 434.333 699.667 425 681 c 1
 419 666.333 414.667 653.333 412 642 c 0
 406 614 414 596 436 588 c 1
888 -380 m 1
 682 -380 l 1
 926 771 l 1
 932.667 800.333 929 836.667 915 880 c 0
 909 900.667 901.333 917 892 929 c 1
 780.667 857 679.667 857 589 929 c 1
 565 903 549 882 541 866 c 0
 539.667 864.667 539 863.333 539 862 c 1
 617.667 862 663 826.667 675 756 c 0
 679.667 729.333 679 702 673 674 c 0
 659.667 610.667 627.333 558 576 516 c 0
 529.333 476.667 475.667 457 415 457 c 0
 406.333 457 397.667 457.333 389 458 c 0
 322.333 464 278.667 500.333 258 567 c 0
 245.333 608.333 244.333 653.667 255 703 c 0
 257.667 716.333 261 729 265 741 c 0
 293 821 321 881.667 349 923 c 0
 366.333 948.333 387.333 973.667 412 999 c 0
 460.667 1048.33 516.333 1090 579 1124 c 0
 600.333 1135.33 619.333 1143.67 636 1149 c 1
 772 1041 l 1
 939 1149 l 1
 981 1137 1019 1111.67 1053 1073 c 1
 1071 1049 l 1
 1101.67 1011 1122.67 959.333 1134 894 c 0
 1140.67 850 1140 809 1132 771 c 2
 888 -380 l 1
EndSplineSet
EndChar
StartChar: uni0E47
Encoding: 189 3655 191
OldEncoding: 3655
Width: 0
Flags: W
Fore
-122 1562 m 1
 -139.333 1561.33 -153 1553.33 -163 1538 c 1
 -169 1522 l 1
 -169 1521 l 1
 -171.667 1503.67 -164 1492.67 -146 1488 c 1
 -133 1487 l 1
 -115 1487.67 -101.667 1495.33 -93 1510 c 0
 -90.3333 1514 -88.6667 1518.33 -88 1523 c 0
 -84 1540.33 -90 1552.33 -106 1559 c 1
 -122 1562 l 1
-222 1434 m 1
 -249.333 1454 -259.333 1483.33 -252 1522 c 0
 -249.333 1533.33 -245.333 1543.67 -240 1553 c 0
 -216 1596.33 -178.667 1623 -128 1633 c 0
 -120.667 1634.33 -113 1635.33 -105 1636 c 1
 -67 1634 l 1
 -20.3333 1627.33 8.33333 1604.67 19 1566 c 0
 27 1539.33 27.3333 1509.33 20 1476 c 0
 14 1446.67 3.66667 1419.67 -11 1395 c 0
 -49.6667 1333.67 -100 1297.67 -162 1287 c 0
 -173.333 1285 -184.667 1284 -196 1284 c 0
 -271.333 1284 -331.667 1300.33 -377 1333 c 1
 -420 1362 l 1
 -433.333 1368.67 -447.667 1372 -463 1372 c 0
 -483.667 1372 -498.667 1354 -508 1318 c 0
 -514 1296 -519 1284.67 -523 1284 c 0
 -621.667 1284 -683.667 1320.33 -709 1393 c 0
 -721.667 1428.33 -723.667 1467.33 -715 1510 c 0
 -711 1528.67 -705 1546.33 -697 1563 c 0
 -661 1640.33 -607.333 1696 -536 1730 c 0
 -517.333 1739.33 -497.667 1746.33 -477 1751 c 1
 -445.667 1761 -386.333 1768.33 -299 1773 c 0
 -205.667 1779 -138.333 1791 -97 1809 c 0
 -55 1827.67 -24.3333 1856 -5 1894 c 1
 176 1894 l 1
 160.667 1844 121.333 1793 58 1741 c 0
 5.33333 1698.33 -44.3333 1671.33 -91 1660 c 0
 -116.333 1653.33 -177.333 1645.67 -274 1637 c 0
 -379.333 1627.67 -450.333 1611.67 -487 1589 c 0
 -509 1575.67 -523.667 1558.67 -531 1538 c 1
 -539 1511 l 2
 -539.667 1509 -539.667 1507.33 -539 1506 c 1
 -539.667 1502 -538 1495.33 -534 1486 c 1
 -508 1521.33 -478.333 1539 -445 1539 c 0
 -437.667 1539 -431 1538 -425 1536 c 0
 -395 1528 -368.667 1513.33 -346 1492 c 0
 -310.667 1458.67 -287 1439.33 -275 1434 c 0
 -263.667 1429.33 -254.333 1427 -247 1427 c 1
 -230 1430 l 2
 -226.667 1431.33 -224 1432.67 -222 1434 c 1
EndSplineSet
EndChar
StartChar: uni0E48
Encoding: 190 3656 192
OldEncoding: 3656
Width: 0
Flags: W
Fore
69 2106 m 1
 300 2106 l 1
 241 1826 l 1
 10 1826 l 1
 69 2106 l 1
EndSplineSet
EndChar
StartChar: uni0E49
Encoding: 191 3657 193
OldEncoding: 3657
Width: 0
Flags: W
Fore
524 2156 m 1
 462 2020.67 353.667 1910.33 199 1825 c 0
 101.667 1770.33 -4.66667 1734 -120 1716 c 0
 -151.333 1711.33 -188 1707 -230 1703 c 1
 -207 1810 l 1
 -159 1821.33 -126.333 1840.33 -109 1867 c 0
 -105 1872.33 -101.667 1878.33 -99 1885 c 1
 -113.667 1880.33 -128.333 1878 -143 1878 c 0
 -163.667 1877.33 -182 1881.67 -198 1891 c 1
 -218 1906 l 2
 -222.667 1910 -226.667 1914.67 -230 1920 c 0
 -251.333 1950 -257.333 1986.67 -248 2030 c 1
 -234.667 2080 -205.333 2118.67 -160 2146 c 0
 -133.333 2161.33 -106 2169.33 -78 2170 c 1
 -40 2167 l 1
 12 2157.67 47.6667 2131 67 2087 c 1
 76 2057 l 1
 78 2025 l 1
 77 2009 l 1
 66 1966 l 1
 49 1925 l 1
 43 1915 l 1
 97.6667 1926.33 151.667 1952.67 205 1994 c 0
 225.667 2010 244.667 2027.33 262 2046 c 0
 294 2080.67 320.667 2117.33 342 2156 c 1
 524 2156 l 1
-110 1966 m 0
 -90 1966 -72.6667 1975.33 -58 1994 c 0
 -51.3333 2002 -47 2010.67 -45 2020 c 0
 -41 2038.67 -47.3333 2053.67 -64 2065 c 0
 -70.6667 2070.33 -78.3333 2073 -87 2073 c 0
 -109 2073 -127 2063.33 -141 2044 c 1
 -151 2026 l 1
 -153 2020 l 0
 -158.333 1996.67 -151.333 1980 -132 1970 c 0
 -125.333 1967.33 -118 1966 -110 1966 c 0
EndSplineSet
EndChar
StartChar: uni0E4A
Encoding: 192 3658 194
OldEncoding: 3658
Width: 0
Flags: W
Fore
-215 1798 m 1
 -215.667 1822 -223.667 1835 -239 1837 c 1
 -251 1836 l 1
 -271 1830.67 -285.333 1820.67 -294 1806 c 1
 -297 1794 l 1
 -296.333 1768.67 -286 1756 -266 1756 c 0
 -249.333 1756 -235 1764 -223 1780 c 0
 -218.333 1785.33 -215.667 1791.33 -215 1798 c 1
254 1918 m 1
 406 2169 l 1
 586 2169 l 2
 585.333 2169 518.333 2056.67 385 1832 c 0
 334.333 1746.67 240 1695 102 1677 c 0
 78 1673.67 54 1672 30 1672 c 1
 63.3333 1710.67 85.3333 1754 96 1802 c 0
 108 1861.33 101.667 1910.67 77 1950 c 1
 71 1961.33 63.6667 1970 55 1976 c 1
 -112 1858 l 1
 -192 1946 l 1
 -226 1975 l 1
 -226 1976 l 1
 -252 1966.67 -275 1948.67 -295 1922 c 0
 -297.667 1918.67 -299.667 1915.33 -301 1912 c 0
 -304.333 1906 -308 1897.33 -312 1886 c 1
 -287.333 1904.67 -259.333 1914 -228 1914 c 0
 -180 1914 -151.333 1893 -142 1851 c 0
 -140.667 1843 -139.667 1834.67 -139 1826 c 1
 -143 1793 l 1
 -153 1749.67 -177.333 1716.67 -216 1694 c 0
 -221.333 1691.33 -227 1688.67 -233 1686 c 0
 -259.667 1674 -289.333 1668 -322 1668 c 0
 -350 1668 -374.667 1672.33 -396 1681 c 0
 -441.333 1699.67 -468 1737.67 -476 1795 c 0
 -479.333 1822.33 -477.667 1851.33 -471 1882 c 0
 -469.667 1890.67 -467.667 1899.33 -465 1908 c 0
 -447.667 1972 -400 2031.33 -322 2086 c 0
 -279.333 2116 -235 2138.67 -189 2154 c 1
 -74 2036 l 1
 92 2154 l 1
 153.333 2132 200 2096 232 2046 c 0
 257.333 2007.33 266 1969 258 1931 c 1
 254 1918 l 1
EndSplineSet
EndChar
StartChar: uni0E4B
Encoding: 193 3659 195
OldEncoding: 3659
Width: 0
Flags: W
Fore
217 1793 m 1
 94 1793 l 1
 67 1670 l 1
 -104 1670 l 1
 -77 1793 l 1
 -208 1793 l 1
 -171 1967 l 1
 -40 1967 l 1
 -13 2096 l 1
 158 2096 l 1
 131 1967 l 1
 254 1967 l 1
 217 1793 l 1
EndSplineSet
EndChar
StartChar: uni0E4C
Encoding: 194 3660 196
OldEncoding: 3660
Width: 0
Flags: W
Fore
513 2169 m 1
 481 2113.67 427.667 2060.33 353 2009 c 0
 300.333 1973.67 245.333 1947.33 188 1930 c 0
 166 1923.33 145.667 1919.33 127 1918 c 1
 157.667 1900.67 173.333 1867 174 1817 c 1
 170 1789 l 1
 164 1764.33 147.667 1734.33 121 1699 c 0
 93 1661.67 49.6667 1637 -9 1625 c 0
 -21.6667 1623 -33.6667 1621.67 -45 1621 c 1
 -87 1624 l 1
 -142.333 1632.67 -181.667 1651.33 -205 1680 c 2
 -208 1683 l 1
 -231.333 1715.67 -240 1756.33 -234 1805 c 1
 -228 1831 l 1
 -210 1891 -179 1937 -135 1969 c 0
 -95 1998.33 -24.6667 2023.33 76 2044 c 0
 120 2053.33 147.333 2059.67 158 2063 c 0
 209.333 2079 255.333 2102.33 296 2133 c 0
 312 2145.67 324.333 2157.67 333 2169 c 1
 513 2169 l 1
-17 1857 m 0
 -45.6667 1857 -68.6667 1846 -86 1824 c 0
 -93.3333 1814.67 -98 1804.33 -100 1793 c 0
 -103.333 1777 -98.6667 1762.67 -86 1750 c 0
 -74 1738.67 -58.3333 1733 -39 1733 c 1
 -7 1737.67 16.3333 1751.67 31 1775 c 0
 35 1781.67 37.6667 1788.33 39 1795 c 0
 45 1823.67 35.3333 1842.67 10 1852 c 0
 2.66667 1855.33 -6.33333 1857 -17 1857 c 0
EndSplineSet
EndChar
StartChar: uni0E4D
Encoding: 195 3661 197
OldEncoding: 3661
Width: 0
Flags: W
Fore
62 1522 m 0
 105.333 1522 139 1506.67 163 1476 c 1
 186.333 1444 193.333 1406 184 1362 c 0
 174.667 1319.33 152 1282.67 116 1252 c 0
 78.6667 1221.33 38.6667 1206 -4 1206 c 0
 -46.6667 1206 -80.3333 1221.33 -105 1252 c 0
 -130.333 1282.67 -138.333 1319.33 -129 1362 c 0
 -119.667 1406 -96 1444 -58 1476 c 0
 -20.6667 1506.67 19.3333 1522 62 1522 c 0
17 1310 m 0
 39.6667 1310 58 1320 72 1340 c 0
 76.6667 1346.67 80 1354 82 1362 c 0
 86.6667 1384 80 1400 62 1410 c 0
 55.3333 1413.33 47.6667 1415 39 1415 c 0
 16.3333 1415 -1.66667 1405 -15 1385 c 1
 -24 1366 l 1
 -25 1362 l 2
 -29.6667 1340 -22.6667 1324.33 -4 1315 c 0
 2 1311.67 9 1310 17 1310 c 0
EndSplineSet
EndChar
StartChar: uni0E4E
Encoding: 196 3662 198
OldEncoding: 3662
Width: 0
Flags: W
Fore
298 1885 m 1
 242 1900.33 187.667 1908.33 135 1909 c 1
 98 1907 l 1
 69.3333 1901.67 52.6667 1888 48 1866 c 0
 42 1838.67 56.6667 1820 92 1810 c 0
 107.333 1806 125 1804 145 1804 c 2
 215 1804 l 1
 188 1675 l 1
 123 1675 l 2
 45 1675 -0.666667 1659 -14 1627 c 0
 -15.3333 1623.67 -16.3333 1620.33 -17 1617 c 1
 -16 1605 l 1
 -8 1584.33 28.3333 1571.67 93 1567 c 0
 102.333 1566.33 111 1566 119 1566 c 2
 197 1566 l 1
 171 1444 l 1
 87 1444 l 2
 -12.3333 1444 -87.3333 1461 -138 1495 c 128
 -188.667 1529 -209 1569.33 -199 1616 c 0
 -190.333 1655.33 -163.667 1690.67 -119 1722 c 0
 -104.333 1732 -91 1739.33 -79 1744 c 1
 -110.333 1768.67 -124.667 1804 -122 1850 c 1
 -117 1884 l 1
 -105 1928.67 -76.6667 1964.33 -32 1991 c 0
 16 2021 77.6667 2036 153 2036 c 0
 209 2036 266.333 2028.33 325 2013 c 1
 298 1885 l 1
EndSplineSet
EndChar
StartChar: uni0E4F
Encoding: 197 3663 199
OldEncoding: 3663
Width: 1250
Flags: HW
Fore
690.315 852.166 m 0
 597.558 852.166 511.125 818.38 431.02 750.809 c 1
 350.562 683.695 300.219 602.562 279.994 507.409 c 0
 259.866 412.717 275.719 331.585 327.547 264.013 c 0
 379.024 196.899 451.144 163.344 543.901 163.344 c 0
 637.113 163.344 723.945 196.899 804.403 264.013 c 1
 884.506 331.585 934.625 412.717 954.753 507.409 c 0
 974.979 602.562 959.35 683.695 907.875 750.809 c 0
 856.046 818.38 783.527 852.166 690.315 852.166 c 0
595.467 406.065 m 0
 624.146 406.065 649.711 415.649 672.164 434.817 c 0
 694.616 453.985 708.974 478.299 715.234 507.757 c 0
 721.496 537.215 717.476 561.528 703.172 580.696 c 0
 688.866 599.864 667.376 609.448 638.697 609.448 c 0
 610.22 609.448 584.756 599.864 562.305 580.696 c 0
 539.851 561.528 525.493 537.215 519.231 507.757 c 0
 512.971 478.299 516.991 453.985 531.297 434.817 c 0
 545.6 415.649 566.989 406.065 595.467 406.065 c 0
728.854 1040.03 m 0
 872.505 1040.03 984.272 987.973 1064.15 883.854 c 0
 1143.49 780.442 1167.58 655.429 1136.42 508.812 c 0
 1105.4 362.905 1028.17 237.891 904.719 133.772 c 1
 780.727 30.3623 646.903 -21.3428 503.253 -21.3428 c 0
 360.296 -21.3428 249.147 30.3623 169.809 133.772 c 0
 89.9268 237.891 65.4922 362.905 96.5059 508.812 c 0
 127.671 655.429 205.25 780.442 329.243 883.854 c 1
 452.693 987.973 585.897 1040.03 728.854 1040.03 c 0
562.396 258.114 m 0
 488.764 258.114 433.248 281.918 395.845 329.523 c 0
 358.443 377.13 347.517 437.515 363.067 510.678 c 0
 378.619 583.84 415.216 644.225 472.855 691.831 c 0
 530.497 739.438 596.131 763.239 669.763 763.239 c 0
 743.916 763.239 799.695 739.438 837.098 691.831 c 0
 874.499 644.225 885.424 583.84 869.873 510.678 c 0
 854.321 437.515 817.728 377.13 760.087 329.523 c 0
 702.446 281.918 636.549 258.114 562.396 258.114 c 0
EndSplineSet
EndChar
StartChar: uni0E50
Encoding: 198 3664 200
OldEncoding: 3664
Width: 1250
Flags: W
Fore
672 230 m 0
 740 230 802 255 858 305 c 0
 906.667 347.667 937.333 398.667 950 458 c 0
 964.667 528.667 950.667 586.333 908 631 c 0
 872.667 667.667 826.333 686 769 686 c 0
 701.667 685.333 641 660 587 610 c 1
 559 580 l 1
 529 543.333 509.333 502.667 500 458 c 0
 484.667 385.333 497.667 326.667 539 282 c 0
 571.667 247.333 616 230 672 230 c 0
619 -10 m 0
 495.667 -10 398.333 28.3333 327 105 c 0
 254.333 183 225 283 239 405 c 0
 240.333 422.333 243 440 247 458 c 0
 273 580.667 335.333 685.667 434 773 c 0
 533.333 860.333 647.333 910 776 922 c 0
 790 923.333 804 924 818 924 c 2
 882 921 l 1
 1010 908.333 1103.67 853.333 1163 756 c 0
 1213.67 674 1230.33 581 1213 477 c 0
 1211.67 470.333 1210.33 464 1209 458 c 0
 1184.33 342.667 1123 241 1025 153 c 0
 930.333 68.3333 824 16.3333 706 -3 c 0
 676.667 -7.66667 647.667 -10 619 -10 c 0
EndSplineSet
EndChar
StartChar: uni0E51
Encoding: 199 3665 201
OldEncoding: 3665
Width: 1300
Flags: W
Fore
989 524 m 0
 989 656 921.333 722 786 722 c 2
 779 722 l 2
 691.667 720.667 627.333 685.333 586 616 c 0
 571.333 590.667 561.667 566.667 557 544 c 0
 552.333 520.667 552.667 497.333 558 474 c 0
 568 434.667 587.667 414.667 617 414 c 0
 627 414 637 416.667 647 422 c 1
 615.667 440 600.667 472 602 518 c 1
 605 550 l 1
 617 600 646.333 637.667 693 663 c 0
 704.333 669 716 673.667 728 677 c 0
 750.667 683.667 774.333 687 799 687 c 0
 827 687 851.667 683 873 675 c 0
 906.333 663.667 931 638.333 947 599 c 0
 952.333 584.333 955.333 569 956 553 c 1
 959.333 521 958 490.667 952 462 c 0
 944 426.667 929 392.667 907 360 c 0
 854.333 280.667 783 231 693 211 c 0
 668.333 205.667 642.333 203 615 203 c 0
 515.667 203 437 236 379 302 c 0
 361.667 322 347.667 343.667 337 367 c 0
 316.333 412.333 314 474 330 552 c 1
 346 609 l 1
 358 643 372.667 672.333 390 697 c 0
 483.333 829 605.333 903.667 756 921 c 0
 778.667 923.667 801 925 823 925 c 0
 938.333 924.333 1033 893.333 1107 832 c 0
 1142.33 803.333 1168.67 770.333 1186 733 c 0
 1188.67 727 1191 721 1193 715 c 0
 1219.67 643.667 1222.67 559.667 1202 463 c 0
 1177.33 347 1127.67 250 1053 172 c 0
 1049 167.333 1044.67 163 1040 159 c 0
 946 66.3333 820.667 12 664 -4 c 0
 632.667 -7.33333 602 -9 572 -9 c 0
 431.333 -8.33333 321.667 22.6667 243 84 c 0
 230.333 93.3333 219 103.667 209 115 c 1
 344 292 l 1
 392 244.667 440.667 213 490 197 c 0
 520.667 187.667 555.667 181.333 595 178 c 1
 651 178 l 1
 737 182.667 809 213.333 867 270 c 0
 929.667 330.667 968.333 395 983 463 c 0
 987 483 989 503.333 989 524 c 0
700 545 m 0
 694.667 520.333 702 502.667 722 492 c 0
 730 487.333 739.333 485 750 485 c 0
 781.333 485 804 499.667 818 529 c 0
 821.333 535 823.667 541.333 825 548 c 0
 829.667 569.333 822 585.333 802 596 c 0
 794 600.667 784.333 603 773 603 c 0
 745.667 602.333 724.667 590.667 710 568 c 0
 705.333 560.667 702 553 700 545 c 0
EndSplineSet
EndChar
StartChar: uni0E52
Encoding: 200 3666 202
OldEncoding: 3666
Width: 1350
Flags: W
Fore
709 513 m 0
 703.667 490.333 710.333 474.333 729 465 c 0
 735 462.333 742 461 750 461 c 0
 776 461 795.667 472.667 809 496 c 0
 812.333 502 814.667 508.667 816 516 c 0
 820.667 537.333 812.667 551.667 792 559 c 0
 785.333 561.667 778 563 770 563 c 0
 745.333 562.333 726.667 551.333 714 530 c 0
 711.333 524.667 709.667 519 709 513 c 0
545 0 m 1
 429 6.66667 352.333 53.6667 315 141 c 0
 296.333 187 290.333 242.333 297 307 c 1
 337 611 l 1
 357 801 350 975.333 316 1134 c 1
 550 1134 l 1
 576.667 979.333 577.333 788 552 560 c 1
 537.333 438 529 362.667 527 334 c 0
 525 284 540.667 249.667 574 231 c 0
 582 226.333 591 223 601 221 c 0
 619.667 217.667 643.333 216 672 216 c 2
 1050 217 l 1
 1111 506 l 2
 1123.67 566 1122.67 619.667 1108 667 c 0
 1103.33 683.667 1095.67 695.333 1085 702 c 1
 1085 701.333 1045.33 678 966 632 c 1
 867 702 l 1
 859.667 696 852.667 686.667 846 674 c 1
 872 668 894.667 651.333 914 624 c 1
 934 598.667 941.333 565 936 523 c 1
 934 511 l 1
 925.333 469 901.667 430 863 394 c 0
 827 360 783 343 731 343 c 0
 647.667 343 596.667 368.667 578 420 c 0
 564 458 564.667 513.333 580 586 c 1
 599.333 664 637 732 693 790 c 0
 721.667 819.333 766.333 851 827 885 c 0
 861 904.333 890 917.333 914 924 c 1
 914 923.333 945.333 892.333 1008 831 c 1
 1132 924 l 1
 1188.67 908 1238.67 867 1282 801 c 0
 1308.67 759.667 1325 719 1331 679 c 0
 1339 631 1335.67 573.333 1321 506 c 1
 1214 0 l 1
 545 0 l 1
EndSplineSet
EndChar
